<svg width="1920" height="354" viewBox="0 0 1920 354" fill="none" xmlns="http://www.w3.org/2000/svg">
<rect x="3.22827" width="956.772" height="286.56" fill="#FAFAFA"/>
<path d="M1.61353 286.56V67.68C50.7926 97.9865 89.2893 106.498 102.39 106.966C127.383 108.089 149.755 114.917 157.817 118.191C169.911 124.364 177.637 123.569 179.988 122.4C257.385 135.308 295.546 122.166 304.951 113.982C334.781 88.1649 361.051 94.8061 370.456 101.354C386.581 97.4252 399.346 102.991 403.713 106.265C412.581 111.877 447.718 113.748 464.179 113.982C536.738 105.563 667.076 110.474 723.175 113.982C840.076 122.961 929.767 86.8554 960 67.68V286.56H1.61353Z" fill="#85DAEF"/>
<path d="M218.242 176.726H127.459C131.079 172.162 137.452 172.675 140.186 173.501C143.353 168.937 152.441 168.954 156.589 169.533C167.449 158.024 178.648 163.745 182.891 168.045C191.375 165.316 192.506 171.269 192.789 170.773C193.015 170.376 194.015 170.608 194.486 170.773C200.142 167.995 204.95 170.773 206.647 172.509C213.661 170.128 216.546 173.501 217.111 175.486C218.242 175.684 218.337 176.395 218.242 176.726Z" fill="#E2EDE8"/>
<path d="M725.754 169.743H635.615C639.209 165.179 645.537 165.691 648.251 166.518C651.396 161.954 660.419 161.971 664.538 162.55C675.321 151.041 686.441 156.762 690.653 161.061C699.077 158.333 700.201 164.286 700.481 163.79C700.706 163.393 701.698 163.624 702.166 163.79C707.782 161.012 712.556 163.79 714.241 165.526C721.205 163.145 724.069 166.518 724.631 168.502C725.754 168.701 725.848 169.412 725.754 169.743Z" fill="#E2EDE8"/>
<path d="M524.807 135.902H422.434C426.516 130.46 433.703 131.071 436.785 132.057C440.357 126.616 450.605 126.635 455.283 127.325C467.529 113.604 480.158 120.425 484.942 125.551C494.51 122.298 495.785 129.396 496.104 128.804C496.359 128.331 497.486 128.607 498.018 128.804C504.396 125.492 509.818 128.804 511.731 130.874C519.64 128.035 522.893 132.057 523.531 134.423C524.807 134.659 524.913 135.507 524.807 135.902Z" fill="#E2EDE8"/>
<path d="M102.373 98.0674H0C4.08216 92.6261 11.2685 93.2371 14.3513 94.2228C17.9232 88.7814 28.1711 88.8011 32.8486 89.4912C45.0951 75.7694 57.7242 82.5909 62.508 87.7169C72.0756 84.4639 73.3512 91.5613 73.6702 90.9699C73.9253 90.4967 75.0521 90.7727 75.5837 90.9699C81.962 87.6577 87.3836 90.9699 89.2972 93.04C97.2063 90.201 100.459 94.2229 101.097 96.5887C102.373 96.8253 102.479 97.6731 102.373 98.0674Z" fill="#E2EDE8"/>
<path d="M861.983 120.624C870.717 110.978 895.776 111.013 907.214 112.236C926.125 96.8744 945.41 96.0367 960 99.7939V127.44H826.891C836.873 117.794 854.445 118.877 861.983 120.624Z" fill="#E2EDE8"/>
<path d="M512.947 285.747V171.606H532.86V244.515H567.218V201.581H609.19V215.849H652.529V247.656H664.242V204.199H706.215V161.92H747.796V215.849H762.633V230.378H776.103V192.026H806.167V222.917H826.08V159.563C842.322 137.468 859.397 150.357 865.904 159.563V237.97H898.701V221.477H909.634V206.424H930.327V226.582H944.383V187.183H959.219V285.747H512.947Z" fill="#DCEAE3"/>
<path d="M481.126 285.747V191.633L491.668 191.502V189.67H497.915V191.633H503.772V171.606H513.533V282.344H593.573V201.319H623.441V214.016H626.955V212.576H630.665V214.016H652.92V282.344H665.804L664.047 204.854H673.808V279.072H693.135V204.854H695.673V203.545H703.091V204.854H707.191V161.396H716.171V279.072H738.816V161.396H747.601V215.718H753.262V215.194H759.119V215.718H761.852V279.072H798.358L797.382 191.502H806.948L808.119 279.072H864.928V237.839H892.064V279.072H905.339V220.954H909.829V206.686H929.936V227.76H938.135V278.286H960V285.747H481.126Z" fill="#D3E6DC"/>
<path d="M35.0814 285.747V171.606H54.9938V244.515H89.3525V201.581H131.325V215.849H174.663V247.657H186.377V204.199H228.349V161.92H269.931V215.849H284.767V230.378H298.238V192.026H328.301V222.917H348.214V159.564C364.456 137.468 381.531 150.357 388.039 159.564V237.97H420.835V221.477H431.768V206.424H452.461V226.582H466.517V187.183H481.354V285.747H35.0814Z" fill="#DCEAE3"/>
<path d="M3.26038 285.747V191.633L13.8022 191.502V189.67H20.0493V191.633H25.9059V171.606H35.6668V282.344H115.707V201.319H145.576V214.016H149.089V212.576H152.799V214.016H175.054V282.344H187.938L186.181 204.854H195.942V279.072H215.269V204.854H217.807V203.545H225.225V204.854H229.325V161.396H238.305V279.072H260.95V161.396H269.735V215.718H275.397V215.194H281.253V215.718H283.986V279.072H320.492L319.516 191.502H329.082L330.253 279.072H387.062V237.839H414.198V279.072H427.473V220.954H431.963V206.686H452.07V227.76H460.27V278.286H482.134V285.747H3.26038Z" fill="#D3E6DC"/>
<path d="M455.602 287.381C335.551 278.356 103.951 283.621 3.15723 287.381C64.4708 377.624 166.317 355.242 209.575 332.771C244.096 303.334 373.593 320.506 434.027 332.771C484.005 351.249 590.316 346.737 637.225 342.171C688.749 322.833 801.028 319.968 850.727 320.953C963.307 323.746 967.408 299.735 955.385 287.381C982.435 272.985 874.342 273.504 816.915 275.563C798.881 289.314 568.526 289.171 455.602 287.381Z" fill="#A8CB45"/>
<path d="M154.831 203.852H152.577C155.669 202.563 156.012 200.987 155.797 200.361C152.448 196.278 145.385 191.856 142.272 190.155C147.167 191.444 154.617 195.884 157.73 197.943C159.275 199.018 160.306 198.391 160.628 197.943C161.916 196.439 162.667 197.317 162.882 197.943C168.034 196.439 171.684 197.854 172.865 198.749C168.485 198.749 163.526 199.465 161.594 199.823C161.272 201.435 159.662 201.166 159.018 201.435C158.502 201.65 156.656 204.21 155.797 205.464L154.831 203.852Z" fill="black" stroke="black"/>
<path d="M330.979 232.501C326.857 229.063 321.103 229.278 318.742 229.815C324.152 225.732 329.798 228.651 331.945 230.62C332.718 231.91 335.273 231.158 336.453 230.62C343.667 229.116 346.543 231.247 347.08 232.501C341.413 229.278 336.561 231.874 334.843 233.575L333.555 234.918C331.086 235.455 326.664 236.207 328.725 234.918C330.786 233.629 331.086 232.769 330.979 232.501Z" fill="black" stroke="black"/>
<path d="M450.45 173.645H444.976C448.067 172.141 446.908 171.048 445.942 170.69C443.623 168.327 440.253 168.81 438.857 169.347C434.735 169.992 433.49 168.363 433.383 167.467C435.959 168.112 438.965 167.736 440.145 167.467C443.752 165.319 446.586 167.825 447.552 169.347H449.484C455.152 165.05 457.642 165.766 458.179 166.662C456.118 165.802 452.597 168.094 451.094 169.347C452.64 170.637 451.738 171.317 451.094 171.496L450.45 173.645Z" fill="black" stroke="black"/>
<path d="M589.243 231.028C588.47 229.095 586.774 228.79 586.023 228.88C590.402 228.02 588.492 226.731 586.989 226.194C587.762 223.615 581.514 224.403 578.294 225.12C585.765 222.111 588.706 223.866 589.243 225.12C590.531 227.053 592.571 225.925 593.429 225.12C596.778 223.616 597.401 228.432 597.294 231.028C592.463 220.554 590.209 233.446 589.243 231.028Z" fill="black" stroke="black"/>
<path d="M672.648 202.514C671.359 197.143 665.456 198.844 662.665 200.366C664.21 196.068 669.964 197.948 672.648 199.023C678.315 197.304 680.161 198.575 680.376 199.828C674.966 198.539 672.97 201.082 672.648 202.514Z" fill="black" stroke="black"/>
<path d="M86.8686 281.498C83.1566 273.658 89.2514 269.215 92.7628 267.973C95.7725 258.094 106.139 257.257 110.947 258.074C120.678 259.878 122.526 267.32 122.233 270.815C131.764 278.029 126.205 285.321 122.233 288.065C112.803 293.71 104.342 289.502 101.29 286.693C93.2644 287.634 88.3317 283.622 86.8686 281.498Z" fill="#9DBD4A"/>
<path d="M99.9111 278.656C91.0825 279.675 87.454 274.964 86.7434 272.482C84.1349 277.108 86.5762 281.335 88.1229 282.87C91.9352 287.261 98.239 287.117 100.914 286.497C111.85 294.102 120.687 290.025 123.738 286.987C129.256 283.223 127.375 276.892 125.745 274.246C123.538 277.147 120.812 279.375 119.725 280.126C111.198 285.379 102.963 281.335 99.9111 278.656Z" fill="#87A342"/>
<path d="M106.934 306.295H103.673L104.175 292.475C101.466 289.339 100.204 286.203 99.911 285.027H100.287C100.287 286.281 102.461 289.404 103.548 290.809C103.648 291.123 104.258 291.071 104.551 291.005V283.753C104.952 283.753 105.053 283.557 105.053 283.458H105.931C105.931 283.615 106.181 283.72 106.307 283.753C106.307 285.085 106.641 285.745 106.808 285.909V286.791C106.608 286.869 106.474 287.281 106.432 287.477C106.232 293.201 106.349 294.958 106.432 295.122C110.044 292.613 110.445 289.96 110.194 288.947H110.571C111.474 291.064 108.104 295.122 106.307 296.886C106.206 300.257 106.683 304.563 106.934 306.295Z" fill="#805E46"/>
<path d="M481.028 277.201C477.316 269.36 483.41 264.917 486.922 263.676C489.932 253.797 500.299 252.96 505.106 253.777C514.837 255.58 516.685 263.022 516.392 266.518C525.923 273.732 520.364 281.023 516.392 283.768C506.962 289.413 498.501 285.205 495.449 282.396C487.423 283.336 482.491 279.325 481.028 277.201Z" fill="#9DBD4A"/>
<path d="M494.07 274.359C485.241 275.378 481.613 270.667 480.902 268.184C478.294 272.81 480.735 277.038 482.282 278.573C486.094 282.964 492.398 282.82 495.073 282.2C506.009 289.805 514.846 285.728 517.897 282.69C523.415 278.926 521.534 272.595 519.904 269.948C517.697 272.849 514.971 275.078 513.884 275.829C505.357 281.082 497.121 277.038 494.07 274.359Z" fill="#87A342"/>
<path d="M501.093 301.997H497.832L498.334 288.178C495.625 285.042 494.363 281.906 494.07 280.729H494.446C494.446 281.984 496.62 285.107 497.707 286.512C497.807 286.826 498.417 286.773 498.71 286.708V279.455C499.111 279.455 499.212 279.259 499.212 279.161H500.09C500.09 279.318 500.34 279.423 500.466 279.455C500.466 280.788 500.8 281.448 500.967 281.611V282.494C500.767 282.572 500.633 282.984 500.591 283.18C500.391 288.903 500.508 290.661 500.591 290.824C504.203 288.315 504.604 285.663 504.353 284.65H504.73C505.633 286.767 502.263 290.824 500.466 292.588C500.365 295.96 500.842 300.266 501.093 301.997Z" fill="#805E46"/>
<path d="M417.846 280.845C419.957 275.891 416.491 273.083 414.494 272.299C412.782 266.057 406.886 265.528 404.152 266.044C398.617 267.184 397.566 271.886 397.733 274.095C392.312 278.653 395.474 283.26 397.733 284.994C403.096 288.561 407.908 285.902 409.644 284.127C414.208 284.721 417.014 282.187 417.846 280.845Z" fill="#9DBD4A"/>
<path d="M410.428 279.049C415.449 279.693 417.513 276.716 417.917 275.148C419.4 278.071 418.012 280.742 417.132 281.712C414.964 284.486 411.379 284.395 409.858 284.003C403.638 288.809 398.612 286.233 396.877 284.313C393.739 281.935 394.809 277.934 395.736 276.262C396.991 278.095 398.541 279.503 399.159 279.978C404.009 283.297 408.693 280.742 410.428 279.049Z" fill="#87A342"/>
<path d="M406.434 296.512H408.288L408.003 287.781C409.544 285.799 410.262 283.817 410.428 283.074H410.214C410.214 283.867 408.978 285.84 408.36 286.728C408.303 286.926 407.956 286.893 407.789 286.852V282.269C407.561 282.269 407.504 282.145 407.504 282.083H407.005C407.005 282.182 406.862 282.249 406.791 282.269C406.791 283.111 406.6 283.528 406.505 283.632V284.189C406.619 284.238 406.696 284.499 406.719 284.622C406.833 288.239 406.767 289.349 406.719 289.453C404.665 287.867 404.437 286.191 404.58 285.551H404.366C403.852 286.889 405.768 289.453 406.791 290.567C406.848 292.698 406.577 295.418 406.434 296.512Z" fill="#805E46"/>
<path d="M216.255 288.111C203.929 289.306 200.012 279.065 199.594 273.795C203.002 280.168 208.781 281.43 211.244 281.264C218.76 280.766 223.145 281.803 224.397 282.384C236.022 285.272 240.432 276.118 241.183 271.181C242.486 278.451 238.803 283.837 236.799 285.621C228.682 293.19 219.721 290.434 216.255 288.111Z" fill="#87A342"/>
<path d="M221.767 311.016H218.635L219.011 294.584C217.428 292.094 215.846 288.484 215.253 286.99H215.754C216.556 289.978 218.426 291.721 219.262 292.219L219.512 285.247H221.141V288.857C222.143 288.982 223.521 285.745 223.521 286.368C223.521 286.866 221.934 288.733 221.141 289.604C220.64 297.073 221.349 306.991 221.767 311.016Z" fill="#867046"/>
<path d="M213.249 259.23C202.225 260.126 199.511 269.605 199.595 274.086C202.701 280.261 207.904 281.556 210.117 281.431C218.034 280.834 221.85 281.929 222.644 282.427C235.571 287.008 240.39 276.95 241.183 271.472C240.682 266.991 238.01 263.753 236.799 262.84C236.298 257.462 232.665 254.375 230.911 253.504C221.491 248.923 215.211 255.413 213.249 259.23Z" fill="#9DBD4A"/>
<path d="M30.9127 283.856C20.862 284.768 17.6684 276.948 17.3279 272.924C20.1061 277.791 24.8182 278.754 26.827 278.627C32.9555 278.247 36.5304 279.039 37.5519 279.483C47.0306 281.688 50.6259 274.698 51.2388 270.927C52.3011 276.479 49.2981 280.592 47.6638 281.954C41.0451 287.734 33.7386 285.63 30.9127 283.856Z" fill="#87A342"/>
<path d="M35.4071 301.347H32.8535L33.1599 288.799C31.8694 286.898 30.5794 284.141 30.0957 283H30.5043C31.158 285.282 32.6833 286.612 33.3642 286.993L33.5685 281.669H34.8963V284.426C35.7135 284.521 36.837 282.049 36.837 282.525C36.837 282.905 35.5432 284.331 34.8963 284.996C34.4878 290.7 35.0666 298.273 35.4071 301.347Z" fill="#867046"/>
<path d="M28.4613 261.801C19.4729 262.486 17.2598 269.724 17.3279 273.146C19.861 277.861 24.1033 278.85 25.9078 278.755C32.3631 278.299 35.475 279.135 36.1219 279.515C46.6629 283.014 50.5919 275.333 51.2388 271.15C50.8303 267.728 48.6513 265.255 47.6639 264.558C47.2553 260.452 44.2932 258.094 42.8632 257.429C35.1822 253.93 30.0615 258.886 28.4613 261.801Z" fill="#9DBD4A"/>
<path d="M458.693 296.473C449.022 297.288 445.949 290.305 445.621 286.712C448.294 291.058 452.829 291.918 454.762 291.805C460.659 291.465 464.099 292.172 465.082 292.569C474.203 294.538 477.663 288.296 478.252 284.93C479.274 289.887 476.385 293.559 474.812 294.775C468.443 299.936 461.412 298.057 458.693 296.473Z" fill="#87A342"/>
<path d="M463.018 312.09H460.561L460.856 300.886C459.614 299.189 458.373 296.727 457.907 295.709H458.3C458.929 297.746 460.397 298.934 461.052 299.274L461.249 294.521H462.527V296.982C463.313 297.067 464.394 294.86 464.394 295.285C464.394 295.624 463.149 296.897 462.527 297.491C462.134 302.584 462.691 309.346 463.018 312.09Z" fill="#867046"/>
<path d="M456.335 276.782C447.685 277.393 445.556 283.855 445.621 286.911C448.059 291.121 452.141 292.004 453.877 291.919C460.089 291.511 463.084 292.258 463.706 292.598C473.849 295.721 477.63 288.863 478.253 285.129C477.859 282.073 475.763 279.865 474.813 279.243C474.419 275.576 471.569 273.471 470.193 272.877C462.802 269.754 457.874 274.179 456.335 276.782Z" fill="#9DBD4A"/>
<path d="M298.328 313.164H294.509V303.631H295.377V302.088H296.071V279.656C295.933 279.207 295.319 278.721 295.03 278.534H298.328C297.634 278.647 297.113 279.329 296.94 279.656V302.088H297.46V303.631H298.328V313.164Z" fill="#575254"/>
<path d="M299.544 276.958C299.149 277.072 298.173 278.056 297.734 278.534H296.419V272.085H299.544V276.958Z" fill="#FCE6A8"/>
<path d="M293.641 272.085H296.592V278.534H295.203C295.203 278.198 294.162 277.272 293.641 276.852V272.085Z" fill="#FADB80"/>
<path d="M293.641 272.085L292.947 271.664H300.064L299.544 272.085H293.641Z" fill="#AEA466"/>
<path d="M293.641 271.104V271.664H299.37V271.104H298.676V270.122H297.46V268.58H295.551V270.122H294.162V271.104H293.641Z" fill="#554F53"/>
<path d="M270.649 309.106V307.847H235.005V309.106H270.649Z" fill="#956B40"/>
<path d="M232.436 302.529H231.151V301.269H235.005V313.164H232.436V302.529Z" fill="#BB894B"/>
<path d="M272.897 302.389H274.182V301.13H270.328V313.024H272.897V302.389Z" fill="#BB894B"/>
<rect x="235.005" y="301.41" width="35.3235" height="1.11951" fill="#B18246"/>
<rect x="235.005" y="298.891" width="1.60561" height="5.8774" fill="#9E7E43"/>
<rect x="238.216" y="298.331" width="1.60561" height="6.43715" fill="#9E7E43"/>
<rect x="241.427" y="297.771" width="1.60561" height="6.99691" fill="#9E7E43"/>
<rect x="244.959" y="297.211" width="1.60561" height="7.55666" fill="#9E7E43"/>
<rect x="248.492" y="296.652" width="1.60561" height="8.11641" fill="#9E7E43"/>
<rect x="251.703" y="296.652" width="1.60561" height="8.11641" fill="#9E7E43"/>
<rect x="254.914" y="296.652" width="1.92673" height="8.11641" fill="#9E7E43"/>
<rect x="258.446" y="297.211" width="1.92673" height="7.55666" fill="#9E7E43"/>
<rect x="262.3" y="297.771" width="1.60561" height="6.99691" fill="#9E7E43"/>
<rect x="265.511" y="298.331" width="1.92673" height="6.43715" fill="#9E7E43"/>
<rect x="269.043" y="298.891" width="1.60561" height="5.8774" fill="#9E7E43"/>
<rect x="235.005" y="304.208" width="35.3235" height="2.51889" fill="#B18246"/>
<path d="M440.398 298.124H438.827V293.759H439.184V293.053H439.47V282.783C439.412 282.577 439.16 282.355 439.041 282.269H440.398C440.112 282.321 439.898 282.633 439.826 282.783V293.053H440.041V293.759H440.398V298.124Z" fill="#575254"/>
<path d="M440.897 281.547C440.735 281.6 440.334 282.05 440.153 282.269H439.612V279.316H440.897V281.547Z" fill="#FCE6A8"/>
<path d="M438.47 279.316H439.684V282.269H439.113C439.113 282.115 438.684 281.691 438.47 281.499V279.316Z" fill="#FADB80"/>
<path d="M438.47 279.316L438.184 279.124H441.111L440.897 279.316H438.47Z" fill="#AEA466"/>
<path d="M438.47 278.867V279.124H440.826V278.867H440.54V278.418H440.041V277.712H439.255V278.418H438.684V278.867H438.47Z" fill="#554F53"/>
<path d="M429.016 296.266V295.689H414.358V296.266H429.016Z" fill="#956B40"/>
<path d="M413.301 293.255H412.773V292.678H414.358V298.124H413.301V293.255Z" fill="#BB894B"/>
<path d="M429.94 293.191H430.468V292.614H428.883V298.06H429.94V293.191Z" fill="#BB894B"/>
<rect x="414.358" y="292.742" width="14.5255" height="0.512544" fill="#B18246"/>
<rect x="414.358" y="291.589" width="0.660252" height="2.69086" fill="#9E7E43"/>
<rect x="415.678" y="291.332" width="0.660252" height="2.94713" fill="#9E7E43"/>
<rect x="416.999" y="291.076" width="0.660252" height="3.2034" fill="#9E7E43"/>
<rect x="418.451" y="290.82" width="0.660252" height="3.45967" fill="#9E7E43"/>
<rect x="419.904" y="290.564" width="0.660252" height="3.71595" fill="#9E7E43"/>
<rect x="421.225" y="290.564" width="0.660252" height="3.71595" fill="#9E7E43"/>
<rect x="422.545" y="290.564" width="0.792302" height="3.71595" fill="#9E7E43"/>
<rect x="423.997" y="290.82" width="0.792302" height="3.45967" fill="#9E7E43"/>
<rect x="425.582" y="291.076" width="0.660252" height="3.2034" fill="#9E7E43"/>
<rect x="426.903" y="291.332" width="0.792302" height="2.94713" fill="#9E7E43"/>
<rect x="428.355" y="291.589" width="0.660252" height="2.69086" fill="#9E7E43"/>
<rect x="414.358" y="294.023" width="14.5255" height="1.15322" fill="#B18246"/>
<path d="M692.119 322.833H688.906V316.975H689.636V316.027H690.22V302.244C690.104 301.968 689.588 301.669 689.344 301.555H692.119C691.535 301.623 691.097 302.043 690.951 302.244V316.027H691.389V316.975H692.119V322.833Z" fill="#575254"/>
<path d="M693.141 300.586C692.809 300.656 691.988 301.261 691.619 301.554H690.513V297.592H693.141V300.586Z" fill="#FCE6A8"/>
<path d="M688.176 297.592H690.658V301.554H689.49C689.49 301.348 688.614 300.779 688.176 300.521V297.592Z" fill="#FADB80"/>
<path d="M688.176 297.592L687.592 297.333H693.579L693.141 297.592H688.176Z" fill="#AEA466"/>
<path d="M688.176 296.989V297.333H692.995V296.989H692.411V296.386H691.388V295.438H689.782V296.386H688.614V296.989H688.176Z" fill="#554F53"/>
<path d="M668.837 320.34V319.566H638.856V320.34H668.837Z" fill="#956B40"/>
<path d="M636.695 316.298H635.615V315.524H638.856V322.833H636.695V316.298Z" fill="#BB894B"/>
<path d="M670.728 316.212H671.808V315.438H668.567V322.747H670.728V316.212Z" fill="#BB894B"/>
<rect x="638.856" y="315.61" width="29.7113" height="0.687889" fill="#B18246"/>
<rect x="638.856" y="314.062" width="1.35052" height="3.61142" fill="#9E7E43"/>
<rect x="641.557" y="313.719" width="1.35052" height="3.95536" fill="#9E7E43"/>
<rect x="644.258" y="313.375" width="1.35052" height="4.2993" fill="#9E7E43"/>
<rect x="647.229" y="313.031" width="1.35052" height="4.64325" fill="#9E7E43"/>
<rect x="650.2" y="312.687" width="1.35052" height="4.98719" fill="#9E7E43"/>
<rect x="652.901" y="312.687" width="1.35052" height="4.98719" fill="#9E7E43"/>
<rect x="655.602" y="312.687" width="1.62062" height="4.98719" fill="#9E7E43"/>
<rect x="658.573" y="313.031" width="1.62062" height="4.64325" fill="#9E7E43"/>
<rect x="661.815" y="313.375" width="1.35052" height="4.2993" fill="#9E7E43"/>
<rect x="664.516" y="313.719" width="1.62062" height="3.95536" fill="#9E7E43"/>
<rect x="667.487" y="314.062" width="1.35052" height="3.61142" fill="#9E7E43"/>
<rect x="638.856" y="317.33" width="29.7113" height="1.54775" fill="#B18246"/>
<path d="M156.983 293.827H155.341V290.61H155.714V290.09H156.013V282.523C155.953 282.371 155.689 282.207 155.565 282.144H156.983C156.684 282.182 156.461 282.412 156.386 282.523V290.09H156.61V290.61H156.983V293.827Z" fill="#575254"/>
<path d="M157.506 281.612C157.336 281.651 156.917 281.983 156.728 282.144H156.162V279.969H157.506V281.612Z" fill="#FCE6A8"/>
<path d="M154.968 279.969H156.237V282.144H155.64C155.64 282.031 155.192 281.718 154.968 281.577V279.969Z" fill="#FADB80"/>
<path d="M154.968 279.968L154.669 279.827H157.729L157.506 279.968H154.968Z" fill="#AEA466"/>
<path d="M154.968 279.637V279.827H157.431V279.637H157.132V279.306H156.61V278.786H155.789V279.306H155.192V279.637H154.968Z" fill="#554F53"/>
<path d="M145.084 292.458V292.033H129.76V292.458H145.084Z" fill="#956B40"/>
<path d="M128.655 290.239H128.103V289.814H129.76V293.827H128.655V290.239Z" fill="#BB894B"/>
<path d="M146.05 290.192H146.602V289.767H144.946V293.779H146.05V290.192Z" fill="#BB894B"/>
<rect x="129.76" y="289.861" width="15.1858" height="0.377664" fill="#B18246"/>
<rect x="129.76" y="289.011" width="0.690263" height="1.98274" fill="#9E7E43"/>
<rect x="131.14" y="288.823" width="0.690263" height="2.17157" fill="#9E7E43"/>
<rect x="132.521" y="288.634" width="0.690263" height="2.3604" fill="#9E7E43"/>
<rect x="134.039" y="288.445" width="0.690263" height="2.54923" fill="#9E7E43"/>
<rect x="135.558" y="288.256" width="0.690263" height="2.73807" fill="#9E7E43"/>
<rect x="136.938" y="288.256" width="0.690263" height="2.73807" fill="#9E7E43"/>
<rect x="138.319" y="288.256" width="0.828316" height="2.73807" fill="#9E7E43"/>
<rect x="139.838" y="288.445" width="0.828316" height="2.54923" fill="#9E7E43"/>
<rect x="141.494" y="288.634" width="0.690263" height="2.3604" fill="#9E7E43"/>
<rect x="142.875" y="288.823" width="0.828316" height="2.17157" fill="#9E7E43"/>
<rect x="144.393" y="289.011" width="0.690263" height="1.98274" fill="#9E7E43"/>
<rect x="129.76" y="290.805" width="15.1858" height="0.849745" fill="#B18246"/>
<path d="M898.929 305.107H897.287V301.891H897.66V301.371H897.958V293.803C897.899 293.652 897.635 293.488 897.511 293.425H898.929C898.63 293.462 898.406 293.693 898.332 293.803V301.371H898.555V301.891H898.929V305.107Z" fill="#575254"/>
<path d="M899.451 292.893C899.282 292.931 898.862 293.263 898.673 293.425H898.108V291.249H899.451V292.893Z" fill="#FCE6A8"/>
<path d="M896.913 291.249H898.182V293.425H897.585C897.585 293.311 897.137 292.999 896.913 292.857V291.249Z" fill="#FADB80"/>
<path d="M896.913 291.249L896.615 291.107H899.675L899.451 291.249H896.913Z" fill="#AEA466"/>
<path d="M896.913 290.918V291.107H899.376V290.918H899.078V290.587H898.555V290.066H897.734V290.587H897.137V290.918H896.913Z" fill="#554F53"/>
<path d="M887.029 303.738V303.313H871.705V303.738H887.029Z" fill="#956B40"/>
<path d="M870.601 301.519H870.049V301.094H871.705V305.107H870.601V301.519Z" fill="#BB894B"/>
<path d="M887.996 301.472H888.548V301.047H886.891V305.06H887.996V301.472Z" fill="#BB894B"/>
<rect x="871.705" y="301.142" width="15.1858" height="0.377664" fill="#B18246"/>
<rect x="871.705" y="300.292" width="0.690263" height="1.98274" fill="#9E7E43"/>
<rect x="873.086" y="300.103" width="0.690263" height="2.17157" fill="#9E7E43"/>
<rect x="874.466" y="299.914" width="0.690263" height="2.3604" fill="#9E7E43"/>
<rect x="875.985" y="299.725" width="0.690263" height="2.54923" fill="#9E7E43"/>
<rect x="877.504" y="299.536" width="0.690263" height="2.73807" fill="#9E7E43"/>
<rect x="878.884" y="299.536" width="0.690263" height="2.73807" fill="#9E7E43"/>
<rect x="880.265" y="299.536" width="0.828316" height="2.73807" fill="#9E7E43"/>
<rect x="881.783" y="299.725" width="0.828316" height="2.54923" fill="#9E7E43"/>
<rect x="883.44" y="299.914" width="0.690263" height="2.3604" fill="#9E7E43"/>
<rect x="884.82" y="300.103" width="0.828316" height="2.17157" fill="#9E7E43"/>
<rect x="886.339" y="300.292" width="0.690263" height="1.98274" fill="#9E7E43"/>
<rect x="871.705" y="302.086" width="15.1858" height="0.849745" fill="#B18246"/>
<path d="M89.6936 306.718H87.3734V301.435H87.9007V300.58H88.3226V288.147C88.2382 287.899 87.8656 287.629 87.6898 287.526H89.6936C89.2717 287.588 88.9553 287.966 88.8499 288.147V300.58H89.1663V301.435H89.6936V306.718Z" fill="#575254"/>
<path d="M90.432 286.652C90.1922 286.716 89.5994 287.261 89.333 287.526H88.5337V283.952H90.432V286.652Z" fill="#FCE6A8"/>
<path d="M86.8462 283.952H88.639V287.526H87.7953C87.7953 287.339 87.1626 286.827 86.8462 286.593V283.952Z" fill="#FADB80"/>
<path d="M86.8462 283.952L86.4243 283.719H90.7482L90.4318 283.952H86.8462Z" fill="#AEA466"/>
<path d="M86.8462 283.408V283.719H90.3264V283.408H89.9046V282.864H89.1663V282.009H88.0063V282.864H87.1626V283.408H86.8462Z" fill="#554F53"/>
<path d="M72.879 304.469V303.771H51.2257V304.469H72.879Z" fill="#956B40"/>
<path d="M49.6653 300.824H48.885V300.126H51.2259V306.718H49.6653V300.824Z" fill="#BB894B"/>
<path d="M74.2446 300.747H75.0249V300.049H72.684V306.641H74.2446V300.747Z" fill="#BB894B"/>
<rect x="51.2257" y="300.204" width="21.4582" height="0.620449" fill="#B18246"/>
<rect x="51.2257" y="298.808" width="0.975372" height="3.25735" fill="#9E7E43"/>
<rect x="53.1765" y="298.498" width="0.975372" height="3.56758" fill="#9E7E43"/>
<rect x="55.1272" y="298.187" width="0.975372" height="3.8778" fill="#9E7E43"/>
<rect x="57.2731" y="297.877" width="0.975372" height="4.18803" fill="#9E7E43"/>
<rect x="59.4189" y="297.567" width="0.975372" height="4.49825" fill="#9E7E43"/>
<rect x="61.3696" y="297.567" width="0.975372" height="4.49825" fill="#9E7E43"/>
<rect x="63.3203" y="297.567" width="1.17045" height="4.49825" fill="#9E7E43"/>
<rect x="65.4663" y="297.877" width="1.17045" height="4.18803" fill="#9E7E43"/>
<rect x="67.8071" y="298.187" width="0.975372" height="3.8778" fill="#9E7E43"/>
<rect x="69.7579" y="298.498" width="1.17045" height="3.56758" fill="#9E7E43"/>
<rect x="71.9037" y="298.808" width="0.975372" height="3.25735" fill="#9E7E43"/>
<rect x="51.2257" y="301.755" width="21.4582" height="1.39601" fill="#B18246"/>
<path d="M606.618 292.242C602.906 284.401 609 279.958 612.512 278.716C615.521 268.837 625.888 268.001 630.696 268.817C640.427 270.621 642.275 278.063 641.982 281.559C651.513 288.772 645.954 296.064 641.982 298.808C632.552 304.453 624.091 300.246 621.039 297.436C613.013 298.377 608.081 294.365 606.618 292.242Z" fill="#9DBD4A"/>
<path d="M619.66 289.399C610.831 290.418 607.203 285.707 606.492 283.225C603.883 287.851 606.325 292.078 607.871 293.614C611.684 298.004 617.988 297.861 620.663 297.24C631.598 304.845 640.435 300.768 643.487 297.73C649.005 293.966 647.124 287.635 645.493 284.989C643.286 287.89 640.561 290.118 639.474 290.869C630.946 296.123 622.711 292.078 619.66 289.399Z" fill="#87A342"/>
<path d="M626.683 317.038H623.422L623.924 303.218C621.215 300.082 619.952 296.946 619.66 295.77H620.036C620.036 297.024 622.21 300.147 623.297 301.552C623.397 301.866 624.007 301.814 624.3 301.748V294.496C624.701 294.496 624.802 294.3 624.802 294.202H625.679C625.679 294.358 625.93 294.463 626.056 294.496C626.056 295.829 626.39 296.488 626.557 296.652V297.534C626.357 297.612 626.223 298.024 626.181 298.22C625.98 303.944 626.097 305.701 626.181 305.865C629.793 303.356 630.194 300.703 629.943 299.69H630.319C631.222 301.807 627.853 305.865 626.056 307.629C625.955 311 626.432 315.306 626.683 317.038Z" fill="#805E46"/>
<path d="M937.594 291.588C939.705 286.634 936.239 283.827 934.242 283.042C932.53 276.8 926.634 276.271 923.9 276.787C918.366 277.927 917.315 282.629 917.481 284.838C912.061 289.396 915.223 294.003 917.481 295.737C922.845 299.304 927.657 296.645 929.392 294.87C933.957 295.465 936.762 292.93 937.594 291.588Z" fill="#9DBD4A"/>
<path d="M930.177 289.792C935.198 290.436 937.261 287.46 937.666 285.891C939.149 288.814 937.761 291.485 936.881 292.455C934.713 295.229 931.128 295.139 929.606 294.746C923.387 299.552 918.361 296.976 916.625 295.056C913.487 292.678 914.557 288.677 915.484 287.005C916.74 288.838 918.29 290.246 918.908 290.721C923.758 294.04 928.441 291.485 930.177 289.792Z" fill="#87A342"/>
<path d="M926.183 307.256H928.037L927.752 298.524C929.292 296.542 930.01 294.561 930.177 293.817H929.963C929.963 294.61 928.726 296.584 928.108 297.471C928.051 297.669 927.704 297.636 927.538 297.595V293.012C927.31 293.012 927.252 292.889 927.252 292.827H926.753C926.753 292.926 926.611 292.992 926.539 293.012C926.539 293.855 926.349 294.272 926.254 294.375V294.932C926.368 294.982 926.444 295.242 926.468 295.366C926.582 298.982 926.515 300.093 926.468 300.196C924.414 298.611 924.186 296.934 924.328 296.295H924.114C923.601 297.632 925.517 300.196 926.539 301.311C926.596 303.441 926.325 306.162 926.183 307.256Z" fill="#805E46"/>
<path d="M736.003 298.854C723.677 300.049 719.76 289.808 719.343 284.538C722.75 290.912 728.529 292.173 730.993 292.007C738.509 291.509 742.893 292.546 744.146 293.127C755.771 296.015 760.18 286.862 760.932 281.924C762.235 289.194 758.552 294.58 756.547 296.364C748.43 303.933 739.469 301.177 736.003 298.854Z" fill="#87A342"/>
<path d="M741.515 321.759H738.384L738.76 305.327C737.177 302.837 735.595 299.227 735.002 297.733H735.503C736.304 300.721 738.175 302.464 739.01 302.962L739.261 295.99H740.889V299.601C741.891 299.725 743.269 296.488 743.269 297.111C743.269 297.609 741.682 299.476 740.889 300.347C740.388 307.817 741.098 317.734 741.515 321.759Z" fill="#867046"/>
<path d="M732.997 269.973C721.974 270.869 719.26 280.348 719.343 284.83C722.45 291.004 727.652 292.299 729.866 292.174C737.782 291.577 741.599 292.672 742.392 293.17C755.32 297.751 760.139 287.693 760.932 282.215C760.431 277.734 757.758 274.496 756.548 273.583C756.046 268.206 752.414 265.118 750.66 264.247C741.24 259.666 734.96 266.156 732.997 269.973Z" fill="#9DBD4A"/>
<path d="M550.661 294.599C540.61 295.511 537.417 287.691 537.076 283.667C539.855 288.534 544.567 289.497 546.575 289.37C552.704 288.99 556.279 289.782 557.3 290.226C566.779 292.431 570.374 285.441 570.987 281.67C572.049 287.222 569.047 291.335 567.412 292.698C560.794 298.477 553.487 296.373 550.661 294.599Z" fill="#87A342"/>
<path d="M555.155 312.09H552.602L552.908 299.542C551.618 297.641 550.328 294.884 549.844 293.743H550.253C550.906 296.025 552.432 297.356 553.113 297.736L553.317 292.412H554.645V295.169C555.462 295.264 556.585 292.793 556.585 293.268C556.585 293.648 555.292 295.074 554.645 295.74C554.236 301.443 554.815 309.016 555.155 312.09Z" fill="#867046"/>
<path d="M548.21 272.545C539.221 273.229 537.008 280.467 537.076 283.889C539.61 288.604 543.852 289.593 545.656 289.498C552.112 289.042 555.224 289.878 555.87 290.259C566.411 293.757 570.34 286.076 570.987 281.893C570.579 278.471 568.4 275.998 567.412 275.301C567.004 271.195 564.042 268.837 562.612 268.172C554.931 264.674 549.81 269.629 548.21 272.545Z" fill="#9DBD4A"/>
<path d="M818.077 323.908H814.258V314.374H815.126V312.832H815.82V290.399C815.681 289.951 815.068 289.465 814.778 289.278H818.077C817.382 289.39 816.862 290.072 816.688 290.399V312.832H817.209V314.374H818.077V323.908Z" fill="#575254"/>
<path d="M819.292 287.701C818.898 287.816 817.922 288.8 817.483 289.277H816.167V282.828H819.292V287.701Z" fill="#FCE6A8"/>
<path d="M813.39 282.828H816.341V289.277H814.952C814.952 288.941 813.91 288.016 813.39 287.595V282.828Z" fill="#FADB80"/>
<path d="M813.39 282.828L812.695 282.408H819.813L819.292 282.828H813.39Z" fill="#AEA466"/>
<path d="M813.39 281.847V282.408H819.119V281.847H818.424V280.865H817.209V279.323H815.299V280.865H813.91V281.847H813.39Z" fill="#554F53"/>
<path d="M790.398 319.849V318.59H754.753V319.849H790.398Z" fill="#956B40"/>
<path d="M752.184 313.272H750.9V312.013H754.753V323.907H752.184V313.272Z" fill="#BB894B"/>
<path d="M792.646 313.132H793.93V311.873H790.077V323.768H792.646V313.132Z" fill="#BB894B"/>
<rect x="754.753" y="312.153" width="35.3235" height="1.11951" fill="#B18246"/>
<rect x="754.753" y="309.634" width="1.60561" height="5.8774" fill="#9E7E43"/>
<rect x="757.964" y="309.074" width="1.60561" height="6.43715" fill="#9E7E43"/>
<rect x="761.175" y="308.514" width="1.60561" height="6.99691" fill="#9E7E43"/>
<rect x="764.708" y="307.955" width="1.60561" height="7.55666" fill="#9E7E43"/>
<rect x="768.24" y="307.395" width="1.60561" height="8.11641" fill="#9E7E43"/>
<rect x="771.451" y="307.395" width="1.60561" height="8.11641" fill="#9E7E43"/>
<rect x="774.663" y="307.395" width="1.92673" height="8.11641" fill="#9E7E43"/>
<rect x="778.195" y="307.955" width="1.92673" height="7.55666" fill="#9E7E43"/>
<rect x="782.048" y="308.514" width="1.60561" height="6.99691" fill="#9E7E43"/>
<rect x="785.26" y="309.074" width="1.92673" height="6.43715" fill="#9E7E43"/>
<rect x="788.792" y="309.634" width="1.60561" height="5.8774" fill="#9E7E43"/>
<rect x="754.753" y="314.951" width="35.3235" height="2.51889" fill="#B18246"/>
<rect width="956.772" height="286.56" transform="matrix(-1 0 0 1 1916.77 0.719971)" fill="#FAFAFA"/>
<path d="M1918.39 287.28V68.4C1869.21 98.7064 1830.71 107.218 1817.61 107.686C1792.62 108.809 1770.24 115.637 1762.18 118.911C1750.09 125.084 1742.36 124.289 1740.01 123.12C1662.62 136.028 1624.45 122.886 1615.05 114.702C1585.22 88.8849 1558.95 95.5261 1549.54 102.074C1533.42 98.1452 1520.65 103.711 1516.29 106.985C1507.42 112.597 1472.28 114.468 1455.82 114.702C1383.26 106.283 1252.92 111.194 1196.83 114.702C1079.92 123.681 990.233 87.5753 960 68.4V287.28H1918.39Z" fill="#85DAEF"/>
<path d="M1701.76 177.446H1792.54C1788.92 172.882 1782.55 173.394 1779.81 174.221C1776.65 169.657 1767.56 169.674 1763.41 170.253C1752.55 158.744 1741.35 164.465 1737.11 168.765C1728.62 166.036 1727.49 171.989 1727.21 171.493C1726.98 171.096 1725.99 171.328 1725.51 171.493C1719.86 168.715 1715.05 171.493 1713.35 173.229C1706.34 170.848 1703.45 174.221 1702.89 176.206C1701.76 176.404 1701.66 177.115 1701.76 177.446Z" fill="#E2EDE8"/>
<path d="M1194.25 170.463H1284.39C1280.79 165.899 1274.46 166.411 1271.75 167.238C1268.6 162.674 1259.58 162.691 1255.46 163.27C1244.68 151.761 1233.56 157.482 1229.35 161.782C1220.92 159.053 1219.8 165.006 1219.52 164.51C1219.29 164.113 1218.3 164.345 1217.83 164.51C1212.22 161.732 1207.44 164.51 1205.76 166.246C1198.79 163.865 1195.93 167.238 1195.37 169.222C1194.25 169.421 1194.15 170.132 1194.25 170.463Z" fill="#E2EDE8"/>
<path d="M1395.19 136.622H1497.57C1493.48 131.18 1486.3 131.791 1483.21 132.777C1479.64 127.336 1469.39 127.355 1464.72 128.045C1452.47 114.324 1439.84 121.145 1435.06 126.271C1425.49 123.018 1424.21 130.115 1423.9 129.524C1423.64 129.051 1422.51 129.327 1421.98 129.524C1415.6 126.212 1410.18 129.524 1408.27 131.594C1400.36 128.755 1397.11 132.777 1396.47 135.143C1395.19 135.379 1395.09 136.227 1395.19 136.622Z" fill="#E2EDE8"/>
<path d="M1817.63 98.7873H1920C1915.92 93.346 1908.73 93.9571 1905.65 94.9428C1902.08 89.5014 1891.83 89.5211 1887.15 90.2111C1874.9 76.4894 1862.28 83.3109 1857.49 88.4369C1847.92 85.1839 1846.65 92.2813 1846.33 91.6898C1846.07 91.2167 1844.95 91.4927 1844.42 91.6898C1838.04 88.3777 1832.62 91.6899 1830.7 93.76C1822.79 90.921 1819.54 94.9429 1818.9 97.3087C1817.63 97.5453 1817.52 98.393 1817.63 98.7873Z" fill="#E2EDE8"/>
<path d="M1058.02 121.345C1049.28 111.698 1024.22 111.733 1012.79 112.956C993.875 97.5944 974.59 96.7567 960 100.514V128.16H1093.11C1083.13 118.514 1065.56 119.597 1058.02 121.345Z" fill="#E2EDE8"/>
<path d="M1407.05 286.467V172.326H1387.14V245.235H1352.78V202.301H1310.81V216.569H1267.47V248.376H1255.76V204.919H1213.79V162.64H1172.2V216.569H1157.37V231.098H1143.9V192.746H1113.83V223.637H1093.92V160.283C1077.68 138.188 1060.6 151.077 1054.1 160.283V238.69H1021.3V222.197H1010.37V207.144H989.673V227.302H975.617V187.902H960.781V286.467H1407.05Z" fill="#DCEAE3"/>
<path d="M1438.87 286.467V192.353L1428.33 192.222V190.39H1422.08V192.353H1416.23V172.326H1406.47V283.064H1326.43V202.039H1296.56V214.736H1293.04V213.296H1289.34V214.736H1267.08V283.064H1254.2L1255.95 205.574H1246.19V279.792H1226.87V205.574H1224.33V204.265H1216.91V205.574H1212.81V162.116H1203.83V279.792H1181.18V162.116H1172.4V216.438H1166.74V215.914H1160.88V216.438H1158.15V279.792H1121.64L1122.62 192.222H1113.05L1111.88 279.792H1055.07V238.559H1027.94V279.792H1014.66V221.674H1010.17V207.406H990.064V228.48H981.865V279.006H960V286.467H1438.87Z" fill="#D3E6DC"/>
<path d="M1884.92 286.467V172.326H1865.01V245.235H1830.65V202.301H1788.68V216.569H1745.34V248.376H1733.62V204.919H1691.65V162.64H1650.07V216.569H1635.23V231.098H1621.76V192.746H1591.7V223.637H1571.79V160.283C1555.54 138.188 1538.47 151.077 1531.96 160.283V238.69H1499.16V222.197H1488.23V207.144H1467.54V227.302H1453.48V187.903H1438.65V286.467H1884.92Z" fill="#DCEAE3"/>
<path d="M1916.74 286.467V192.353L1906.2 192.222V190.39H1899.95V192.353H1894.09V172.326H1884.33V283.064H1804.29V202.039H1774.42V214.736H1770.91V213.296H1767.2V214.736H1744.95V283.064H1732.06L1733.82 205.574H1724.06V279.792H1704.73V205.574H1702.19V204.265H1694.77V205.574H1690.68V162.116H1681.7V279.792H1659.05V162.116H1650.26V216.438H1644.6V215.914H1638.75V216.438H1636.01V279.792H1599.51L1600.48 192.222H1590.92L1589.75 279.792H1532.94V238.559H1505.8V279.792H1492.53V221.674H1488.04V207.406H1467.93V228.48H1459.73V279.006H1437.87V286.467H1916.74Z" fill="#D3E6DC"/>
<path d="M1464.4 288.101C1584.45 279.076 1816.05 284.341 1916.84 288.101C1855.53 378.344 1753.68 355.962 1710.42 333.491C1675.9 304.054 1546.41 321.226 1485.97 333.491C1435.99 351.969 1329.68 347.457 1282.78 342.891C1231.25 323.553 1118.97 320.688 1069.27 321.673C956.693 324.466 952.592 300.455 964.615 288.101C937.565 273.705 1045.66 274.224 1103.09 276.283C1121.12 290.034 1351.47 289.891 1464.4 288.101Z" fill="#A8CB45"/>
<path d="M1765.17 204.572H1767.42C1764.33 203.283 1763.99 201.707 1764.2 201.081C1767.55 196.998 1774.61 192.576 1777.73 190.875C1772.83 192.164 1765.38 196.604 1762.27 198.663C1760.72 199.738 1759.69 199.111 1759.37 198.663C1758.08 197.159 1757.33 198.037 1757.12 198.663C1751.97 197.159 1748.32 198.574 1747.14 199.469C1751.51 199.469 1756.47 200.185 1758.41 200.544C1758.73 202.155 1760.34 201.886 1760.98 202.155C1761.5 202.37 1763.34 204.93 1764.2 206.184L1765.17 204.572Z" fill="black" stroke="black"/>
<path d="M1589.02 233.221C1593.14 229.783 1598.9 229.998 1601.26 230.535C1595.85 226.452 1590.2 229.371 1588.06 231.34C1587.28 232.63 1584.73 231.878 1583.55 231.34C1576.33 229.836 1573.46 231.967 1572.92 233.221C1578.59 229.998 1583.44 232.594 1585.16 234.295L1586.44 235.638C1588.91 236.175 1593.34 236.927 1591.28 235.638C1589.21 234.349 1588.91 233.489 1589.02 233.221Z" fill="black" stroke="black"/>
<path d="M1469.55 174.365H1475.02C1471.93 172.861 1473.09 171.768 1474.06 171.41C1476.38 169.047 1479.75 169.53 1481.14 170.067C1485.26 170.712 1486.51 169.083 1486.62 168.187C1484.04 168.832 1481.04 168.456 1479.85 168.187C1476.25 166.039 1473.41 168.545 1472.45 170.067H1470.52C1464.85 165.77 1462.36 166.486 1461.82 167.382C1463.88 166.522 1467.4 168.814 1468.91 170.067C1467.36 171.357 1468.26 172.037 1468.91 172.216L1469.55 174.365Z" fill="black" stroke="black"/>
<path d="M1330.76 231.748C1331.53 229.815 1333.23 229.51 1333.98 229.6C1329.6 228.74 1331.51 227.451 1333.01 226.914C1332.24 224.335 1338.49 225.123 1341.71 225.84C1334.23 222.831 1331.29 224.586 1330.76 225.84C1329.47 227.773 1327.43 226.645 1326.57 225.84C1323.22 224.336 1322.6 229.152 1322.71 231.748C1327.54 221.274 1329.79 234.166 1330.76 231.748Z" fill="black" stroke="black"/>
<path d="M1247.35 203.234C1248.64 197.863 1254.54 199.564 1257.34 201.086C1255.79 196.788 1250.04 198.668 1247.35 199.743C1241.68 198.024 1239.84 199.295 1239.62 200.548C1245.03 199.259 1247.03 201.802 1247.35 203.234Z" fill="black" stroke="black"/>
<path d="M1833.13 282.218C1836.84 274.378 1830.75 269.935 1827.24 268.693C1824.23 258.814 1813.86 257.977 1809.05 258.794C1799.32 260.598 1797.47 268.04 1797.77 271.535C1788.24 278.749 1793.8 286.041 1797.77 288.785C1807.2 294.43 1815.66 290.222 1818.71 287.413C1826.74 288.354 1831.67 284.342 1833.13 282.218Z" fill="#9DBD4A"/>
<path d="M1820.09 279.376C1828.92 280.395 1832.55 275.684 1833.26 273.201C1835.87 277.827 1833.42 282.055 1831.88 283.59C1828.06 287.981 1821.76 287.837 1819.09 287.217C1808.15 294.822 1799.31 290.745 1796.26 287.707C1790.74 283.943 1792.62 277.612 1794.26 274.966C1796.46 277.867 1799.19 280.095 1800.27 280.846C1808.8 286.099 1817.04 282.055 1820.09 279.376Z" fill="#87A342"/>
<path d="M1813.07 307.015H1816.33L1815.83 293.195C1818.53 290.059 1819.8 286.923 1820.09 285.747H1819.71C1819.71 287.001 1817.54 290.124 1816.45 291.529C1816.35 291.843 1815.74 291.79 1815.45 291.725V284.472C1815.05 284.472 1814.95 284.276 1814.95 284.178H1814.07C1814.07 284.335 1813.82 284.44 1813.69 284.472C1813.69 285.805 1813.36 286.465 1813.19 286.629V287.511C1813.39 287.589 1813.53 288.001 1813.57 288.197C1813.77 293.921 1813.65 295.678 1813.57 295.842C1809.96 293.332 1809.55 290.68 1809.81 289.667H1809.43C1808.53 291.784 1811.9 295.842 1813.69 297.606C1813.79 300.977 1813.32 305.283 1813.07 307.015Z" fill="#805E46"/>
<path d="M1438.97 277.921C1442.68 270.08 1436.59 265.637 1433.08 264.396C1430.07 254.517 1419.7 253.68 1414.89 254.497C1405.16 256.3 1403.31 263.742 1403.61 267.238C1394.08 274.452 1399.64 281.743 1403.61 284.488C1413.04 290.133 1421.5 285.925 1424.55 283.116C1432.58 284.056 1437.51 280.045 1438.97 277.921Z" fill="#9DBD4A"/>
<path d="M1425.93 275.079C1434.76 276.098 1438.39 271.387 1439.1 268.904C1441.71 273.53 1439.27 277.758 1437.72 279.293C1433.91 283.684 1427.6 283.54 1424.93 282.92C1413.99 290.525 1405.15 286.448 1402.1 283.41C1396.58 279.646 1398.47 273.315 1400.1 270.668C1402.3 273.569 1405.03 275.798 1406.12 276.549C1414.64 281.802 1422.88 277.758 1425.93 275.079Z" fill="#87A342"/>
<path d="M1418.91 302.717H1422.17L1421.67 288.898C1424.37 285.762 1425.64 282.625 1425.93 281.449H1425.55C1425.55 282.704 1423.38 285.827 1422.29 287.232C1422.19 287.546 1421.58 287.493 1421.29 287.428V280.175C1420.89 280.175 1420.79 279.979 1420.79 279.881H1419.91C1419.91 280.038 1419.66 280.143 1419.53 280.175C1419.53 281.508 1419.2 282.168 1419.03 282.331V283.214C1419.23 283.292 1419.37 283.704 1419.41 283.9C1419.61 289.623 1419.49 291.381 1419.41 291.544C1415.8 289.035 1415.4 286.382 1415.65 285.37H1415.27C1414.37 287.487 1417.74 291.544 1419.53 293.308C1419.63 296.68 1419.16 300.986 1418.91 302.717Z" fill="#805E46"/>
<path d="M1502.15 281.565C1500.04 276.611 1503.51 273.803 1505.51 273.019C1507.22 266.777 1513.11 266.248 1515.85 266.764C1521.38 267.904 1522.43 272.606 1522.27 274.815C1527.69 279.373 1524.53 283.98 1522.27 285.714C1516.9 289.281 1512.09 286.622 1510.36 284.847C1505.79 285.442 1502.99 282.907 1502.15 281.565Z" fill="#9DBD4A"/>
<path d="M1509.57 279.769C1504.55 280.413 1502.49 277.436 1502.08 275.868C1500.6 278.791 1501.99 281.462 1502.87 282.432C1505.04 285.206 1508.62 285.115 1510.14 284.723C1516.36 289.529 1521.39 286.953 1523.12 285.033C1526.26 282.655 1525.19 278.654 1524.26 276.982C1523.01 278.815 1521.46 280.223 1520.84 280.698C1515.99 284.017 1511.31 281.462 1509.57 279.769Z" fill="#87A342"/>
<path d="M1513.57 297.232H1511.71L1512 288.501C1510.46 286.519 1509.74 284.537 1509.57 283.794H1509.79C1509.79 284.587 1511.02 286.56 1511.64 287.448C1511.7 287.646 1512.04 287.613 1512.21 287.572V282.989C1512.44 282.989 1512.5 282.865 1512.5 282.803H1513C1513 282.902 1513.14 282.968 1513.21 282.989C1513.21 283.831 1513.4 284.248 1513.49 284.352V284.909C1513.38 284.958 1513.3 285.219 1513.28 285.342C1513.17 288.959 1513.23 290.069 1513.28 290.173C1515.33 288.587 1515.56 286.911 1515.42 286.271H1515.63C1516.15 287.609 1514.23 290.173 1513.21 291.287C1513.15 293.418 1513.42 296.138 1513.57 297.232Z" fill="#805E46"/>
<path d="M1703.75 288.83C1716.07 290.026 1719.99 279.785 1720.41 274.515C1717 280.888 1711.22 282.15 1708.76 281.984C1701.24 281.486 1696.86 282.523 1695.6 283.104C1683.98 285.992 1679.57 276.838 1678.82 271.901C1677.51 279.17 1681.2 284.557 1683.2 286.341C1691.32 293.909 1700.28 291.154 1703.75 288.83Z" fill="#87A342"/>
<path d="M1698.23 311.736H1701.36L1700.99 295.304C1702.57 292.814 1704.15 289.204 1704.75 287.71H1704.25C1703.44 290.698 1701.57 292.441 1700.74 292.938L1700.49 285.967H1698.86V289.577C1697.86 289.702 1696.48 286.465 1696.48 287.088C1696.48 287.586 1698.07 289.453 1698.86 290.324C1699.36 297.793 1698.65 307.711 1698.23 311.736Z" fill="#867046"/>
<path d="M1706.75 259.95C1717.77 260.846 1720.49 270.325 1720.41 274.806C1717.3 280.981 1712.1 282.275 1709.88 282.151C1701.97 281.553 1698.15 282.649 1697.36 283.147C1684.43 287.728 1679.61 277.67 1678.82 272.192C1679.32 267.711 1681.99 264.473 1683.2 263.56C1683.7 258.182 1687.33 255.095 1689.09 254.224C1698.51 249.643 1704.79 256.133 1706.75 259.95Z" fill="#9DBD4A"/>
<path d="M1889.09 284.576C1899.14 285.488 1902.33 277.668 1902.67 273.644C1899.89 278.511 1895.18 279.474 1893.17 279.347C1887.04 278.967 1883.47 279.759 1882.45 280.203C1872.97 282.408 1869.37 275.418 1868.76 271.647C1867.7 277.199 1870.7 281.312 1872.34 282.674C1878.95 288.454 1886.26 286.35 1889.09 284.576Z" fill="#87A342"/>
<path d="M1884.59 302.067H1887.15L1886.84 289.519C1888.13 287.618 1889.42 284.861 1889.9 283.72H1889.5C1888.84 286.002 1887.32 287.332 1886.64 287.713L1886.43 282.389H1885.1V285.146C1884.29 285.241 1883.16 282.769 1883.16 283.245C1883.16 283.625 1884.46 285.051 1885.1 285.716C1885.51 291.42 1884.93 298.993 1884.59 302.067Z" fill="#867046"/>
<path d="M1891.54 262.521C1900.53 263.206 1902.74 270.444 1902.67 273.866C1900.14 278.581 1895.9 279.57 1894.09 279.475C1887.64 279.019 1884.52 279.855 1883.88 280.235C1873.34 283.734 1869.41 276.053 1868.76 271.87C1869.17 268.448 1871.35 265.975 1872.34 265.278C1872.74 261.172 1875.71 258.814 1877.14 258.149C1884.82 254.65 1889.94 259.606 1891.54 262.521Z" fill="#9DBD4A"/>
<path d="M1461.31 297.193C1470.98 298.008 1474.05 291.025 1474.38 287.432C1471.71 291.778 1467.17 292.638 1465.24 292.525C1459.34 292.185 1455.9 292.892 1454.92 293.289C1445.8 295.258 1442.34 289.016 1441.75 285.65C1440.73 290.606 1443.62 294.279 1445.19 295.495C1451.56 300.656 1458.59 298.777 1461.31 297.193Z" fill="#87A342"/>
<path d="M1456.98 312.81H1459.44L1459.14 301.606C1460.39 299.909 1461.63 297.447 1462.09 296.429H1461.7C1461.07 298.466 1459.6 299.654 1458.95 299.994L1458.75 295.241H1457.47V297.702C1456.69 297.787 1455.61 295.58 1455.61 296.005C1455.61 296.344 1456.85 297.617 1457.47 298.211C1457.87 303.304 1457.31 310.066 1456.98 312.81Z" fill="#867046"/>
<path d="M1463.67 277.502C1472.31 278.113 1474.44 284.575 1474.38 287.631C1471.94 291.841 1467.86 292.724 1466.12 292.639C1459.91 292.231 1456.92 292.978 1456.29 293.318C1446.15 296.441 1442.37 289.583 1441.75 285.849C1442.14 282.793 1444.24 280.585 1445.19 279.963C1445.58 276.296 1448.43 274.191 1449.81 273.597C1457.2 270.474 1462.13 274.899 1463.67 277.502Z" fill="#9DBD4A"/>
<path d="M1621.67 313.884H1625.49V304.351H1624.62V302.808H1623.93V280.376C1624.07 279.927 1624.68 279.441 1624.97 279.254H1621.67C1622.37 279.367 1622.89 280.049 1623.06 280.376V302.808H1622.54V304.351H1621.67V313.884Z" fill="#575254"/>
<path d="M1620.46 277.678C1620.85 277.792 1621.83 278.776 1622.27 279.254H1623.58V272.805H1620.46V277.678Z" fill="#FCE6A8"/>
<path d="M1626.36 272.805H1623.41V279.254H1624.8C1624.8 278.918 1625.84 277.992 1626.36 277.572V272.805Z" fill="#FADB80"/>
<path d="M1626.36 272.805L1627.05 272.384H1619.94L1620.46 272.805H1626.36Z" fill="#AEA466"/>
<path d="M1626.36 271.824V272.384H1620.63V271.824H1621.32V270.842H1622.54V269.3H1624.45V270.842H1625.84V271.824H1626.36Z" fill="#554F53"/>
<path d="M1649.35 309.826V308.567H1685V309.826H1649.35Z" fill="#956B40"/>
<path d="M1687.56 303.249H1688.85V301.989H1685V313.884H1687.56V303.249Z" fill="#BB894B"/>
<path d="M1647.1 303.109H1645.82V301.85H1649.67V313.744H1647.1V303.109Z" fill="#BB894B"/>
<rect width="35.3235" height="1.11951" transform="matrix(-1 0 0 1 1685 302.13)" fill="#B18246"/>
<rect width="1.60561" height="5.8774" transform="matrix(-1 0 0 1 1685 299.611)" fill="#9E7E43"/>
<rect width="1.60561" height="6.43715" transform="matrix(-1 0 0 1 1681.78 299.051)" fill="#9E7E43"/>
<rect width="1.60561" height="6.99691" transform="matrix(-1 0 0 1 1678.57 298.491)" fill="#9E7E43"/>
<rect width="1.60561" height="7.55666" transform="matrix(-1 0 0 1 1675.04 297.931)" fill="#9E7E43"/>
<rect width="1.60561" height="8.11641" transform="matrix(-1 0 0 1 1671.51 297.372)" fill="#9E7E43"/>
<rect width="1.60561" height="8.11641" transform="matrix(-1 0 0 1 1668.3 297.372)" fill="#9E7E43"/>
<rect width="1.92673" height="8.11641" transform="matrix(-1 0 0 1 1665.09 297.372)" fill="#9E7E43"/>
<rect width="1.92673" height="7.55666" transform="matrix(-1 0 0 1 1661.55 297.931)" fill="#9E7E43"/>
<rect width="1.60561" height="6.99691" transform="matrix(-1 0 0 1 1657.7 298.491)" fill="#9E7E43"/>
<rect width="1.92673" height="6.43715" transform="matrix(-1 0 0 1 1654.49 299.051)" fill="#9E7E43"/>
<rect width="1.60561" height="5.8774" transform="matrix(-1 0 0 1 1650.96 299.611)" fill="#9E7E43"/>
<rect width="35.3235" height="2.51889" transform="matrix(-1 0 0 1 1685 304.928)" fill="#B18246"/>
<path d="M1479.6 298.844H1481.17V294.479H1480.82V293.773H1480.53V283.503C1480.59 283.297 1480.84 283.075 1480.96 282.989H1479.6C1479.89 283.041 1480.1 283.353 1480.17 283.503V293.773H1479.96V294.479H1479.6V298.844Z" fill="#575254"/>
<path d="M1479.1 282.267C1479.26 282.32 1479.67 282.77 1479.85 282.989H1480.39V280.036H1479.1V282.267Z" fill="#FCE6A8"/>
<path d="M1481.53 280.036H1480.32V282.989H1480.89C1480.89 282.835 1481.32 282.411 1481.53 282.219V280.036Z" fill="#FADB80"/>
<path d="M1481.53 280.036L1481.82 279.844H1478.89L1479.1 280.036H1481.53Z" fill="#AEA466"/>
<path d="M1481.53 279.587V279.844H1479.17V279.587H1479.46V279.138H1479.96V278.432H1480.74V279.138H1481.32V279.587H1481.53Z" fill="#554F53"/>
<path d="M1490.98 296.986V296.409H1505.64V296.986H1490.98Z" fill="#956B40"/>
<path d="M1506.7 293.975H1507.23V293.398H1505.64V298.844H1506.7V293.975Z" fill="#BB894B"/>
<path d="M1490.06 293.911H1489.53V293.334H1491.12V298.78H1490.06V293.911Z" fill="#BB894B"/>
<rect width="14.5255" height="0.512544" transform="matrix(-1 0 0 1 1505.64 293.462)" fill="#B18246"/>
<rect width="0.660252" height="2.69086" transform="matrix(-1 0 0 1 1505.64 292.309)" fill="#9E7E43"/>
<rect width="0.660252" height="2.94713" transform="matrix(-1 0 0 1 1504.32 292.052)" fill="#9E7E43"/>
<rect width="0.660252" height="3.2034" transform="matrix(-1 0 0 1 1503 291.796)" fill="#9E7E43"/>
<rect width="0.660252" height="3.45967" transform="matrix(-1 0 0 1 1501.55 291.54)" fill="#9E7E43"/>
<rect width="0.660252" height="3.71595" transform="matrix(-1 0 0 1 1500.1 291.284)" fill="#9E7E43"/>
<rect width="0.660252" height="3.71595" transform="matrix(-1 0 0 1 1498.78 291.284)" fill="#9E7E43"/>
<rect width="0.792302" height="3.71595" transform="matrix(-1 0 0 1 1497.46 291.284)" fill="#9E7E43"/>
<rect width="0.792302" height="3.45967" transform="matrix(-1 0 0 1 1496 291.54)" fill="#9E7E43"/>
<rect width="0.660252" height="3.2034" transform="matrix(-1 0 0 1 1494.42 291.796)" fill="#9E7E43"/>
<rect width="0.792302" height="2.94713" transform="matrix(-1 0 0 1 1493.1 292.052)" fill="#9E7E43"/>
<rect width="0.660252" height="2.69086" transform="matrix(-1 0 0 1 1491.64 292.309)" fill="#9E7E43"/>
<rect width="14.5255" height="1.15322" transform="matrix(-1 0 0 1 1505.64 294.743)" fill="#B18246"/>
<path d="M1227.88 323.553H1231.09V317.695H1230.36V316.747H1229.78V302.964C1229.9 302.688 1230.41 302.389 1230.66 302.275H1227.88C1228.47 302.343 1228.9 302.763 1229.05 302.964V316.747H1228.61V317.695H1227.88V323.553Z" fill="#575254"/>
<path d="M1226.86 301.306C1227.19 301.376 1228.01 301.981 1228.38 302.275H1229.49V298.312H1226.86V301.306Z" fill="#FCE6A8"/>
<path d="M1231.82 298.312H1229.34V302.275H1230.51C1230.51 302.068 1231.39 301.499 1231.82 301.241V298.312Z" fill="#FADB80"/>
<path d="M1231.82 298.312L1232.41 298.053H1226.42L1226.86 298.312H1231.82Z" fill="#AEA466"/>
<path d="M1231.82 297.709V298.053H1227.01V297.709H1227.59V297.106H1228.61V296.158H1230.22V297.106H1231.39V297.709H1231.82Z" fill="#554F53"/>
<path d="M1251.16 321.06V320.286H1281.14V321.06H1251.16Z" fill="#956B40"/>
<path d="M1283.31 317.018H1284.39V316.244H1281.14V323.553H1283.31V317.018Z" fill="#BB894B"/>
<path d="M1249.27 316.932H1248.19V316.158H1251.43V323.467H1249.27V316.932Z" fill="#BB894B"/>
<rect width="29.7113" height="0.687889" transform="matrix(-1 0 0 1 1281.14 316.33)" fill="#B18246"/>
<rect width="1.35052" height="3.61142" transform="matrix(-1 0 0 1 1281.14 314.782)" fill="#9E7E43"/>
<rect width="1.35052" height="3.95536" transform="matrix(-1 0 0 1 1278.44 314.439)" fill="#9E7E43"/>
<rect width="1.35052" height="4.2993" transform="matrix(-1 0 0 1 1275.74 314.095)" fill="#9E7E43"/>
<rect width="1.35052" height="4.64325" transform="matrix(-1 0 0 1 1272.77 313.751)" fill="#9E7E43"/>
<rect width="1.35052" height="4.98719" transform="matrix(-1 0 0 1 1269.8 313.407)" fill="#9E7E43"/>
<rect width="1.35052" height="4.98719" transform="matrix(-1 0 0 1 1267.1 313.407)" fill="#9E7E43"/>
<rect width="1.62062" height="4.98719" transform="matrix(-1 0 0 1 1264.4 313.407)" fill="#9E7E43"/>
<rect width="1.62062" height="4.64325" transform="matrix(-1 0 0 1 1261.43 313.751)" fill="#9E7E43"/>
<rect width="1.35052" height="4.2993" transform="matrix(-1 0 0 1 1258.19 314.095)" fill="#9E7E43"/>
<rect width="1.62062" height="3.95536" transform="matrix(-1 0 0 1 1255.48 314.439)" fill="#9E7E43"/>
<rect width="1.35052" height="3.61142" transform="matrix(-1 0 0 1 1252.51 314.782)" fill="#9E7E43"/>
<rect width="29.7113" height="1.54775" transform="matrix(-1 0 0 1 1281.14 318.05)" fill="#B18246"/>
<path d="M1763.02 294.547H1764.66V291.33H1764.29V290.81H1763.99V283.243C1764.05 283.091 1764.31 282.927 1764.44 282.864H1763.02C1763.32 282.902 1763.54 283.132 1763.61 283.243V290.81H1763.39V291.33H1763.02V294.547Z" fill="#575254"/>
<path d="M1762.49 282.332C1762.66 282.371 1763.08 282.703 1763.27 282.864H1763.84V280.689H1762.49V282.332Z" fill="#FCE6A8"/>
<path d="M1765.03 280.689H1763.76V282.864H1764.36C1764.36 282.751 1764.81 282.439 1765.03 282.297V280.689Z" fill="#FADB80"/>
<path d="M1765.03 280.689L1765.33 280.547H1762.27L1762.49 280.689H1765.03Z" fill="#AEA466"/>
<path d="M1765.03 280.357V280.547H1762.57V280.357H1762.87V280.026H1763.39V279.506H1764.21V280.026H1764.81V280.357H1765.03Z" fill="#554F53"/>
<path d="M1774.92 293.178V292.753H1790.24V293.178H1774.92Z" fill="#956B40"/>
<path d="M1791.34 290.959H1791.9V290.534H1790.24V294.547H1791.34V290.959Z" fill="#BB894B"/>
<path d="M1773.95 290.912H1773.4V290.487H1775.05V294.499H1773.95V290.912Z" fill="#BB894B"/>
<rect width="15.1858" height="0.377664" transform="matrix(-1 0 0 1 1790.24 290.581)" fill="#B18246"/>
<rect width="0.690263" height="1.98274" transform="matrix(-1 0 0 1 1790.24 289.731)" fill="#9E7E43"/>
<rect width="0.690263" height="2.17157" transform="matrix(-1 0 0 1 1788.86 289.543)" fill="#9E7E43"/>
<rect width="0.690263" height="2.3604" transform="matrix(-1 0 0 1 1787.48 289.354)" fill="#9E7E43"/>
<rect width="0.690263" height="2.54923" transform="matrix(-1 0 0 1 1785.96 289.165)" fill="#9E7E43"/>
<rect width="0.690263" height="2.73807" transform="matrix(-1 0 0 1 1784.44 288.976)" fill="#9E7E43"/>
<rect width="0.690263" height="2.73807" transform="matrix(-1 0 0 1 1783.06 288.976)" fill="#9E7E43"/>
<rect width="0.828316" height="2.73807" transform="matrix(-1 0 0 1 1781.68 288.976)" fill="#9E7E43"/>
<rect width="0.828316" height="2.54923" transform="matrix(-1 0 0 1 1780.16 289.165)" fill="#9E7E43"/>
<rect width="0.690263" height="2.3604" transform="matrix(-1 0 0 1 1778.51 289.354)" fill="#9E7E43"/>
<rect width="0.828316" height="2.17157" transform="matrix(-1 0 0 1 1777.13 289.543)" fill="#9E7E43"/>
<rect width="0.690263" height="1.98274" transform="matrix(-1 0 0 1 1775.61 289.731)" fill="#9E7E43"/>
<rect width="15.1858" height="0.849745" transform="matrix(-1 0 0 1 1790.24 291.525)" fill="#B18246"/>
<path d="M1021.07 305.827H1022.71V302.611H1022.34V302.091H1022.04V294.523C1022.1 294.372 1022.37 294.208 1022.49 294.145H1021.07C1021.37 294.182 1021.59 294.413 1021.67 294.523V302.091H1021.44V302.611H1021.07V305.827Z" fill="#575254"/>
<path d="M1020.55 293.613C1020.72 293.651 1021.14 293.983 1021.33 294.145H1021.89V291.969H1020.55V293.613Z" fill="#FCE6A8"/>
<path d="M1023.09 291.969H1021.82V294.145H1022.41C1022.41 294.031 1022.86 293.719 1023.09 293.577V291.969Z" fill="#FADB80"/>
<path d="M1023.09 291.969L1023.39 291.827H1020.33L1020.55 291.969H1023.09Z" fill="#AEA466"/>
<path d="M1023.09 291.638V291.827H1020.62V291.638H1020.92V291.307H1021.44V290.786H1022.27V291.307H1022.86V291.638H1023.09Z" fill="#554F53"/>
<path d="M1032.97 304.458V304.033H1048.29V304.458H1032.97Z" fill="#956B40"/>
<path d="M1049.4 302.239H1049.95V301.814H1048.29V305.827H1049.4V302.239Z" fill="#BB894B"/>
<path d="M1032 302.192H1031.45V301.767H1033.11V305.78H1032V302.192Z" fill="#BB894B"/>
<rect width="15.1858" height="0.377664" transform="matrix(-1 0 0 1 1048.29 301.862)" fill="#B18246"/>
<rect width="0.690263" height="1.98274" transform="matrix(-1 0 0 1 1048.29 301.012)" fill="#9E7E43"/>
<rect width="0.690263" height="2.17157" transform="matrix(-1 0 0 1 1046.91 300.823)" fill="#9E7E43"/>
<rect width="0.690263" height="2.3604" transform="matrix(-1 0 0 1 1045.53 300.634)" fill="#9E7E43"/>
<rect width="0.690263" height="2.54923" transform="matrix(-1 0 0 1 1044.01 300.445)" fill="#9E7E43"/>
<rect width="0.690263" height="2.73807" transform="matrix(-1 0 0 1 1042.5 300.256)" fill="#9E7E43"/>
<rect width="0.690263" height="2.73807" transform="matrix(-1 0 0 1 1041.12 300.256)" fill="#9E7E43"/>
<rect width="0.828316" height="2.73807" transform="matrix(-1 0 0 1 1039.74 300.256)" fill="#9E7E43"/>
<rect width="0.828316" height="2.54923" transform="matrix(-1 0 0 1 1038.22 300.445)" fill="#9E7E43"/>
<rect width="0.690263" height="2.3604" transform="matrix(-1 0 0 1 1036.56 300.634)" fill="#9E7E43"/>
<rect width="0.828316" height="2.17157" transform="matrix(-1 0 0 1 1035.18 300.823)" fill="#9E7E43"/>
<rect width="0.690263" height="1.98274" transform="matrix(-1 0 0 1 1033.66 301.012)" fill="#9E7E43"/>
<rect width="15.1858" height="0.849745" transform="matrix(-1 0 0 1 1048.29 302.806)" fill="#B18246"/>
<path d="M1830.31 307.438H1832.63V302.155H1832.1V301.3H1831.68V288.867C1831.76 288.619 1832.13 288.349 1832.31 288.246H1830.31C1830.73 288.308 1831.04 288.686 1831.15 288.867V301.3H1830.83V302.155H1830.31V307.438Z" fill="#575254"/>
<path d="M1829.57 287.372C1829.81 287.436 1830.4 287.981 1830.67 288.246H1831.47V284.672H1829.57V287.372Z" fill="#FCE6A8"/>
<path d="M1833.15 284.672H1831.36V288.246H1832.2C1832.2 288.059 1832.84 287.547 1833.15 287.313V284.672Z" fill="#FADB80"/>
<path d="M1833.15 284.672L1833.58 284.438H1829.25L1829.57 284.672H1833.15Z" fill="#AEA466"/>
<path d="M1833.15 284.128V284.439H1829.67V284.128H1830.1V283.584H1830.83V282.729H1831.99V283.584H1832.84V284.128H1833.15Z" fill="#554F53"/>
<path d="M1847.12 305.189V304.491H1868.77V305.189H1847.12Z" fill="#956B40"/>
<path d="M1870.33 301.544H1871.12V300.846H1868.77V307.438H1870.33V301.544Z" fill="#BB894B"/>
<path d="M1845.76 301.467H1844.98V300.769H1847.32V307.361H1845.76V301.467Z" fill="#BB894B"/>
<rect width="21.4582" height="0.620449" transform="matrix(-1 0 0 1 1868.77 300.924)" fill="#B18246"/>
<rect width="0.975372" height="3.25735" transform="matrix(-1 0 0 1 1868.77 299.528)" fill="#9E7E43"/>
<rect width="0.975372" height="3.56758" transform="matrix(-1 0 0 1 1866.82 299.218)" fill="#9E7E43"/>
<rect width="0.975372" height="3.8778" transform="matrix(-1 0 0 1 1864.87 298.907)" fill="#9E7E43"/>
<rect width="0.975372" height="4.18803" transform="matrix(-1 0 0 1 1862.73 298.597)" fill="#9E7E43"/>
<rect width="0.975372" height="4.49825" transform="matrix(-1 0 0 1 1860.58 298.287)" fill="#9E7E43"/>
<rect width="0.975372" height="4.49825" transform="matrix(-1 0 0 1 1858.63 298.287)" fill="#9E7E43"/>
<rect width="1.17045" height="4.49825" transform="matrix(-1 0 0 1 1856.68 298.287)" fill="#9E7E43"/>
<rect width="1.17045" height="4.18803" transform="matrix(-1 0 0 1 1854.53 298.597)" fill="#9E7E43"/>
<rect width="0.975372" height="3.8778" transform="matrix(-1 0 0 1 1852.19 298.907)" fill="#9E7E43"/>
<rect width="1.17045" height="3.56758" transform="matrix(-1 0 0 1 1850.24 299.218)" fill="#9E7E43"/>
<rect width="0.975372" height="3.25735" transform="matrix(-1 0 0 1 1848.1 299.528)" fill="#9E7E43"/>
<rect width="21.4582" height="1.39601" transform="matrix(-1 0 0 1 1868.77 302.475)" fill="#B18246"/>
<path d="M1313.38 292.962C1317.09 285.121 1311 280.678 1307.49 279.436C1304.48 269.557 1294.11 268.721 1289.3 269.537C1279.57 271.341 1277.73 278.783 1278.02 282.279C1268.49 289.492 1274.05 296.784 1278.02 299.528C1287.45 305.173 1295.91 300.966 1298.96 298.156C1306.99 299.097 1311.92 295.085 1313.38 292.962Z" fill="#9DBD4A"/>
<path d="M1300.34 290.119C1309.17 291.138 1312.8 286.428 1313.51 283.945C1316.12 288.571 1313.68 292.798 1312.13 294.334C1308.32 298.724 1302.01 298.581 1299.34 297.96C1288.4 305.565 1279.56 301.488 1276.51 298.45C1271 294.686 1272.88 288.355 1274.51 285.709C1276.71 288.61 1279.44 290.838 1280.53 291.589C1289.05 296.843 1297.29 292.798 1300.34 290.119Z" fill="#87A342"/>
<path d="M1293.32 317.758H1296.58L1296.08 303.939C1298.79 300.802 1300.05 297.666 1300.34 296.49H1299.96C1299.96 297.744 1297.79 300.868 1296.7 302.272C1296.6 302.586 1295.99 302.534 1295.7 302.468V295.216C1295.3 295.216 1295.2 295.02 1295.2 294.922H1294.32C1294.32 295.079 1294.07 295.183 1293.94 295.216C1293.94 296.549 1293.61 297.209 1293.44 297.372V298.254C1293.64 298.332 1293.78 298.744 1293.82 298.94C1294.02 304.664 1293.9 306.421 1293.82 306.585C1290.21 304.076 1289.81 301.423 1290.06 300.41H1289.68C1288.78 302.527 1292.15 306.585 1293.94 308.349C1294.04 311.72 1293.57 316.026 1293.32 317.758Z" fill="#805E46"/>
<path d="M982.406 292.308C980.294 287.354 983.761 284.546 985.758 283.762C987.469 277.52 993.365 276.991 996.099 277.507C1001.63 278.647 1002.68 283.349 1002.52 285.558C1007.94 290.116 1004.78 294.723 1002.52 296.457C997.155 300.024 992.343 297.365 990.608 295.59C986.043 296.185 983.238 293.65 982.406 292.308Z" fill="#9DBD4A"/>
<path d="M989.823 290.512C984.802 291.156 982.739 288.18 982.335 286.611C980.851 289.534 982.239 292.205 983.119 293.175C985.287 295.949 988.872 295.859 990.394 295.466C996.613 300.272 1001.64 297.696 1003.37 295.776C1006.51 293.398 1005.44 289.397 1004.52 287.725C1003.26 289.559 1001.71 290.966 1001.09 291.441C996.242 294.76 991.559 292.205 989.823 290.512Z" fill="#87A342"/>
<path d="M993.817 307.976H991.963L992.248 299.244C990.708 297.262 989.99 295.281 989.823 294.537H990.037C990.037 295.33 991.274 297.303 991.892 298.191C991.949 298.389 992.296 298.356 992.462 298.315V293.732C992.691 293.732 992.748 293.608 992.748 293.547H993.247C993.247 293.646 993.39 293.712 993.461 293.732C993.461 294.575 993.651 294.992 993.746 295.095V295.652C993.632 295.702 993.556 295.962 993.532 296.086C993.418 299.702 993.485 300.813 993.532 300.916C995.586 299.331 995.814 297.654 995.672 297.014H995.886C996.399 298.352 994.483 300.916 993.461 302.031C993.404 304.161 993.675 306.882 993.817 307.976Z" fill="#805E46"/>
<path d="M1184 299.574C1196.32 300.769 1200.24 290.528 1200.66 285.258C1197.25 291.632 1191.47 292.893 1189.01 292.727C1181.49 292.229 1177.11 293.266 1175.85 293.847C1164.23 296.735 1159.82 287.582 1159.07 282.644C1157.77 289.914 1161.45 295.3 1163.45 297.084C1171.57 304.653 1180.53 301.897 1184 299.574Z" fill="#87A342"/>
<path d="M1178.48 322.479H1181.62L1181.24 306.047C1182.82 303.557 1184.41 299.947 1185 298.453H1184.5C1183.7 301.441 1181.83 303.184 1180.99 303.682L1180.74 296.711H1179.11V300.321C1178.11 300.445 1176.73 297.208 1176.73 297.831C1176.73 298.329 1178.32 300.196 1179.11 301.067C1179.61 308.537 1178.9 318.454 1178.48 322.479Z" fill="#867046"/>
<path d="M1187 270.693C1198.03 271.59 1200.74 281.068 1200.66 285.55C1197.55 291.724 1192.35 293.019 1190.13 292.894C1182.22 292.297 1178.4 293.392 1177.61 293.89C1164.68 298.471 1159.86 288.413 1159.07 282.935C1159.57 278.454 1162.24 275.216 1163.45 274.303C1163.95 268.926 1167.59 265.838 1169.34 264.967C1178.76 260.386 1185.04 266.876 1187 270.693Z" fill="#9DBD4A"/>
<path d="M1369.34 295.319C1379.39 296.231 1382.58 288.411 1382.92 284.387C1380.15 289.254 1375.43 290.217 1373.42 290.09C1367.3 289.71 1363.72 290.502 1362.7 290.946C1353.22 293.151 1349.63 286.161 1349.01 282.391C1347.95 287.942 1350.95 292.055 1352.59 293.418C1359.21 299.197 1366.51 297.093 1369.34 295.319Z" fill="#87A342"/>
<path d="M1364.84 312.81H1367.4L1367.09 300.262C1368.38 298.361 1369.67 295.604 1370.16 294.463H1369.75C1369.09 296.745 1367.57 298.076 1366.89 298.456L1366.68 293.132H1365.36V295.889C1364.54 295.984 1363.41 293.513 1363.41 293.988C1363.41 294.368 1364.71 295.794 1365.36 296.46C1365.76 302.163 1365.19 309.736 1364.84 312.81Z" fill="#867046"/>
<path d="M1371.79 273.265C1380.78 273.949 1382.99 281.187 1382.92 284.609C1380.39 289.324 1376.15 290.313 1374.34 290.218C1367.89 289.762 1364.78 290.598 1364.13 290.979C1353.59 294.477 1349.66 286.796 1349.01 282.613C1349.42 279.191 1351.6 276.718 1352.59 276.021C1353 271.915 1355.96 269.557 1357.39 268.892C1365.07 265.393 1370.19 270.349 1371.79 273.265Z" fill="#9DBD4A"/>
<path d="M1101.92 324.627H1105.74V315.094H1104.87V313.552H1104.18V291.119C1104.32 290.671 1104.93 290.184 1105.22 289.998H1101.92C1102.62 290.11 1103.14 290.792 1103.31 291.119V313.552H1102.79V315.094H1101.92V324.627Z" fill="#575254"/>
<path d="M1100.71 288.421C1101.1 288.536 1102.08 289.52 1102.52 289.997H1103.83V283.548H1100.71V288.421Z" fill="#FCE6A8"/>
<path d="M1106.61 283.548H1103.66V289.997H1105.05C1105.05 289.661 1106.09 288.736 1106.61 288.315V283.548Z" fill="#FADB80"/>
<path d="M1106.61 283.548L1107.3 283.128H1100.19L1100.71 283.548H1106.61Z" fill="#AEA466"/>
<path d="M1106.61 282.567V283.128H1100.88V282.567H1101.58V281.585H1102.79V280.043H1104.7V281.585H1106.09V282.567H1106.61Z" fill="#554F53"/>
<path d="M1129.6 320.569V319.31H1165.25V320.569H1129.6Z" fill="#956B40"/>
<path d="M1167.82 313.992H1169.1V312.733H1165.25V324.627H1167.82V313.992Z" fill="#BB894B"/>
<path d="M1127.35 313.852H1126.07V312.593H1129.92V324.488H1127.35V313.852Z" fill="#BB894B"/>
<rect width="35.3235" height="1.11951" transform="matrix(-1 0 0 1 1165.25 312.873)" fill="#B18246"/>
<rect width="1.60561" height="5.8774" transform="matrix(-1 0 0 1 1165.25 310.354)" fill="#9E7E43"/>
<rect width="1.60561" height="6.43715" transform="matrix(-1 0 0 1 1162.04 309.794)" fill="#9E7E43"/>
<rect width="1.60561" height="6.99691" transform="matrix(-1 0 0 1 1158.82 309.234)" fill="#9E7E43"/>
<rect width="1.60561" height="7.55666" transform="matrix(-1 0 0 1 1155.29 308.675)" fill="#9E7E43"/>
<rect width="1.60561" height="8.11641" transform="matrix(-1 0 0 1 1151.76 308.115)" fill="#9E7E43"/>
<rect width="1.60561" height="8.11641" transform="matrix(-1 0 0 1 1148.55 308.115)" fill="#9E7E43"/>
<rect width="1.92673" height="8.11641" transform="matrix(-1 0 0 1 1145.34 308.115)" fill="#9E7E43"/>
<rect width="1.92673" height="7.55666" transform="matrix(-1 0 0 1 1141.81 308.675)" fill="#9E7E43"/>
<rect width="1.60561" height="6.99691" transform="matrix(-1 0 0 1 1137.95 309.234)" fill="#9E7E43"/>
<rect width="1.92673" height="6.43715" transform="matrix(-1 0 0 1 1134.74 309.794)" fill="#9E7E43"/>
<rect width="1.60561" height="5.8774" transform="matrix(-1 0 0 1 1131.21 310.354)" fill="#9E7E43"/>
<rect width="35.3235" height="2.51889" transform="matrix(-1 0 0 1 1165.25 315.671)" fill="#B18246"/>
</svg>
