<svg width="2380" height="491" viewBox="0 0 2380 491" fill="none" xmlns="http://www.w3.org/2000/svg">
<rect x="4.00171" width="1186" height="398" fill="#FAFAFA"/>
<path d="M2 398V94C62.9615 136.092 110.681 147.915 126.921 148.564C157.902 150.123 185.634 159.607 195.628 164.154C210.618 172.728 220.196 171.624 223.11 170C319.05 187.928 366.353 169.675 378.013 158.308C414.989 122.451 447.552 131.675 459.211 140.769C479.199 135.313 495.022 143.043 500.435 147.59C511.428 155.385 554.984 157.983 575.388 158.308C665.331 146.615 826.896 153.436 896.435 158.308C1041.34 170.779 1152.52 120.632 1190 94V398H2Z" fill="#85DAEF"/>
<path d="M270.53 245.452H157.996C162.483 239.114 170.383 239.826 173.772 240.974C177.698 234.635 188.963 234.658 194.105 235.462C207.567 219.478 221.45 227.424 226.708 233.395C237.225 229.606 238.628 237.874 238.978 237.185C239.259 236.633 240.497 236.955 241.082 237.185C248.093 233.326 254.053 237.185 256.156 239.596C264.85 236.289 268.426 240.974 269.127 243.73C270.53 244.005 270.647 244.993 270.53 245.452Z" fill="#E2EDE8"/>
<path d="M899.633 235.754H787.897C792.353 229.415 800.196 230.127 803.561 231.275C807.46 224.937 818.645 224.96 823.75 225.763C837.117 209.779 850.901 217.725 856.122 223.697C866.565 219.907 867.957 228.175 868.305 227.486C868.584 226.935 869.813 227.256 870.394 227.486C877.355 223.628 883.273 227.486 885.361 229.897C893.994 226.59 897.544 231.275 898.24 234.031C899.633 234.307 899.749 235.294 899.633 235.754Z" fill="#E2EDE8"/>
<path d="M650.542 188.752H523.642C528.702 181.195 537.61 182.043 541.432 183.412C545.86 175.855 558.563 175.882 564.361 176.841C579.541 157.783 595.196 167.257 601.126 174.376C612.986 169.858 614.567 179.716 614.963 178.894C615.279 178.237 616.676 178.621 617.334 178.894C625.241 174.294 631.962 178.895 634.333 181.77C644.138 177.827 648.17 183.413 648.961 186.698C650.542 187.027 650.674 188.204 650.542 188.752Z" fill="#E2EDE8"/>
<path d="M126.9 136.205H0C5.06017 128.647 13.9682 129.496 17.7897 130.865C22.2173 123.308 34.9205 123.335 40.7186 124.293C55.8991 105.235 71.554 114.71 77.4839 121.829C89.3437 117.311 90.925 127.169 91.3203 126.347C91.6366 125.69 93.0334 126.073 93.6923 126.347C101.599 121.747 108.319 126.347 110.691 129.222C120.495 125.279 124.528 130.865 125.318 134.151C126.9 134.48 127.031 135.657 126.9 136.205Z" fill="#E2EDE8"/>
<path d="M1068.5 167.534C1079.33 154.136 1110.39 154.185 1124.57 155.884C1148.01 134.548 1171.91 133.384 1190 138.603V177H1025C1037.37 163.603 1059.16 165.107 1068.5 167.534Z" fill="#E2EDE8"/>
<path d="M635.841 396.871V238.342H660.524V339.604H703.114V279.974H755.142V299.79H808.864V343.967H823.384V283.61H875.412V224.888H926.956V299.79H945.347V319.97H962.045V266.702H999.311V309.607H1023.99V221.616C1044.13 190.928 1065.29 208.829 1073.36 221.616V330.514H1114.02V307.607H1127.57V286.7H1153.22V314.698H1170.64V259.976H1189.03V396.871H635.841Z" fill="#DCEAE3"/>
<path d="M596.396 396.871V266.157L609.464 265.975V263.43H617.207V266.157H624.467V238.342H636.567V392.144H735.783V279.61H772.808V297.245H777.163V295.245H781.761V297.245H809.348V392.144H825.32L823.142 284.519H835.241V387.599H859.198V284.519H862.344V282.701H871.54V284.519H876.622V224.161H887.753V387.599H915.824V224.161H926.714V299.608H933.732V298.881H940.991V299.608H944.379V387.599H989.631L988.422 265.975H1000.28L1001.73 387.599H1072.15V330.332H1105.79V387.599H1122.24V306.88H1127.81V287.064H1152.73V316.334H1162.9V386.509H1190V396.871H596.396Z" fill="#D3E6DC"/>
<path d="M43.4863 396.871V238.342H68.1694V339.604H110.76V279.974H162.788V299.79H216.51V343.967H231.029V283.61H283.057V224.888H334.602V299.79H352.993V319.97H369.69V266.702H406.957V309.607H431.64V221.616C451.774 190.928 472.94 208.829 481.006 221.616V330.514H521.661V307.607H535.212V286.7H560.863V314.698H578.287V259.976H596.678V396.871H43.4863Z" fill="#DCEAE3"/>
<path d="M4.0415 396.871V266.157L17.109 265.975V263.43H24.8527V266.157H32.1125V238.342H44.212V392.144H143.428V279.61H180.453V297.245H184.809V295.245H189.407V297.245H216.994V392.144H232.965L230.787 284.519H242.887V387.599H266.844V284.519H269.99V282.701H279.185V284.519H284.267V224.161H295.399V387.599H323.47V224.161H334.359V299.608H341.377V298.881H348.637V299.608H352.025V387.599H397.277L396.067 265.975H407.925L409.376 387.599H479.796V330.332H513.433V387.599H529.888V306.88H535.454V287.064H560.379V316.334H570.542V386.509H597.646V396.871H4.0415Z" fill="#D3E6DC"/>
<path d="M564.757 399.14C415.944 386.606 128.856 393.917 3.9137 399.14C79.917 524.477 206.163 493.392 259.786 462.182C302.578 421.298 463.1 445.147 538.012 462.182C599.965 487.846 731.746 481.579 789.893 475.238C853.761 448.38 992.941 444.401 1054.55 445.768C1194.1 449.648 1199.18 416.299 1184.28 399.14C1217.81 379.146 1083.82 379.867 1012.63 382.727C990.28 401.826 704.735 401.627 564.757 399.14Z" fill="#A8CB45"/>
<path d="M191.926 283.128H189.132C192.964 281.337 193.39 279.149 193.124 278.279C188.972 272.609 180.217 266.466 176.358 264.104C182.426 265.894 191.66 272.062 195.519 274.921C197.435 276.413 198.712 275.543 199.111 274.921C200.708 272.832 201.64 274.051 201.906 274.921C208.293 272.832 212.817 274.797 214.28 276.041C208.851 276.041 202.704 277.035 200.309 277.533C199.91 279.771 197.914 279.398 197.116 279.771C196.477 280.069 194.188 283.625 193.124 285.366L191.926 283.128Z" fill="black" stroke="black"/>
<path d="M410.276 322.917C405.166 318.143 398.034 318.441 395.107 319.187C401.813 313.517 408.812 317.571 411.473 320.306C412.431 322.097 415.598 321.052 417.062 320.306C426.003 318.217 429.569 321.177 430.235 322.917C423.209 318.441 417.195 322.047 415.066 324.409L413.469 326.275C410.409 327.021 404.927 328.065 407.482 326.275C410.036 324.484 410.409 323.29 410.276 322.917Z" fill="black" stroke="black"/>
<path d="M558.371 241.173H551.585C555.417 239.084 553.98 237.567 552.782 237.07C549.908 233.787 545.73 234.459 544 235.205C538.891 236.1 537.347 233.837 537.214 232.593C540.408 233.489 544.133 232.966 545.597 232.593C550.068 229.609 553.58 233.091 554.778 235.205H557.173C564.199 229.236 567.286 230.231 567.951 231.474C565.396 230.281 561.032 233.464 559.169 235.205C561.085 236.995 559.967 237.94 559.169 238.189L558.371 241.173Z" fill="black" stroke="black"/>
<path d="M730.416 320.873C729.458 318.187 727.355 317.764 726.424 317.889C731.853 316.695 729.484 314.904 727.622 314.158C728.58 310.577 720.836 311.671 716.844 312.666C726.105 308.488 729.75 310.925 730.416 312.666C732.012 315.352 734.541 313.785 735.605 312.666C739.757 310.577 740.528 317.267 740.395 320.873C734.408 306.325 731.613 324.23 730.416 320.873Z" fill="black" stroke="black"/>
<path d="M833.803 281.27C832.206 273.809 824.888 276.172 821.428 278.286C823.344 272.317 830.476 274.928 833.803 276.42C840.828 274.033 843.117 275.799 843.383 277.54C836.677 275.749 834.202 279.28 833.803 281.27Z" fill="black" stroke="black"/>
<path d="M107.681 390.97C103.08 380.08 110.635 373.909 114.987 372.185C118.718 358.464 131.569 357.302 137.528 358.436C149.591 360.941 151.881 371.277 151.519 376.132C163.333 386.151 156.441 396.279 151.519 400.09C139.829 407.931 129.341 402.087 125.558 398.184C115.609 399.491 109.495 393.919 107.681 390.97Z" fill="#9DBD4A"/>
<path d="M123.848 387.022C112.904 388.438 108.406 381.895 107.526 378.447C104.292 384.872 107.318 390.743 109.236 392.876C113.961 398.974 121.775 398.774 125.092 397.912C138.647 408.475 149.601 402.813 153.384 398.593C160.224 393.366 157.892 384.572 155.871 380.897C153.135 384.926 149.757 388.021 148.41 389.064C137.839 396.36 127.631 390.743 123.848 387.022Z" fill="#87A342"/>
<path d="M132.553 425.409H128.512L129.134 406.216C125.776 401.86 124.211 397.504 123.848 395.87H124.315C124.315 397.613 127.009 401.951 128.356 403.902C128.481 404.337 129.237 404.265 129.6 404.174V394.101C130.097 394.101 130.222 393.829 130.222 393.692H131.31C131.31 393.91 131.621 394.055 131.776 394.101C131.776 395.952 132.191 396.869 132.398 397.095V398.321C132.149 398.429 131.983 399.001 131.932 399.273C131.683 407.223 131.828 409.664 131.932 409.891C136.409 406.406 136.906 402.722 136.595 401.315H137.062C138.181 404.256 134.004 409.891 131.776 412.341C131.652 417.024 132.243 423.004 132.553 425.409Z" fill="#805E46"/>
<path d="M596.274 385.001C591.673 374.112 599.228 367.941 603.58 366.216C607.311 352.495 620.162 351.334 626.121 352.468C638.184 354.973 640.474 365.309 640.111 370.164C651.926 380.183 645.034 390.31 640.111 394.122C628.421 401.962 617.934 396.118 614.151 392.216C604.202 393.523 598.088 387.951 596.274 385.001Z" fill="#9DBD4A"/>
<path d="M612.441 381.054C601.497 382.47 596.999 375.927 596.118 372.478C592.885 378.903 595.911 384.775 597.828 386.907C602.554 393.005 610.368 392.806 613.684 391.944C627.24 402.507 638.194 396.844 641.977 392.624C648.817 387.397 646.485 378.604 644.464 374.928C641.728 378.958 638.349 382.052 637.002 383.096C626.431 390.392 616.223 384.775 612.441 381.054Z" fill="#87A342"/>
<path d="M621.146 419.441H617.105L617.726 400.247C614.369 395.891 612.804 391.535 612.441 389.902H612.907C612.907 391.644 615.602 395.982 616.949 397.933C617.073 398.369 617.83 398.296 618.193 398.205V388.132C618.69 388.132 618.815 387.86 618.815 387.724H619.903C619.903 387.942 620.214 388.087 620.369 388.132C620.369 389.984 620.784 390.9 620.991 391.127V392.352C620.742 392.461 620.576 393.033 620.525 393.305C620.276 401.255 620.421 403.696 620.525 403.923C625.002 400.438 625.499 396.753 625.188 395.347H625.654C626.774 398.287 622.597 403.923 620.369 406.373C620.245 411.055 620.835 417.036 621.146 419.441Z" fill="#805E46"/>
<path d="M517.955 390.062C520.571 383.181 516.275 379.282 513.799 378.193C511.677 369.523 504.369 368.789 500.98 369.506C494.119 371.088 492.817 377.619 493.023 380.687C486.304 387.018 490.223 393.417 493.023 395.825C499.671 400.779 505.636 397.086 507.787 394.621C513.446 395.446 516.923 391.926 517.955 390.062Z" fill="#9DBD4A"/>
<path d="M508.76 387.568C514.984 388.463 517.542 384.328 518.043 382.149C519.882 386.209 518.161 389.919 517.07 391.267C514.383 395.12 509.939 394.994 508.053 394.449C500.343 401.123 494.113 397.545 491.962 394.879C488.072 391.576 489.398 386.02 490.547 383.698C492.103 386.244 494.025 388.199 494.791 388.858C500.803 393.468 506.609 389.919 508.76 387.568Z" fill="#87A342"/>
<path d="M503.809 411.823H506.107L505.754 399.695C507.663 396.943 508.553 394.191 508.76 393.159H508.495C508.495 394.26 506.962 397 506.196 398.233C506.125 398.508 505.695 398.463 505.489 398.405V392.041C505.206 392.041 505.135 391.868 505.135 391.782H504.516C504.516 391.92 504.339 392.012 504.251 392.041C504.251 393.21 504.015 393.789 503.897 393.933V394.707C504.039 394.776 504.133 395.137 504.162 395.309C504.304 400.332 504.221 401.874 504.162 402.018C501.616 399.816 501.333 397.488 501.51 396.599H501.245C500.608 398.457 502.984 402.018 504.251 403.566C504.322 406.525 503.986 410.303 503.809 411.823Z" fill="#805E46"/>
<path d="M268.066 400.153C252.787 401.813 247.932 387.59 247.414 380.27C251.638 389.123 258.801 390.875 261.855 390.644C271.172 389.953 276.607 391.393 278.159 392.2C292.569 396.211 298.035 383.498 298.967 376.64C300.582 386.737 296.016 394.217 293.532 396.696C283.47 407.208 272.362 403.381 268.066 400.153Z" fill="#87A342"/>
<path d="M274.899 431.966H271.017L271.482 409.144C269.521 405.686 267.559 400.672 266.824 398.597H267.445C268.439 402.747 270.758 405.167 271.793 405.859L272.104 396.177H274.122V401.191C275.364 401.364 277.073 396.868 277.073 397.733C277.073 398.425 275.106 401.018 274.122 402.228C273.501 412.602 274.381 426.376 274.899 431.966Z" fill="#867046"/>
<path d="M264.34 360.042C250.675 361.287 247.311 374.451 247.414 380.676C251.265 389.251 257.714 391.049 260.458 390.876C270.271 390.047 275.002 391.568 275.985 392.26C292.01 398.622 297.983 384.652 298.967 377.045C298.346 370.821 295.033 366.324 293.532 365.056C292.911 357.587 288.408 353.299 286.234 352.089C274.557 345.726 266.772 354.74 264.34 360.042Z" fill="#9DBD4A"/>
<path d="M38.3188 394.244C25.8602 395.511 21.9014 384.65 21.4794 379.061C24.9232 385.82 30.7643 387.158 33.2543 386.982C40.8511 386.454 45.2825 387.554 46.5487 388.171C58.2983 391.234 62.7551 381.525 63.5148 376.288C64.8315 383.998 61.1091 389.711 59.0833 391.603C50.8788 399.631 41.8218 396.708 38.3188 394.244Z" fill="#87A342"/>
<path d="M43.89 418.537H40.7247L41.1045 401.109C39.5048 398.469 37.9057 394.64 37.3062 393.056H37.8126C38.6229 396.224 40.5137 398.073 41.3578 398.601L41.611 391.207H43.2569V395.036C44.2698 395.168 45.6626 391.735 45.6626 392.396C45.6626 392.924 44.0588 394.904 43.2569 395.828C42.7505 403.75 43.468 414.268 43.89 418.537Z" fill="#867046"/>
<path d="M35.2802 363.613C24.1383 364.564 21.395 374.617 21.4794 379.37C24.6194 385.918 29.878 387.292 32.1149 387.16C40.1168 386.526 43.9743 387.688 44.7761 388.216C57.8426 393.074 62.7129 382.406 63.5148 376.597C63.0084 371.844 60.3073 368.41 59.0834 367.442C58.5769 361.738 54.9051 358.464 53.1326 357.54C43.6113 352.681 37.2638 359.564 35.2802 363.613Z" fill="#9DBD4A"/>
<path d="M568.589 411.768C556.6 412.9 552.791 403.202 552.385 398.211C555.698 404.247 561.319 405.442 563.715 405.284C571.025 404.813 575.289 405.795 576.508 406.345C587.814 409.08 592.103 400.412 592.834 395.736C594.101 402.62 590.519 407.721 588.569 409.41C580.675 416.578 571.959 413.968 568.589 411.768Z" fill="#87A342"/>
<path d="M573.95 433.458H570.904L571.269 417.898C569.73 415.54 568.191 412.121 567.614 410.707H568.102C568.881 413.536 570.701 415.186 571.513 415.658L571.757 409.057H573.34V412.475C574.315 412.593 575.655 409.528 575.655 410.117C575.655 410.589 574.112 412.357 573.34 413.182C572.853 420.255 573.544 429.647 573.95 433.458Z" fill="#867046"/>
<path d="M565.665 384.419C554.943 385.268 552.304 394.244 552.385 398.487C555.406 404.335 560.466 405.56 562.619 405.443C570.319 404.877 574.031 405.914 574.802 406.386C587.376 410.724 592.062 401.199 592.834 396.012C592.347 391.768 589.747 388.702 588.57 387.838C588.082 382.745 584.549 379.822 582.843 378.996C573.681 374.658 567.573 380.804 565.665 384.419Z" fill="#9DBD4A"/>
<path d="M369.803 434.95H365.068V421.709H366.144V419.567H367.005V388.411C366.833 387.788 366.073 387.113 365.714 386.853H369.803C368.942 387.009 368.296 387.957 368.081 388.411V419.567H368.727V421.709H369.803V434.95Z" fill="#575254"/>
<path d="M371.309 384.663C370.82 384.823 369.61 386.189 369.067 386.853H367.436V377.896H371.309V384.663Z" fill="#FCE6A8"/>
<path d="M363.992 377.896H367.651V386.853H365.929C365.929 386.386 364.638 385.1 363.992 384.516V377.896Z" fill="#FADB80"/>
<path d="M363.992 377.896L363.132 377.311H371.955L371.309 377.896H363.992Z" fill="#AEA466"/>
<path d="M363.993 376.533V377.312H371.094V376.533H370.233V375.17H368.727V373.028H366.36V375.17H364.638V376.533H363.993Z" fill="#554F53"/>
<path d="M335.492 429.314V427.565H291.308V429.314H335.492Z" fill="#956B40"/>
<path d="M288.123 420.179H286.531V418.43H291.308V434.95H288.123V420.179Z" fill="#BB894B"/>
<path d="M338.279 419.985H339.871V418.236H335.094V434.756H338.279V419.985Z" fill="#BB894B"/>
<rect x="291.308" y="418.624" width="43.7864" height="1.55487" fill="#B18246"/>
<rect x="291.308" y="415.126" width="1.99029" height="8.16306" fill="#9E7E43"/>
<rect x="295.288" y="414.349" width="1.99029" height="8.94049" fill="#9E7E43"/>
<rect x="299.269" y="413.571" width="1.99029" height="9.71793" fill="#9E7E43"/>
<rect x="303.647" y="412.794" width="1.99029" height="10.4954" fill="#9E7E43"/>
<rect x="308.026" y="412.016" width="1.99029" height="11.2728" fill="#9E7E43"/>
<rect x="312.007" y="412.016" width="1.99029" height="11.2728" fill="#9E7E43"/>
<rect x="315.987" y="412.016" width="2.38835" height="11.2728" fill="#9E7E43"/>
<rect x="320.366" y="412.794" width="2.38835" height="10.4954" fill="#9E7E43"/>
<rect x="325.143" y="413.571" width="1.99029" height="9.71793" fill="#9E7E43"/>
<rect x="329.123" y="414.349" width="2.38835" height="8.94049" fill="#9E7E43"/>
<rect x="333.502" y="415.126" width="1.99029" height="8.16306" fill="#9E7E43"/>
<rect x="291.308" y="422.511" width="43.7864" height="3.49845" fill="#B18246"/>
<path d="M545.909 414.061H543.963V407.999H544.405V407.018H544.759V392.754C544.688 392.469 544.376 392.159 544.228 392.041H545.909C545.556 392.112 545.29 392.546 545.202 392.754V407.018H545.467V407.999H545.909V414.061Z" fill="#575254"/>
<path d="M546.529 391.038C546.328 391.111 545.83 391.737 545.607 392.04H544.936V387.94H546.529V391.038Z" fill="#FCE6A8"/>
<path d="M543.52 387.94H545.025V392.04H544.317C544.317 391.827 543.786 391.238 543.52 390.971V387.94Z" fill="#FADB80"/>
<path d="M543.52 387.94L543.166 387.672H546.794L546.529 387.94H543.52Z" fill="#AEA466"/>
<path d="M543.52 387.315V387.672H546.44V387.315H546.086V386.691H545.467V385.711H544.494V386.691H543.786V387.315H543.52Z" fill="#554F53"/>
<path d="M531.8 411.48V410.679H513.631V411.48H531.8Z" fill="#956B40"/>
<path d="M512.321 407.298H511.667V406.497H513.631V414.061H512.321V407.298Z" fill="#BB894B"/>
<path d="M532.946 407.209H533.601V406.408H531.637V413.972H532.946V407.209Z" fill="#BB894B"/>
<rect x="513.631" y="406.586" width="18.0056" height="0.711867" fill="#B18246"/>
<rect x="513.631" y="404.984" width="0.818437" height="3.7373" fill="#9E7E43"/>
<rect x="515.268" y="404.628" width="0.818437" height="4.09324" fill="#9E7E43"/>
<rect x="516.905" y="404.273" width="0.818437" height="4.44917" fill="#9E7E43"/>
<rect x="518.705" y="403.917" width="0.818437" height="4.8051" fill="#9E7E43"/>
<rect x="520.506" y="403.561" width="0.818437" height="5.16104" fill="#9E7E43"/>
<rect x="522.143" y="403.561" width="0.818437" height="5.16104" fill="#9E7E43"/>
<rect x="523.78" y="403.561" width="0.982125" height="5.16104" fill="#9E7E43"/>
<rect x="525.58" y="403.917" width="0.982125" height="4.8051" fill="#9E7E43"/>
<rect x="527.544" y="404.273" width="0.818437" height="4.44917" fill="#9E7E43"/>
<rect x="529.182" y="404.628" width="0.982125" height="4.09324" fill="#9E7E43"/>
<rect x="530.982" y="404.984" width="0.818437" height="3.7373" fill="#9E7E43"/>
<rect x="513.631" y="408.366" width="18.0056" height="1.6017" fill="#B18246"/>
<path d="M857.939 448.379H853.957V440.243H854.862V438.927H855.586V419.783C855.441 419.4 854.801 418.985 854.5 418.826H857.939C857.215 418.922 856.672 419.504 856.491 419.783V438.927H857.034V440.243H857.939V448.379Z" fill="#575254"/>
<path d="M859.206 417.48C858.795 417.578 857.777 418.418 857.32 418.826H855.948V413.322H859.206V417.48Z" fill="#FCE6A8"/>
<path d="M853.051 413.322H856.129V418.826H854.681C854.681 418.539 853.594 417.749 853.051 417.39V413.322Z" fill="#FADB80"/>
<path d="M853.052 413.322L852.328 412.963H859.749L859.206 413.322H853.052Z" fill="#AEA466"/>
<path d="M853.051 412.484V412.963H859.025V412.484H858.301V411.647H857.034V410.331H855.043V411.647H853.594V412.484H853.051Z" fill="#554F53"/>
<path d="M829.08 444.916V443.841H791.915V444.916H829.08Z" fill="#956B40"/>
<path d="M789.236 439.303H787.897V438.228H791.915V448.38H789.236V439.303Z" fill="#BB894B"/>
<path d="M831.423 439.184H832.762V438.109H828.745V448.26H831.423V439.184Z" fill="#BB894B"/>
<rect x="791.915" y="438.348" width="36.8297" height="0.955401" fill="#B18246"/>
<rect x="791.915" y="436.198" width="1.67408" height="5.01585" fill="#9E7E43"/>
<rect x="795.263" y="435.72" width="1.67408" height="5.49355" fill="#9E7E43"/>
<rect x="798.612" y="435.243" width="1.67408" height="5.97125" fill="#9E7E43"/>
<rect x="802.294" y="434.765" width="1.67408" height="6.44896" fill="#9E7E43"/>
<rect x="805.977" y="434.287" width="1.67408" height="6.92666" fill="#9E7E43"/>
<rect x="809.326" y="434.287" width="1.67408" height="6.92666" fill="#9E7E43"/>
<rect x="812.674" y="434.287" width="2.00889" height="6.92666" fill="#9E7E43"/>
<rect x="816.356" y="434.765" width="2.00889" height="6.44896" fill="#9E7E43"/>
<rect x="820.374" y="435.243" width="1.67408" height="5.97125" fill="#9E7E43"/>
<rect x="823.723" y="435.72" width="2.00889" height="5.49355" fill="#9E7E43"/>
<rect x="827.405" y="436.198" width="1.67408" height="5.01585" fill="#9E7E43"/>
<rect x="791.915" y="440.736" width="36.8297" height="2.14965" fill="#B18246"/>
<path d="M194.594 408.092H192.558V403.626H193.021V402.903H193.391V392.392C193.317 392.182 192.99 391.955 192.836 391.867H194.594C194.223 391.919 193.946 392.239 193.853 392.392V402.903H194.131V403.626H194.594V408.092Z" fill="#575254"/>
<path d="M195.242 391.128C195.031 391.182 194.511 391.643 194.277 391.867H193.576V388.845H195.242V391.128Z" fill="#FCE6A8"/>
<path d="M192.096 388.845H193.669V391.867H192.929C192.929 391.709 192.373 391.276 192.096 391.079V388.845Z" fill="#FADB80"/>
<path d="M192.096 388.845L191.726 388.648H195.519L195.241 388.845H192.096Z" fill="#AEA466"/>
<path d="M192.096 388.385V388.648H195.149V388.385H194.779V387.926H194.131V387.203H193.113V387.926H192.373V388.385H192.096Z" fill="#554F53"/>
<path d="M179.843 406.191V405.601H160.848V406.191H179.843Z" fill="#956B40"/>
<path d="M159.479 403.11H158.794V402.519H160.848V408.093H159.479V403.11Z" fill="#BB894B"/>
<path d="M181.041 403.044H181.726V402.454H179.672V408.027H181.041V403.044Z" fill="#BB894B"/>
<rect x="160.848" y="402.585" width="18.8241" height="0.524534" fill="#B18246"/>
<rect x="160.848" y="401.405" width="0.855639" height="2.7538" fill="#9E7E43"/>
<rect x="162.559" y="401.142" width="0.855639" height="3.01607" fill="#9E7E43"/>
<rect x="164.27" y="400.88" width="0.855639" height="3.27834" fill="#9E7E43"/>
<rect x="166.153" y="400.618" width="0.855639" height="3.5406" fill="#9E7E43"/>
<rect x="168.035" y="400.356" width="0.855639" height="3.80287" fill="#9E7E43"/>
<rect x="169.747" y="400.356" width="0.855639" height="3.80287" fill="#9E7E43"/>
<rect x="171.458" y="400.356" width="1.02677" height="3.80287" fill="#9E7E43"/>
<rect x="173.34" y="400.618" width="1.02677" height="3.5406" fill="#9E7E43"/>
<rect x="175.394" y="400.88" width="0.855639" height="3.27834" fill="#9E7E43"/>
<rect x="177.105" y="401.142" width="1.02677" height="3.01607" fill="#9E7E43"/>
<rect x="178.987" y="401.405" width="0.855639" height="2.7538" fill="#9E7E43"/>
<rect x="160.848" y="403.896" width="18.8241" height="1.1802" fill="#B18246"/>
<path d="M1114.3 423.76H1112.26V419.293H1112.72V418.57H1113.09V408.06C1113.02 407.849 1112.69 407.622 1112.54 407.534H1114.3C1113.93 407.587 1113.65 407.906 1113.56 408.06V418.57H1113.83V419.293H1114.3V423.76Z" fill="#575254"/>
<path d="M1114.94 406.795C1114.73 406.849 1114.21 407.31 1113.98 407.534H1113.28V404.512H1114.94V406.795Z" fill="#FCE6A8"/>
<path d="M1111.8 404.512H1113.37V407.534H1112.63C1112.63 407.376 1112.08 406.943 1111.8 406.746V404.512Z" fill="#FADB80"/>
<path d="M1111.8 404.512L1111.43 404.315H1115.22L1114.94 404.512H1111.8Z" fill="#AEA466"/>
<path d="M1111.8 404.053V404.315H1114.85V404.053H1114.48V403.593H1113.83V402.87H1112.82V403.593H1112.08V404.053H1111.8Z" fill="#554F53"/>
<path d="M1099.55 421.858V421.268H1080.55V421.858H1099.55Z" fill="#956B40"/>
<path d="M1079.18 418.777H1078.5V418.187H1080.55V423.76H1079.18V418.777Z" fill="#BB894B"/>
<path d="M1100.74 418.711H1101.43V418.121H1099.38V423.694H1100.74V418.711Z" fill="#BB894B"/>
<rect x="1080.55" y="418.252" width="18.8241" height="0.524534" fill="#B18246"/>
<rect x="1080.55" y="417.072" width="0.855639" height="2.7538" fill="#9E7E43"/>
<rect x="1082.26" y="416.81" width="0.855639" height="3.01607" fill="#9E7E43"/>
<rect x="1083.97" y="416.547" width="0.855639" height="3.27834" fill="#9E7E43"/>
<rect x="1085.86" y="416.285" width="0.855639" height="3.5406" fill="#9E7E43"/>
<rect x="1087.74" y="416.023" width="0.855639" height="3.80287" fill="#9E7E43"/>
<rect x="1089.45" y="416.023" width="0.855639" height="3.80287" fill="#9E7E43"/>
<rect x="1091.16" y="416.023" width="1.02677" height="3.80287" fill="#9E7E43"/>
<rect x="1093.04" y="416.285" width="1.02677" height="3.5406" fill="#9E7E43"/>
<rect x="1095.1" y="416.547" width="0.855639" height="3.27834" fill="#9E7E43"/>
<rect x="1096.81" y="416.81" width="1.02677" height="3.01607" fill="#9E7E43"/>
<rect x="1098.69" y="417.072" width="0.855639" height="2.7538" fill="#9E7E43"/>
<rect x="1080.55" y="419.563" width="18.8241" height="1.1802" fill="#B18246"/>
<path d="M111.183 425.998H108.307V418.659H108.96V417.472H109.483V400.205C109.378 399.86 108.917 399.485 108.699 399.341H111.183C110.66 399.428 110.267 399.953 110.137 400.205V417.472H110.529V418.659H111.183V425.998Z" fill="#575254"/>
<path d="M112.098 398.128C111.801 398.216 111.066 398.974 110.736 399.342H109.745V394.377H112.098V398.128Z" fill="#FCE6A8"/>
<path d="M107.653 394.377H109.875V399.342H108.83C108.83 399.083 108.045 398.37 107.653 398.046V394.377Z" fill="#FADB80"/>
<path d="M107.653 394.377L107.13 394.053H112.49L112.098 394.377H107.653Z" fill="#AEA466"/>
<path d="M107.653 393.622V394.054H111.967V393.622H111.444V392.866H110.529V391.679H109.091V392.866H108.045V393.622H107.653Z" fill="#554F53"/>
<path d="M90.3396 422.874V421.905H63.4985V422.874H90.3396Z" fill="#956B40"/>
<path d="M61.5643 417.811H60.597V416.842H63.4988V425.998H61.5643V417.811Z" fill="#BB894B"/>
<path d="M92.0324 417.704H92.9996V416.734H90.0979V425.89H92.0324V417.704Z" fill="#BB894B"/>
<rect x="63.4985" y="416.95" width="26.5992" height="0.861734" fill="#B18246"/>
<rect x="63.4985" y="415.011" width="1.20905" height="4.5241" fill="#9E7E43"/>
<rect x="65.9166" y="414.58" width="1.20905" height="4.95497" fill="#9E7E43"/>
<rect x="68.3348" y="414.149" width="1.20905" height="5.38584" fill="#9E7E43"/>
<rect x="70.9948" y="413.718" width="1.20905" height="5.81671" fill="#9E7E43"/>
<rect x="73.6548" y="413.287" width="1.20905" height="6.24757" fill="#9E7E43"/>
<rect x="76.0728" y="413.287" width="1.20905" height="6.24757" fill="#9E7E43"/>
<rect x="78.4908" y="413.287" width="1.45087" height="6.24757" fill="#9E7E43"/>
<rect x="81.1509" y="413.718" width="1.45087" height="5.81671" fill="#9E7E43"/>
<rect x="84.0526" y="414.149" width="1.20905" height="5.38584" fill="#9E7E43"/>
<rect x="86.4707" y="414.58" width="1.45087" height="4.95497" fill="#9E7E43"/>
<rect x="89.1306" y="415.011" width="1.20905" height="4.5241" fill="#9E7E43"/>
<rect x="63.4985" y="419.104" width="26.5992" height="1.9389" fill="#B18246"/>
<path d="M751.953 405.891C747.352 395.001 754.907 388.83 759.259 387.106C762.99 373.385 775.841 372.223 781.8 373.358C793.863 375.862 796.153 386.199 795.791 391.054C807.605 401.072 800.713 411.2 795.791 415.011C784.101 422.852 773.613 417.008 769.83 413.106C759.881 414.412 753.767 408.84 751.953 405.891Z" fill="#9DBD4A"/>
<path d="M768.12 401.943C757.176 403.359 752.678 396.816 751.797 393.368C748.564 399.793 751.59 405.664 753.507 407.797C758.233 413.895 766.047 413.695 769.363 412.833C782.919 423.396 793.873 417.734 797.656 413.514C804.496 408.287 802.164 399.493 800.143 395.818C797.407 399.847 794.028 402.942 792.681 403.985C782.11 411.281 771.902 405.664 768.12 401.943Z" fill="#87A342"/>
<path d="M776.825 440.33H772.784L773.405 421.137C770.048 416.781 768.483 412.425 768.12 410.791H768.586C768.586 412.534 771.281 416.872 772.628 418.823C772.752 419.258 773.509 419.186 773.872 419.095V409.022C774.369 409.022 774.494 408.75 774.494 408.613H775.582C775.582 408.831 775.893 408.976 776.048 409.022C776.048 410.873 776.463 411.79 776.67 412.016V413.242C776.421 413.35 776.255 413.922 776.204 414.194C775.955 422.144 776.1 424.585 776.204 424.812C780.681 421.327 781.178 417.643 780.867 416.236H781.333C782.453 419.177 778.276 424.812 776.048 427.262C775.924 431.945 776.514 437.925 776.825 440.33Z" fill="#805E46"/>
<path d="M1162.23 404.983C1164.84 398.103 1160.55 394.203 1158.07 393.114C1155.95 384.444 1148.64 383.71 1145.25 384.427C1138.39 386.01 1137.09 392.541 1137.29 395.608C1130.58 401.939 1134.49 408.338 1137.29 410.746C1143.94 415.7 1149.91 412.008 1152.06 409.542C1157.72 410.368 1161.19 406.847 1162.23 404.983Z" fill="#9DBD4A"/>
<path d="M1153.03 402.489C1159.26 403.384 1161.81 399.249 1162.31 397.07C1164.15 401.13 1162.43 404.84 1161.34 406.188C1158.65 410.041 1154.21 409.915 1152.32 409.37C1144.61 416.044 1138.38 412.466 1136.23 409.8C1132.34 406.497 1133.67 400.941 1134.82 398.619C1136.38 401.165 1138.3 403.12 1139.06 403.779C1145.07 408.389 1150.88 404.84 1153.03 402.489Z" fill="#87A342"/>
<path d="M1148.08 426.744H1150.38L1150.03 414.617C1151.94 411.864 1152.83 409.112 1153.03 408.08H1152.77C1152.77 409.181 1151.23 411.922 1150.47 413.154C1150.4 413.43 1149.97 413.384 1149.76 413.326V406.962C1149.48 406.962 1149.41 406.79 1149.41 406.704H1148.79C1148.79 406.841 1148.61 406.933 1148.52 406.962C1148.52 408.131 1148.29 408.711 1148.17 408.854V409.628C1148.31 409.697 1148.4 410.058 1148.43 410.23C1148.58 415.253 1148.49 416.795 1148.43 416.939C1145.89 414.737 1145.61 412.409 1145.78 411.52H1145.52C1144.88 413.378 1147.26 416.939 1148.52 418.487C1148.59 421.446 1148.26 425.224 1148.08 426.744Z" fill="#805E46"/>
<path d="M912.338 415.075C897.058 416.734 892.203 402.511 891.686 395.192C895.909 404.044 903.073 405.796 906.127 405.565C915.443 404.874 920.878 406.315 922.431 407.121C936.841 411.133 942.307 398.419 943.238 391.561C944.853 401.658 940.288 409.138 937.804 411.617C927.742 422.129 916.634 418.302 912.338 415.075Z" fill="#87A342"/>
<path d="M919.17 446.887H915.288L915.754 424.065C913.792 420.607 911.831 415.593 911.096 413.518H911.717C912.711 417.668 915.029 420.088 916.065 420.78L916.375 411.098H918.394V416.112C919.636 416.285 921.344 411.79 921.344 412.654C921.344 413.346 919.377 415.939 918.394 417.149C917.773 427.523 918.653 441.297 919.17 446.887Z" fill="#867046"/>
<path d="M908.611 374.963C894.947 376.208 891.582 389.372 891.686 395.597C895.537 404.172 901.986 405.97 904.729 405.797C914.543 404.968 919.274 406.489 920.257 407.181C936.282 413.543 942.255 399.573 943.238 391.966C942.617 385.742 939.305 381.245 937.804 379.977C937.183 372.508 932.679 368.22 930.506 367.01C918.829 360.647 911.044 369.661 908.611 374.963Z" fill="#9DBD4A"/>
<path d="M682.59 409.165C670.132 410.432 666.173 399.571 665.751 393.982C669.195 400.741 675.036 402.079 677.526 401.903C685.123 401.375 689.554 402.475 690.82 403.092C702.57 406.155 707.027 396.446 707.786 391.209C709.103 398.919 705.381 404.632 703.355 406.524C695.15 414.552 686.093 411.63 682.59 409.165Z" fill="#87A342"/>
<path d="M688.161 433.458H684.996L685.376 416.03C683.776 413.39 682.177 409.561 681.578 407.977H682.084C682.894 411.145 684.785 412.994 685.629 413.522L685.882 406.128H687.528V409.957C688.541 410.089 689.934 406.656 689.934 407.317C689.934 407.845 688.33 409.825 687.528 410.749C687.022 418.671 687.739 429.189 688.161 433.458Z" fill="#867046"/>
<path d="M679.552 378.534C668.41 379.485 665.667 389.538 665.751 394.291C668.891 400.84 674.15 402.213 676.386 402.081C684.388 401.447 688.246 402.609 689.048 403.137C702.114 407.996 706.985 397.328 707.786 391.518C707.28 386.765 704.579 383.331 703.355 382.363C702.849 376.659 699.177 373.385 697.404 372.461C687.883 367.602 681.535 374.485 679.552 378.534Z" fill="#9DBD4A"/>
<path d="M1014.07 449.872H1009.34V436.63H1010.42V434.488H1011.28V403.332C1011.1 402.709 1010.34 402.034 1009.99 401.774H1014.07C1013.21 401.93 1012.57 402.878 1012.35 403.332V434.488H1013V436.63H1014.07V449.872Z" fill="#575254"/>
<path d="M1015.58 399.585C1015.09 399.744 1013.88 401.111 1013.34 401.774H1011.71V392.817H1015.58V399.585Z" fill="#FCE6A8"/>
<path d="M1008.26 392.817H1011.92V401.774H1010.2C1010.2 401.307 1008.91 400.022 1008.26 399.437V392.817Z" fill="#FADB80"/>
<path d="M1008.26 392.817L1007.4 392.233H1016.23L1015.58 392.817H1008.26Z" fill="#AEA466"/>
<path d="M1008.26 391.454V392.233H1015.37V391.454H1014.5V390.091H1013V387.949H1010.63V390.091H1008.91V391.454H1008.26Z" fill="#554F53"/>
<path d="M979.764 444.235V442.486H935.579V444.235H979.764Z" fill="#956B40"/>
<path d="M932.395 435.1H930.803V433.351H935.579V449.871H932.395V435.1Z" fill="#BB894B"/>
<path d="M982.55 434.906H984.142V433.157H979.366V449.677H982.55V434.906Z" fill="#BB894B"/>
<rect x="935.579" y="433.546" width="43.7864" height="1.55487" fill="#B18246"/>
<rect x="935.579" y="430.047" width="1.99029" height="8.16306" fill="#9E7E43"/>
<rect x="939.56" y="429.27" width="1.99029" height="8.94049" fill="#9E7E43"/>
<rect x="943.54" y="428.492" width="1.99029" height="9.71793" fill="#9E7E43"/>
<rect x="947.919" y="427.715" width="1.99029" height="10.4954" fill="#9E7E43"/>
<rect x="952.298" y="426.938" width="1.99029" height="11.2728" fill="#9E7E43"/>
<rect x="956.278" y="426.938" width="1.99029" height="11.2728" fill="#9E7E43"/>
<rect x="960.259" y="426.938" width="2.38835" height="11.2728" fill="#9E7E43"/>
<rect x="964.637" y="427.715" width="2.38835" height="10.4954" fill="#9E7E43"/>
<rect x="969.414" y="428.492" width="1.99029" height="9.71793" fill="#9E7E43"/>
<rect x="973.395" y="429.27" width="2.38835" height="8.94049" fill="#9E7E43"/>
<rect x="977.773" y="430.047" width="1.99029" height="8.16306" fill="#9E7E43"/>
<rect x="935.579" y="437.432" width="43.7864" height="3.49845" fill="#B18246"/>
<rect width="1186" height="398" transform="matrix(-1 0 0 1 2376 1)" fill="#FAFAFA"/>
<path d="M2378 399V95C2317.04 137.092 2269.32 148.915 2253.08 149.564C2222.1 151.123 2194.37 160.607 2184.37 165.154C2169.38 173.728 2159.8 172.624 2156.89 171C2060.95 188.928 2013.65 170.675 2001.99 159.308C1965.01 123.451 1932.45 132.675 1920.79 141.769C1900.8 136.313 1884.98 144.043 1879.56 148.59C1868.57 156.385 1825.02 158.983 1804.61 159.308C1714.67 147.615 1553.1 154.436 1483.56 159.308C1338.66 171.779 1227.48 121.632 1190 95V399H2378Z" fill="#85DAEF"/>
<path d="M2109.47 246.452H2222C2217.52 240.114 2209.62 240.826 2206.23 241.974C2202.3 235.635 2191.04 235.658 2185.89 236.462C2172.43 220.478 2158.55 228.424 2153.29 234.395C2142.77 230.606 2141.37 238.874 2141.02 238.185C2140.74 237.633 2139.5 237.955 2138.92 238.185C2131.91 234.326 2125.95 238.185 2123.84 240.596C2115.15 237.289 2111.57 241.974 2110.87 244.73C2109.47 245.005 2109.35 245.993 2109.47 246.452Z" fill="#E2EDE8"/>
<path d="M1480.37 236.754H1592.1C1587.65 230.415 1579.8 231.127 1576.44 232.275C1572.54 225.937 1561.36 225.96 1556.25 226.763C1542.88 210.779 1529.1 218.725 1523.88 224.697C1513.44 220.907 1512.04 229.175 1511.69 228.486C1511.42 227.935 1510.19 228.256 1509.61 228.486C1502.64 224.628 1496.73 228.486 1494.64 230.897C1486.01 227.59 1482.46 232.275 1481.76 235.031C1480.37 235.307 1480.25 236.294 1480.37 236.754Z" fill="#E2EDE8"/>
<path d="M1729.46 189.752H1856.36C1851.3 182.195 1842.39 183.043 1838.57 184.412C1834.14 176.855 1821.44 176.882 1815.64 177.841C1800.46 158.783 1784.8 168.257 1778.87 175.376C1767.01 170.858 1765.43 180.716 1765.04 179.894C1764.72 179.237 1763.32 179.621 1762.67 179.894C1754.76 175.294 1748.04 179.895 1745.67 182.77C1735.86 178.827 1731.83 184.413 1731.04 187.698C1729.46 188.027 1729.33 189.204 1729.46 189.752Z" fill="#E2EDE8"/>
<path d="M2253.1 137.205H2380C2374.94 129.647 2366.03 130.496 2362.21 131.865C2357.78 124.308 2345.08 124.335 2339.28 125.293C2324.1 106.235 2308.45 115.71 2302.52 122.829C2290.66 118.311 2289.08 128.169 2288.68 127.347C2288.36 126.69 2286.97 127.073 2286.31 127.347C2278.4 122.747 2271.68 127.347 2269.31 130.222C2259.5 126.279 2255.47 131.865 2254.68 135.151C2253.1 135.48 2252.97 136.657 2253.1 137.205Z" fill="#E2EDE8"/>
<path d="M1311.5 168.534C1300.67 155.136 1269.61 155.185 1255.43 156.884C1231.99 135.548 1208.09 134.384 1190 139.603V178H1355C1342.63 164.603 1320.84 166.107 1311.5 168.534Z" fill="#E2EDE8"/>
<path d="M1744.16 397.871V239.342H1719.48V340.604H1676.89V280.974H1624.86V300.79H1571.14V344.967H1556.62V284.61H1504.59V225.888H1453.04V300.79H1434.65V320.97H1417.96V267.702H1380.69V310.607H1356.01V222.616C1335.87 191.928 1314.71 209.829 1306.64 222.616V331.514H1265.98V308.607H1252.43V287.7H1226.78V315.698H1209.36V260.976H1190.97V397.871H1744.16Z" fill="#DCEAE3"/>
<path d="M1783.6 397.871V267.157L1770.54 266.975V264.43H1762.79V267.157H1755.53V239.342H1743.43V393.144H1644.22V280.61H1607.19V298.245H1602.84V296.245H1598.24V298.245H1570.65V393.144H1554.68L1556.86 285.519H1544.76V388.599H1520.8V285.519H1517.66V283.701H1508.46V285.519H1503.38V225.161H1492.25V388.599H1464.18V225.161H1453.29V300.608H1446.27V299.881H1439.01V300.608H1435.62V388.599H1390.37L1391.58 266.975H1379.72L1378.27 388.599H1307.85V331.332H1274.21V388.599H1257.76V307.88H1252.19V288.064H1227.27V317.334H1217.1V387.509H1190V397.871H1783.6Z" fill="#D3E6DC"/>
<path d="M2336.51 397.871V239.342H2311.83V340.604H2269.24V280.974H2217.21V300.79H2163.49V344.967H2148.97V284.61H2096.94V225.888H2045.4V300.79H2027.01V320.97H2010.31V267.702H1973.04V310.607H1948.36V222.616C1928.23 191.928 1907.06 209.829 1898.99 222.616V331.514H1858.34V308.607H1844.79V287.7H1819.14V315.698H1801.71V260.976H1783.32V397.871H2336.51Z" fill="#DCEAE3"/>
<path d="M2375.96 397.871V267.157L2362.89 266.975V264.43H2355.15V267.157H2347.89V239.342H2335.79V393.144H2236.57V280.61H2199.55V298.245H2195.19V296.245H2190.59V298.245H2163.01V393.144H2147.03L2149.21 285.519H2137.11V388.599H2113.16V285.519H2110.01V283.701H2100.81V285.519H2095.73V225.161H2084.6V388.599H2056.53V225.161H2045.64V300.608H2038.62V299.881H2031.36V300.608H2027.98V388.599H1982.72L1983.93 266.975H1972.08L1970.62 388.599H1900.2V331.332H1866.57V388.599H1850.11V307.88H1844.55V288.064H1819.62V317.334H1809.46V387.509H1782.35V397.871H2375.96Z" fill="#D3E6DC"/>
<path d="M1815.24 400.14C1964.06 387.606 2251.14 394.917 2376.09 400.14C2300.08 525.477 2173.84 494.392 2120.21 463.182C2077.42 422.298 1916.9 446.147 1841.99 463.182C1780.04 488.846 1648.25 482.579 1590.11 476.238C1526.24 449.38 1387.06 445.401 1325.45 446.768C1185.9 450.648 1180.82 417.299 1195.72 400.14C1162.19 380.146 1296.18 380.867 1367.37 383.727C1389.72 402.826 1675.26 402.627 1815.24 400.14Z" fill="#A8CB45"/>
<path d="M2188.07 284.128H2190.87C2187.04 282.337 2186.61 280.149 2186.88 279.279C2191.03 273.609 2199.78 267.466 2203.64 265.104C2197.57 266.894 2188.34 273.062 2184.48 275.921C2182.57 277.413 2181.29 276.543 2180.89 275.921C2179.29 273.832 2178.36 275.051 2178.09 275.921C2171.71 273.832 2167.18 275.797 2165.72 277.041C2171.15 277.041 2177.3 278.035 2179.69 278.533C2180.09 280.771 2182.09 280.398 2182.88 280.771C2183.52 281.069 2185.81 284.625 2186.88 286.366L2188.07 284.128Z" fill="black" stroke="black"/>
<path d="M1969.72 323.917C1974.83 319.143 1981.97 319.441 1984.89 320.187C1978.19 314.517 1971.19 318.571 1968.53 321.306C1967.57 323.097 1964.4 322.052 1962.94 321.306C1954 319.217 1950.43 322.177 1949.77 323.917C1956.79 319.441 1962.81 323.047 1964.93 325.409L1966.53 327.275C1969.59 328.021 1975.07 329.065 1972.52 327.275C1969.96 325.484 1969.59 324.29 1969.72 323.917Z" fill="black" stroke="black"/>
<path d="M1821.63 242.173H1828.42C1824.58 240.084 1826.02 238.567 1827.22 238.07C1830.09 234.787 1834.27 235.459 1836 236.205C1841.11 237.1 1842.65 234.837 1842.79 233.593C1839.59 234.489 1835.87 233.966 1834.4 233.593C1829.93 230.609 1826.42 234.091 1825.22 236.205H1822.83C1815.8 230.236 1812.71 231.231 1812.05 232.474C1814.6 231.281 1818.97 234.464 1820.83 236.205C1818.92 237.995 1820.03 238.94 1820.83 239.189L1821.63 242.173Z" fill="black" stroke="black"/>
<path d="M1649.58 321.873C1650.54 319.187 1652.64 318.764 1653.58 318.889C1648.15 317.695 1650.52 315.904 1652.38 315.158C1651.42 311.577 1659.16 312.671 1663.16 313.666C1653.9 309.488 1650.25 311.925 1649.58 313.666C1647.99 316.352 1645.46 314.785 1644.39 313.666C1640.24 311.577 1639.47 318.267 1639.6 321.873C1645.59 307.325 1648.39 325.23 1649.58 321.873Z" fill="black" stroke="black"/>
<path d="M1546.2 282.27C1547.79 274.809 1555.11 277.172 1558.57 279.286C1556.66 273.317 1549.52 275.928 1546.2 277.42C1539.17 275.033 1536.88 276.799 1536.62 278.54C1543.32 276.749 1545.8 280.28 1546.2 282.27Z" fill="black" stroke="black"/>
<path d="M2272.32 391.97C2276.92 381.08 2269.37 374.909 2265.01 373.185C2261.28 359.464 2248.43 358.302 2242.47 359.436C2230.41 361.941 2228.12 372.277 2228.48 377.132C2216.67 387.151 2223.56 397.279 2228.48 401.09C2240.17 408.931 2250.66 403.087 2254.44 399.184C2264.39 400.491 2270.51 394.919 2272.32 391.97Z" fill="#9DBD4A"/>
<path d="M2256.15 388.022C2267.1 389.438 2271.59 382.895 2272.47 379.447C2275.71 385.872 2272.68 391.743 2270.76 393.876C2266.04 399.974 2258.22 399.774 2254.91 398.912C2241.35 409.475 2230.4 403.813 2226.62 399.593C2219.78 394.366 2222.11 385.572 2224.13 381.897C2226.86 385.926 2230.24 389.021 2231.59 390.064C2242.16 397.36 2252.37 391.743 2256.15 388.022Z" fill="#87A342"/>
<path d="M2247.45 426.409H2251.49L2250.87 407.216C2254.22 402.86 2255.79 398.504 2256.15 396.87H2255.69C2255.69 398.613 2252.99 402.951 2251.64 404.902C2251.52 405.337 2250.76 405.265 2250.4 405.174V395.101C2249.9 395.101 2249.78 394.829 2249.78 394.692H2248.69C2248.69 394.91 2248.38 395.055 2248.22 395.101C2248.22 396.952 2247.81 397.869 2247.6 398.095V399.321C2247.85 399.429 2248.02 400.001 2248.07 400.273C2248.32 408.223 2248.17 410.664 2248.07 410.891C2243.59 407.406 2243.09 403.722 2243.4 402.315H2242.94C2241.82 405.256 2246 410.891 2248.22 413.341C2248.35 418.024 2247.76 424.004 2247.45 426.409Z" fill="#805E46"/>
<path d="M1783.73 386.001C1788.33 375.112 1780.77 368.941 1776.42 367.216C1772.69 353.495 1759.84 352.334 1753.88 353.468C1741.82 355.973 1739.53 366.309 1739.89 371.164C1728.07 381.183 1734.97 391.31 1739.89 395.122C1751.58 402.962 1762.07 397.118 1765.85 393.216C1775.8 394.523 1781.91 388.951 1783.73 386.001Z" fill="#9DBD4A"/>
<path d="M1767.56 382.054C1778.5 383.47 1783 376.927 1783.88 373.478C1787.12 379.903 1784.09 385.775 1782.17 387.907C1777.45 394.005 1769.63 393.806 1766.32 392.944C1752.76 403.507 1741.81 397.844 1738.02 393.624C1731.18 388.397 1733.52 379.604 1735.54 375.928C1738.27 379.958 1741.65 383.052 1743 384.096C1753.57 391.392 1763.78 385.775 1767.56 382.054Z" fill="#87A342"/>
<path d="M1758.85 420.441H1762.9L1762.27 401.247C1765.63 396.891 1767.2 392.535 1767.56 390.902H1767.09C1767.09 392.644 1764.4 396.982 1763.05 398.933C1762.93 399.369 1762.17 399.296 1761.81 399.205V389.132C1761.31 389.132 1761.19 388.86 1761.19 388.724H1760.1C1760.1 388.942 1759.79 389.087 1759.63 389.132C1759.63 390.984 1759.22 391.9 1759.01 392.127V393.352C1759.26 393.461 1759.42 394.033 1759.48 394.305C1759.72 402.255 1759.58 404.696 1759.48 404.923C1755 401.438 1754.5 397.753 1754.81 396.347H1754.35C1753.23 399.287 1757.4 404.923 1759.63 407.373C1759.76 412.055 1759.16 418.036 1758.85 420.441Z" fill="#805E46"/>
<path d="M1862.05 391.062C1859.43 384.181 1863.73 380.282 1866.2 379.193C1868.32 370.523 1875.63 369.789 1879.02 370.506C1885.88 372.088 1887.18 378.619 1886.98 381.687C1893.7 388.018 1889.78 394.417 1886.98 396.825C1880.33 401.779 1874.36 398.086 1872.21 395.621C1866.55 396.446 1863.08 392.926 1862.05 391.062Z" fill="#9DBD4A"/>
<path d="M1871.24 388.568C1865.02 389.463 1862.46 385.328 1861.96 383.149C1860.12 387.209 1861.84 390.919 1862.93 392.267C1865.62 396.12 1870.06 395.994 1871.95 395.449C1879.66 402.123 1885.89 398.545 1888.04 395.879C1891.93 392.576 1890.6 387.02 1889.45 384.698C1887.9 387.244 1885.98 389.199 1885.21 389.858C1879.2 394.468 1873.39 390.919 1871.24 388.568Z" fill="#87A342"/>
<path d="M1876.19 412.823H1873.89L1874.25 400.695C1872.34 397.943 1871.45 395.191 1871.24 394.159H1871.51C1871.51 395.26 1873.04 398 1873.8 399.233C1873.87 399.508 1874.31 399.463 1874.51 399.405V393.041C1874.79 393.041 1874.87 392.868 1874.87 392.782H1875.48C1875.48 392.92 1875.66 393.012 1875.75 393.041C1875.75 394.21 1875.98 394.789 1876.1 394.933V395.707C1875.96 395.776 1875.87 396.137 1875.84 396.309C1875.7 401.332 1875.78 402.874 1875.84 403.018C1878.38 400.816 1878.67 398.488 1878.49 397.599H1878.76C1879.39 399.457 1877.02 403.018 1875.75 404.566C1875.68 407.525 1876.01 411.303 1876.19 412.823Z" fill="#805E46"/>
<path d="M2111.93 401.153C2127.21 402.813 2132.07 388.59 2132.59 381.27C2128.36 390.123 2121.2 391.875 2118.15 391.644C2108.83 390.953 2103.39 392.393 2101.84 393.2C2087.43 397.211 2081.96 384.498 2081.03 377.64C2079.42 387.737 2083.98 395.217 2086.47 397.696C2096.53 408.208 2107.64 404.381 2111.93 401.153Z" fill="#87A342"/>
<path d="M2105.1 432.966H2108.98L2108.52 410.144C2110.48 406.686 2112.44 401.672 2113.18 399.597H2112.55C2111.56 403.747 2109.24 406.167 2108.21 406.859L2107.9 397.177H2105.88V402.191C2104.64 402.364 2102.93 397.868 2102.93 398.733C2102.93 399.425 2104.89 402.018 2105.88 403.228C2106.5 413.602 2105.62 427.376 2105.1 432.966Z" fill="#867046"/>
<path d="M2115.66 361.042C2129.33 362.287 2132.69 375.451 2132.59 381.676C2128.74 390.251 2122.29 392.049 2119.54 391.876C2109.73 391.047 2105 392.568 2104.01 393.26C2087.99 399.622 2082.02 385.652 2081.03 378.045C2081.65 371.821 2084.97 367.324 2086.47 366.056C2087.09 358.587 2091.59 354.299 2093.77 353.089C2105.44 346.726 2113.23 355.74 2115.66 361.042Z" fill="#9DBD4A"/>
<path d="M2341.68 395.244C2354.14 396.511 2358.1 385.65 2358.52 380.061C2355.08 386.82 2349.24 388.158 2346.75 387.982C2339.15 387.454 2334.72 388.554 2333.45 389.171C2321.7 392.234 2317.24 382.525 2316.49 377.288C2315.17 384.998 2318.89 390.711 2320.92 392.603C2329.12 400.631 2338.18 397.708 2341.68 395.244Z" fill="#87A342"/>
<path d="M2336.11 419.537H2339.28L2338.9 402.109C2340.5 399.469 2342.09 395.64 2342.69 394.056H2342.19C2341.38 397.224 2339.49 399.073 2338.64 399.601L2338.39 392.207H2336.74V396.036C2335.73 396.168 2334.34 392.735 2334.34 393.396C2334.34 393.924 2335.94 395.904 2336.74 396.828C2337.25 404.75 2336.53 415.268 2336.11 419.537Z" fill="#867046"/>
<path d="M2344.72 364.613C2355.86 365.564 2358.6 375.617 2358.52 380.37C2355.38 386.918 2350.12 388.292 2347.89 388.16C2339.88 387.526 2336.03 388.688 2335.22 389.216C2322.16 394.074 2317.29 383.406 2316.49 377.597C2316.99 372.844 2319.69 369.41 2320.92 368.442C2321.42 362.738 2325.09 359.464 2326.87 358.54C2336.39 353.681 2342.74 360.564 2344.72 364.613Z" fill="#9DBD4A"/>
<path d="M1811.41 412.768C1823.4 413.9 1827.21 404.202 1827.62 399.211C1824.3 405.247 1818.68 406.442 1816.28 406.284C1808.97 405.813 1804.71 406.795 1803.49 407.345C1792.19 410.08 1787.9 401.412 1787.17 396.736C1785.9 403.62 1789.48 408.721 1791.43 410.41C1799.33 417.578 1808.04 414.968 1811.41 412.768Z" fill="#87A342"/>
<path d="M1806.05 434.458H1809.1L1808.73 418.898C1810.27 416.54 1811.81 413.121 1812.39 411.707H1811.9C1811.12 414.536 1809.3 416.186 1808.49 416.658L1808.24 410.057H1806.66V413.475C1805.68 413.593 1804.34 410.528 1804.34 411.117C1804.34 411.589 1805.89 413.357 1806.66 414.182C1807.15 421.255 1806.46 430.647 1806.05 434.458Z" fill="#867046"/>
<path d="M1814.34 385.419C1825.06 386.268 1827.7 395.244 1827.62 399.487C1824.59 405.335 1819.53 406.56 1817.38 406.443C1809.68 405.877 1805.97 406.914 1805.2 407.386C1792.62 411.724 1787.94 402.199 1787.17 397.012C1787.65 392.768 1790.25 389.702 1791.43 388.838C1791.92 383.745 1795.45 380.822 1797.16 379.996C1806.32 375.658 1812.43 381.804 1814.34 385.419Z" fill="#9DBD4A"/>
<path d="M2010.2 435.95H2014.93V422.709H2013.86V420.567H2012.99V389.411C2013.17 388.788 2013.93 388.113 2014.29 387.853H2010.2C2011.06 388.009 2011.7 388.957 2011.92 389.411V420.567H2011.27V422.709H2010.2V435.95Z" fill="#575254"/>
<path d="M2008.69 385.663C2009.18 385.823 2010.39 387.189 2010.93 387.853H2012.56V378.896H2008.69V385.663Z" fill="#FCE6A8"/>
<path d="M2016.01 378.896H2012.35V387.853H2014.07C2014.07 387.386 2015.36 386.1 2016.01 385.516V378.896Z" fill="#FADB80"/>
<path d="M2016.01 378.896L2016.87 378.311H2008.05L2008.69 378.896H2016.01Z" fill="#AEA466"/>
<path d="M2016.01 377.533V378.312H2008.91V377.533H2009.77V376.17H2011.27V374.028H2013.64V376.17H2015.36V377.533H2016.01Z" fill="#554F53"/>
<path d="M2044.51 430.314V428.565H2088.69V430.314H2044.51Z" fill="#956B40"/>
<path d="M2091.88 421.179H2093.47V419.43H2088.69V435.95H2091.88V421.179Z" fill="#BB894B"/>
<path d="M2041.72 420.985H2040.13V419.236H2044.91V435.756H2041.72V420.985Z" fill="#BB894B"/>
<rect width="43.7864" height="1.55487" transform="matrix(-1 0 0 1 2088.69 419.624)" fill="#B18246"/>
<rect width="1.99029" height="8.16306" transform="matrix(-1 0 0 1 2088.69 416.126)" fill="#9E7E43"/>
<rect width="1.99029" height="8.94049" transform="matrix(-1 0 0 1 2084.71 415.349)" fill="#9E7E43"/>
<rect width="1.99029" height="9.71793" transform="matrix(-1 0 0 1 2080.73 414.571)" fill="#9E7E43"/>
<rect width="1.99029" height="10.4954" transform="matrix(-1 0 0 1 2076.35 413.794)" fill="#9E7E43"/>
<rect width="1.99029" height="11.2728" transform="matrix(-1 0 0 1 2071.97 413.016)" fill="#9E7E43"/>
<rect width="1.99029" height="11.2728" transform="matrix(-1 0 0 1 2067.99 413.016)" fill="#9E7E43"/>
<rect width="2.38835" height="11.2728" transform="matrix(-1 0 0 1 2064.01 413.016)" fill="#9E7E43"/>
<rect width="2.38835" height="10.4954" transform="matrix(-1 0 0 1 2059.63 413.794)" fill="#9E7E43"/>
<rect width="1.99029" height="9.71793" transform="matrix(-1 0 0 1 2054.86 414.571)" fill="#9E7E43"/>
<rect width="2.38835" height="8.94049" transform="matrix(-1 0 0 1 2050.88 415.349)" fill="#9E7E43"/>
<rect width="1.99029" height="8.16306" transform="matrix(-1 0 0 1 2046.5 416.126)" fill="#9E7E43"/>
<rect width="43.7864" height="3.49845" transform="matrix(-1 0 0 1 2088.69 423.511)" fill="#B18246"/>
<path d="M1834.09 415.061H1836.04V408.999H1835.59V408.018H1835.24V393.754C1835.31 393.469 1835.62 393.159 1835.77 393.041H1834.09C1834.44 393.112 1834.71 393.546 1834.8 393.754V408.018H1834.53V408.999H1834.09V415.061Z" fill="#575254"/>
<path d="M1833.47 392.038C1833.67 392.111 1834.17 392.737 1834.39 393.04H1835.06V388.94H1833.47V392.038Z" fill="#FCE6A8"/>
<path d="M1836.48 388.94H1834.98V393.04H1835.68C1835.68 392.827 1836.21 392.238 1836.48 391.971V388.94Z" fill="#FADB80"/>
<path d="M1836.48 388.94L1836.83 388.672H1833.21L1833.47 388.94H1836.48Z" fill="#AEA466"/>
<path d="M1836.48 388.315V388.672H1833.56V388.315H1833.91V387.691H1834.53V386.711H1835.51V387.691H1836.21V388.315H1836.48Z" fill="#554F53"/>
<path d="M1848.2 412.48V411.679H1866.37V412.48H1848.2Z" fill="#956B40"/>
<path d="M1867.68 408.298H1868.33V407.497H1866.37V415.061H1867.68V408.298Z" fill="#BB894B"/>
<path d="M1847.05 408.209H1846.4V407.408H1848.36V414.972H1847.05V408.209Z" fill="#BB894B"/>
<rect width="18.0056" height="0.711867" transform="matrix(-1 0 0 1 1866.37 407.586)" fill="#B18246"/>
<rect width="0.818437" height="3.7373" transform="matrix(-1 0 0 1 1866.37 405.984)" fill="#9E7E43"/>
<rect width="0.818437" height="4.09324" transform="matrix(-1 0 0 1 1864.73 405.628)" fill="#9E7E43"/>
<rect width="0.818437" height="4.44917" transform="matrix(-1 0 0 1 1863.1 405.273)" fill="#9E7E43"/>
<rect width="0.818437" height="4.8051" transform="matrix(-1 0 0 1 1861.29 404.917)" fill="#9E7E43"/>
<rect width="0.818437" height="5.16104" transform="matrix(-1 0 0 1 1859.49 404.561)" fill="#9E7E43"/>
<rect width="0.818437" height="5.16104" transform="matrix(-1 0 0 1 1857.86 404.561)" fill="#9E7E43"/>
<rect width="0.982125" height="5.16104" transform="matrix(-1 0 0 1 1856.22 404.561)" fill="#9E7E43"/>
<rect width="0.982125" height="4.8051" transform="matrix(-1 0 0 1 1854.42 404.917)" fill="#9E7E43"/>
<rect width="0.818437" height="4.44917" transform="matrix(-1 0 0 1 1852.46 405.273)" fill="#9E7E43"/>
<rect width="0.982125" height="4.09324" transform="matrix(-1 0 0 1 1850.82 405.628)" fill="#9E7E43"/>
<rect width="0.818437" height="3.7373" transform="matrix(-1 0 0 1 1849.02 405.984)" fill="#9E7E43"/>
<rect width="18.0056" height="1.6017" transform="matrix(-1 0 0 1 1866.37 409.366)" fill="#B18246"/>
<path d="M1522.06 449.379H1526.04V441.243H1525.14V439.927H1524.41V420.783C1524.56 420.4 1525.2 419.985 1525.5 419.826H1522.06C1522.79 419.922 1523.33 420.504 1523.51 420.783V439.927H1522.97V441.243H1522.06V449.379Z" fill="#575254"/>
<path d="M1520.79 418.48C1521.21 418.578 1522.22 419.418 1522.68 419.826H1524.05V414.322H1520.79V418.48Z" fill="#FCE6A8"/>
<path d="M1526.95 414.322H1523.87V419.826H1525.32C1525.32 419.539 1526.41 418.749 1526.95 418.39V414.322Z" fill="#FADB80"/>
<path d="M1526.95 414.322L1527.67 413.963H1520.25L1520.79 414.322H1526.95Z" fill="#AEA466"/>
<path d="M1526.95 413.484V413.963H1520.98V413.484H1521.7V412.647H1522.97V411.331H1524.96V412.647H1526.41V413.484H1526.95Z" fill="#554F53"/>
<path d="M1550.92 445.916V444.841H1588.08V445.916H1550.92Z" fill="#956B40"/>
<path d="M1590.76 440.303H1592.1V439.228H1588.09V449.38H1590.76V440.303Z" fill="#BB894B"/>
<path d="M1548.58 440.184H1547.24V439.109H1551.26V449.26H1548.58V440.184Z" fill="#BB894B"/>
<rect width="36.8297" height="0.955401" transform="matrix(-1 0 0 1 1588.08 439.348)" fill="#B18246"/>
<rect width="1.67408" height="5.01585" transform="matrix(-1 0 0 1 1588.08 437.198)" fill="#9E7E43"/>
<rect width="1.67408" height="5.49355" transform="matrix(-1 0 0 1 1584.74 436.72)" fill="#9E7E43"/>
<rect width="1.67408" height="5.97125" transform="matrix(-1 0 0 1 1581.39 436.243)" fill="#9E7E43"/>
<rect width="1.67408" height="6.44896" transform="matrix(-1 0 0 1 1577.71 435.765)" fill="#9E7E43"/>
<rect width="1.67408" height="6.92666" transform="matrix(-1 0 0 1 1574.02 435.287)" fill="#9E7E43"/>
<rect width="1.67408" height="6.92666" transform="matrix(-1 0 0 1 1570.67 435.287)" fill="#9E7E43"/>
<rect width="2.00889" height="6.92666" transform="matrix(-1 0 0 1 1567.33 435.287)" fill="#9E7E43"/>
<rect width="2.00889" height="6.44896" transform="matrix(-1 0 0 1 1563.64 435.765)" fill="#9E7E43"/>
<rect width="1.67408" height="5.97125" transform="matrix(-1 0 0 1 1559.63 436.243)" fill="#9E7E43"/>
<rect width="2.00889" height="5.49355" transform="matrix(-1 0 0 1 1556.28 436.72)" fill="#9E7E43"/>
<rect width="1.67408" height="5.01585" transform="matrix(-1 0 0 1 1552.59 437.198)" fill="#9E7E43"/>
<rect width="36.8297" height="2.14965" transform="matrix(-1 0 0 1 1588.08 441.736)" fill="#B18246"/>
<path d="M2185.41 409.092H2187.44V404.626H2186.98V403.903H2186.61V393.392C2186.68 393.182 2187.01 392.955 2187.16 392.867H2185.41C2185.78 392.919 2186.05 393.239 2186.15 393.392V403.903H2185.87V404.626H2185.41V409.092Z" fill="#575254"/>
<path d="M2184.76 392.128C2184.97 392.182 2185.49 392.643 2185.72 392.867H2186.42V389.845H2184.76V392.128Z" fill="#FCE6A8"/>
<path d="M2187.9 389.845H2186.33V392.867H2187.07C2187.07 392.709 2187.63 392.276 2187.9 392.079V389.845Z" fill="#FADB80"/>
<path d="M2187.9 389.845L2188.27 389.648H2184.48L2184.76 389.845H2187.9Z" fill="#AEA466"/>
<path d="M2187.9 389.385V389.648H2184.85V389.385H2185.22V388.926H2185.87V388.203H2186.89V388.926H2187.63V389.385H2187.9Z" fill="#554F53"/>
<path d="M2200.16 407.191V406.601H2219.15V407.191H2200.16Z" fill="#956B40"/>
<path d="M2220.52 404.11H2221.21V403.519H2219.15V409.093H2220.52V404.11Z" fill="#BB894B"/>
<path d="M2198.96 404.044H2198.27V403.454H2200.33V409.027H2198.96V404.044Z" fill="#BB894B"/>
<rect width="18.8241" height="0.524534" transform="matrix(-1 0 0 1 2219.15 403.585)" fill="#B18246"/>
<rect width="0.855639" height="2.7538" transform="matrix(-1 0 0 1 2219.15 402.405)" fill="#9E7E43"/>
<rect width="0.855639" height="3.01607" transform="matrix(-1 0 0 1 2217.44 402.142)" fill="#9E7E43"/>
<rect width="0.855639" height="3.27834" transform="matrix(-1 0 0 1 2215.73 401.88)" fill="#9E7E43"/>
<rect width="0.855639" height="3.5406" transform="matrix(-1 0 0 1 2213.85 401.618)" fill="#9E7E43"/>
<rect width="0.855639" height="3.80287" transform="matrix(-1 0 0 1 2211.96 401.356)" fill="#9E7E43"/>
<rect width="0.855639" height="3.80287" transform="matrix(-1 0 0 1 2210.25 401.356)" fill="#9E7E43"/>
<rect width="1.02677" height="3.80287" transform="matrix(-1 0 0 1 2208.54 401.356)" fill="#9E7E43"/>
<rect width="1.02677" height="3.5406" transform="matrix(-1 0 0 1 2206.66 401.618)" fill="#9E7E43"/>
<rect width="0.855639" height="3.27834" transform="matrix(-1 0 0 1 2204.61 401.88)" fill="#9E7E43"/>
<rect width="1.02677" height="3.01607" transform="matrix(-1 0 0 1 2202.9 402.142)" fill="#9E7E43"/>
<rect width="0.855639" height="2.7538" transform="matrix(-1 0 0 1 2201.01 402.405)" fill="#9E7E43"/>
<rect width="18.8241" height="1.1802" transform="matrix(-1 0 0 1 2219.15 404.896)" fill="#B18246"/>
<path d="M1265.7 424.76H1267.74V420.293H1267.28V419.57H1266.91V409.06C1266.98 408.849 1267.31 408.622 1267.46 408.534H1265.7C1266.07 408.587 1266.35 408.906 1266.44 409.06V419.57H1266.17V420.293H1265.7V424.76Z" fill="#575254"/>
<path d="M1265.06 407.795C1265.27 407.849 1265.79 408.31 1266.02 408.534H1266.72V405.512H1265.06V407.795Z" fill="#FCE6A8"/>
<path d="M1268.2 405.512H1266.63V408.534H1267.37C1267.37 408.376 1267.92 407.943 1268.2 407.746V405.512Z" fill="#FADB80"/>
<path d="M1268.2 405.512L1268.57 405.315H1264.78L1265.06 405.512H1268.2Z" fill="#AEA466"/>
<path d="M1268.2 405.053V405.315H1265.15V405.053H1265.52V404.593H1266.17V403.87H1267.18V404.593H1267.92V405.053H1268.2Z" fill="#554F53"/>
<path d="M1280.45 422.858V422.268H1299.45V422.858H1280.45Z" fill="#956B40"/>
<path d="M1300.82 419.777H1301.5V419.187H1299.45V424.76H1300.82V419.777Z" fill="#BB894B"/>
<path d="M1279.26 419.711H1278.57V419.121H1280.62V424.694H1279.26V419.711Z" fill="#BB894B"/>
<rect width="18.8241" height="0.524534" transform="matrix(-1 0 0 1 1299.45 419.252)" fill="#B18246"/>
<rect width="0.855639" height="2.7538" transform="matrix(-1 0 0 1 1299.45 418.072)" fill="#9E7E43"/>
<rect width="0.855639" height="3.01607" transform="matrix(-1 0 0 1 1297.74 417.81)" fill="#9E7E43"/>
<rect width="0.855639" height="3.27834" transform="matrix(-1 0 0 1 1296.03 417.547)" fill="#9E7E43"/>
<rect width="0.855639" height="3.5406" transform="matrix(-1 0 0 1 1294.14 417.285)" fill="#9E7E43"/>
<rect width="0.855639" height="3.80287" transform="matrix(-1 0 0 1 1292.26 417.023)" fill="#9E7E43"/>
<rect width="0.855639" height="3.80287" transform="matrix(-1 0 0 1 1290.55 417.023)" fill="#9E7E43"/>
<rect width="1.02677" height="3.80287" transform="matrix(-1 0 0 1 1288.84 417.023)" fill="#9E7E43"/>
<rect width="1.02677" height="3.5406" transform="matrix(-1 0 0 1 1286.96 417.285)" fill="#9E7E43"/>
<rect width="0.855639" height="3.27834" transform="matrix(-1 0 0 1 1284.9 417.547)" fill="#9E7E43"/>
<rect width="1.02677" height="3.01607" transform="matrix(-1 0 0 1 1283.19 417.81)" fill="#9E7E43"/>
<rect width="0.855639" height="2.7538" transform="matrix(-1 0 0 1 1281.31 418.072)" fill="#9E7E43"/>
<rect width="18.8241" height="1.1802" transform="matrix(-1 0 0 1 1299.45 420.563)" fill="#B18246"/>
<path d="M2268.82 426.998H2271.69V419.659H2271.04V418.472H2270.52V401.205C2270.62 400.859 2271.08 400.485 2271.3 400.341H2268.82C2269.34 400.428 2269.73 400.953 2269.86 401.205V418.472H2269.47V419.659H2268.82V426.998Z" fill="#575254"/>
<path d="M2267.9 399.128C2268.2 399.216 2268.93 399.974 2269.26 400.342H2270.26V395.377H2267.9V399.128Z" fill="#FCE6A8"/>
<path d="M2272.35 395.377H2270.12V400.342H2271.17C2271.17 400.083 2271.96 399.37 2272.35 399.046V395.377Z" fill="#FADB80"/>
<path d="M2272.35 395.377L2272.87 395.053H2267.51L2267.9 395.377H2272.35Z" fill="#AEA466"/>
<path d="M2272.35 394.622V395.054H2268.03V394.622H2268.56V393.866H2269.47V392.679H2270.91V393.866H2271.95V394.622H2272.35Z" fill="#554F53"/>
<path d="M2289.66 423.874V422.905H2316.5V423.874H2289.66Z" fill="#956B40"/>
<path d="M2318.44 418.811H2319.4V417.842H2316.5V426.998H2318.44V418.811Z" fill="#BB894B"/>
<path d="M2287.97 418.704H2287V417.734H2289.9V426.89H2287.97V418.704Z" fill="#BB894B"/>
<rect width="26.5992" height="0.861734" transform="matrix(-1 0 0 1 2316.5 417.95)" fill="#B18246"/>
<rect width="1.20905" height="4.5241" transform="matrix(-1 0 0 1 2316.5 416.011)" fill="#9E7E43"/>
<rect width="1.20905" height="4.95497" transform="matrix(-1 0 0 1 2314.08 415.58)" fill="#9E7E43"/>
<rect width="1.20905" height="5.38584" transform="matrix(-1 0 0 1 2311.67 415.149)" fill="#9E7E43"/>
<rect width="1.20905" height="5.81671" transform="matrix(-1 0 0 1 2309.01 414.718)" fill="#9E7E43"/>
<rect width="1.20905" height="6.24757" transform="matrix(-1 0 0 1 2306.35 414.287)" fill="#9E7E43"/>
<rect width="1.20905" height="6.24757" transform="matrix(-1 0 0 1 2303.93 414.287)" fill="#9E7E43"/>
<rect width="1.45087" height="6.24757" transform="matrix(-1 0 0 1 2301.51 414.287)" fill="#9E7E43"/>
<rect width="1.45087" height="5.81671" transform="matrix(-1 0 0 1 2298.85 414.718)" fill="#9E7E43"/>
<rect width="1.20905" height="5.38584" transform="matrix(-1 0 0 1 2295.95 415.149)" fill="#9E7E43"/>
<rect width="1.45087" height="4.95497" transform="matrix(-1 0 0 1 2293.53 415.58)" fill="#9E7E43"/>
<rect width="1.20905" height="4.5241" transform="matrix(-1 0 0 1 2290.87 416.011)" fill="#9E7E43"/>
<rect width="26.5992" height="1.9389" transform="matrix(-1 0 0 1 2316.5 420.104)" fill="#B18246"/>
<path d="M1628.05 406.891C1632.65 396.001 1625.09 389.83 1620.74 388.106C1617.01 374.385 1604.16 373.223 1598.2 374.358C1586.14 376.862 1583.85 387.199 1584.21 392.054C1572.4 402.072 1579.29 412.2 1584.21 416.011C1595.9 423.852 1606.39 418.008 1610.17 414.106C1620.12 415.412 1626.23 409.84 1628.05 406.891Z" fill="#9DBD4A"/>
<path d="M1611.88 402.943C1622.82 404.359 1627.32 397.816 1628.2 394.368C1631.44 400.793 1628.41 406.664 1626.49 408.797C1621.77 414.895 1613.95 414.695 1610.64 413.833C1597.08 424.396 1586.13 418.734 1582.34 414.514C1575.5 409.287 1577.84 400.493 1579.86 396.818C1582.59 400.847 1585.97 403.942 1587.32 404.985C1597.89 412.281 1608.1 406.664 1611.88 402.943Z" fill="#87A342"/>
<path d="M1603.17 441.33H1607.22L1606.59 422.137C1609.95 417.781 1611.52 413.425 1611.88 411.791H1611.41C1611.41 413.534 1608.72 417.872 1607.37 419.823C1607.25 420.258 1606.49 420.186 1606.13 420.095V410.022C1605.63 410.022 1605.51 409.75 1605.51 409.613H1604.42C1604.42 409.831 1604.11 409.976 1603.95 410.022C1603.95 411.873 1603.54 412.79 1603.33 413.016V414.242C1603.58 414.35 1603.74 414.922 1603.8 415.194C1604.05 423.144 1603.9 425.585 1603.8 425.812C1599.32 422.327 1598.82 418.643 1599.13 417.236H1598.67C1597.55 420.177 1601.72 425.812 1603.95 428.262C1604.08 432.945 1603.49 438.925 1603.17 441.33Z" fill="#805E46"/>
<path d="M1217.77 405.983C1215.16 399.103 1219.45 395.203 1221.93 394.114C1224.05 385.444 1231.36 384.71 1234.75 385.427C1241.61 387.01 1242.91 393.541 1242.71 396.608C1249.42 402.939 1245.51 409.338 1242.71 411.746C1236.06 416.7 1230.09 413.008 1227.94 410.542C1222.28 411.368 1218.81 407.847 1217.77 405.983Z" fill="#9DBD4A"/>
<path d="M1226.97 403.489C1220.74 404.384 1218.19 400.249 1217.69 398.07C1215.85 402.13 1217.57 405.84 1218.66 407.188C1221.35 411.041 1225.79 410.915 1227.68 410.37C1235.39 417.044 1241.62 413.466 1243.77 410.8C1247.66 407.497 1246.33 401.941 1245.18 399.619C1243.63 402.165 1241.7 404.12 1240.94 404.779C1234.93 409.389 1229.12 405.84 1226.97 403.489Z" fill="#87A342"/>
<path d="M1231.92 427.744H1229.62L1229.97 415.617C1228.06 412.864 1227.17 410.112 1226.97 409.08H1227.23C1227.23 410.181 1228.77 412.922 1229.53 414.154C1229.6 414.43 1230.03 414.384 1230.24 414.326V407.962C1230.52 407.962 1230.59 407.79 1230.59 407.704H1231.21C1231.21 407.841 1231.39 407.933 1231.48 407.962C1231.48 409.131 1231.71 409.711 1231.83 409.854V410.628C1231.69 410.697 1231.6 411.058 1231.57 411.23C1231.42 416.253 1231.51 417.795 1231.57 417.939C1234.11 415.737 1234.4 413.409 1234.22 412.52H1234.48C1235.12 414.378 1232.74 417.939 1231.48 419.487C1231.41 422.446 1231.74 426.224 1231.92 427.744Z" fill="#805E46"/>
<path d="M1467.66 416.075C1482.94 417.734 1487.8 403.511 1488.31 396.192C1484.09 405.044 1476.93 406.796 1473.87 406.565C1464.56 405.874 1459.12 407.315 1457.57 408.121C1443.16 412.133 1437.69 399.419 1436.76 392.561C1435.15 402.658 1439.71 410.138 1442.2 412.617C1452.26 423.129 1463.37 419.302 1467.66 416.075Z" fill="#87A342"/>
<path d="M1460.83 447.887H1464.71L1464.25 425.065C1466.21 421.607 1468.17 416.593 1468.9 414.518H1468.28C1467.29 418.668 1464.97 421.088 1463.94 421.78L1463.62 412.098H1461.61V417.112C1460.36 417.285 1458.66 412.79 1458.66 413.654C1458.66 414.346 1460.62 416.939 1461.61 418.149C1462.23 428.523 1461.35 442.297 1460.83 447.887Z" fill="#867046"/>
<path d="M1471.39 375.963C1485.05 377.208 1488.42 390.372 1488.31 396.597C1484.46 405.172 1478.01 406.97 1475.27 406.797C1465.46 405.968 1460.73 407.489 1459.74 408.181C1443.72 414.543 1437.75 400.573 1436.76 392.966C1437.38 386.742 1440.7 382.245 1442.2 380.977C1442.82 373.508 1447.32 369.22 1449.49 368.01C1461.17 361.647 1468.96 370.661 1471.39 375.963Z" fill="#9DBD4A"/>
<path d="M1697.41 410.165C1709.87 411.432 1713.83 400.571 1714.25 394.982C1710.81 401.741 1704.96 403.079 1702.47 402.903C1694.88 402.375 1690.45 403.475 1689.18 404.092C1677.43 407.155 1672.97 397.446 1672.21 392.209C1670.9 399.919 1674.62 405.632 1676.65 407.524C1684.85 415.552 1693.91 412.63 1697.41 410.165Z" fill="#87A342"/>
<path d="M1691.84 434.458H1695L1694.62 417.03C1696.22 414.39 1697.82 410.561 1698.42 408.977H1697.92C1697.11 412.145 1695.21 413.994 1694.37 414.522L1694.12 407.128H1692.47V410.957C1691.46 411.089 1690.07 407.656 1690.07 408.317C1690.07 408.845 1691.67 410.825 1692.47 411.749C1692.98 419.671 1692.26 430.189 1691.84 434.458Z" fill="#867046"/>
<path d="M1700.45 379.534C1711.59 380.485 1714.33 390.538 1714.25 395.291C1711.11 401.84 1705.85 403.213 1703.61 403.081C1695.61 402.447 1691.75 403.609 1690.95 404.137C1677.89 408.996 1673.02 398.328 1672.21 392.518C1672.72 387.765 1675.42 384.331 1676.65 383.363C1677.15 377.659 1680.82 374.385 1682.6 373.461C1692.12 368.602 1698.46 375.485 1700.45 379.534Z" fill="#9DBD4A"/>
<path d="M1365.93 450.872H1370.66V437.63H1369.58V435.488H1368.72V404.332C1368.9 403.709 1369.66 403.034 1370.01 402.774H1365.93C1366.79 402.93 1367.43 403.878 1367.65 404.332V435.488H1367V437.63H1365.93V450.872Z" fill="#575254"/>
<path d="M1364.42 400.585C1364.91 400.744 1366.12 402.111 1366.66 402.774H1368.29V393.817H1364.42V400.585Z" fill="#FCE6A8"/>
<path d="M1371.74 393.817H1368.08V402.774H1369.8C1369.8 402.307 1371.09 401.022 1371.74 400.437V393.817Z" fill="#FADB80"/>
<path d="M1371.74 393.817L1372.6 393.233H1363.77L1364.42 393.817H1371.74Z" fill="#AEA466"/>
<path d="M1371.74 392.454V393.233H1364.63V392.454H1365.5V391.091H1367V388.949H1369.37V391.091H1371.09V392.454H1371.74Z" fill="#554F53"/>
<path d="M1400.24 445.235V443.486H1444.42V445.235H1400.24Z" fill="#956B40"/>
<path d="M1447.61 436.1H1449.2V434.351H1444.42V450.871H1447.61V436.1Z" fill="#BB894B"/>
<path d="M1397.45 435.906H1395.86V434.157H1400.63V450.677H1397.45V435.906Z" fill="#BB894B"/>
<rect width="43.7864" height="1.55487" transform="matrix(-1 0 0 1 1444.42 434.546)" fill="#B18246"/>
<rect width="1.99029" height="8.16306" transform="matrix(-1 0 0 1 1444.42 431.047)" fill="#9E7E43"/>
<rect width="1.99029" height="8.94049" transform="matrix(-1 0 0 1 1440.44 430.27)" fill="#9E7E43"/>
<rect width="1.99029" height="9.71793" transform="matrix(-1 0 0 1 1436.46 429.492)" fill="#9E7E43"/>
<rect width="1.99029" height="10.4954" transform="matrix(-1 0 0 1 1432.08 428.715)" fill="#9E7E43"/>
<rect width="1.99029" height="11.2728" transform="matrix(-1 0 0 1 1427.7 427.938)" fill="#9E7E43"/>
<rect width="1.99029" height="11.2728" transform="matrix(-1 0 0 1 1423.72 427.938)" fill="#9E7E43"/>
<rect width="2.38835" height="11.2728" transform="matrix(-1 0 0 1 1419.74 427.938)" fill="#9E7E43"/>
<rect width="2.38835" height="10.4954" transform="matrix(-1 0 0 1 1415.36 428.715)" fill="#9E7E43"/>
<rect width="1.99029" height="9.71793" transform="matrix(-1 0 0 1 1410.59 429.492)" fill="#9E7E43"/>
<rect width="2.38835" height="8.94049" transform="matrix(-1 0 0 1 1406.61 430.27)" fill="#9E7E43"/>
<rect width="1.99029" height="8.16306" transform="matrix(-1 0 0 1 1402.23 431.047)" fill="#9E7E43"/>
<rect width="43.7864" height="3.49845" transform="matrix(-1 0 0 1 1444.42 438.432)" fill="#B18246"/>
</svg>
