<svg width="1920" height="295" viewBox="0 0 1920 295" fill="none" xmlns="http://www.w3.org/2000/svg" opacity="0.3">
<rect x="3.22815" width="956.772" height="238.8" fill="#FAFAFA"/>
<path d="M1.61365 238.8V56.3999C50.7927 81.6553 89.2894 88.7486 102.39 89.1384C127.383 90.0737 149.755 95.764 157.818 98.4922C169.911 103.637 177.637 102.974 179.988 102C257.385 112.757 295.546 101.805 304.952 94.9845C334.781 73.4707 361.051 79.005 370.456 84.4614C386.581 81.1876 399.346 85.8255 403.713 88.5537C412.581 93.2307 447.719 94.7896 464.179 94.9845C536.738 87.9691 667.076 92.0614 723.175 94.9845C840.076 102.468 929.767 72.3794 960 56.3999V238.8H1.61365Z" fill="#85DAEF"/>
<path d="M218.242 147.271H127.459C131.079 143.468 137.452 143.895 140.186 144.584C143.353 140.781 152.441 140.795 156.589 141.277C167.449 131.687 178.648 136.454 182.891 140.037C191.375 137.763 192.506 142.724 192.789 142.311C193.015 141.98 194.015 142.173 194.486 142.311C200.142 139.996 204.95 142.311 206.647 143.758C213.661 141.773 216.546 144.584 217.111 146.238C218.242 146.403 218.337 146.996 218.242 147.271Z" fill="#E2EDE8"/>
<path d="M725.754 141.452H635.615C639.209 137.649 645.536 138.076 648.251 138.765C651.396 134.962 660.419 134.976 664.538 135.458C675.321 125.867 686.441 130.635 690.653 134.218C699.077 131.944 700.201 136.905 700.481 136.491C700.706 136.161 701.698 136.354 702.166 136.491C707.782 134.176 712.556 136.491 714.241 137.938C721.205 135.954 724.069 138.765 724.631 140.418C725.754 140.584 725.848 141.176 725.754 141.452Z" fill="#E2EDE8"/>
<path d="M524.807 113.251H422.434C426.516 108.717 433.703 109.226 436.785 110.048C440.357 105.513 450.605 105.53 455.283 106.105C467.529 94.6698 480.158 100.354 484.942 104.626C494.51 101.915 495.785 107.83 496.104 107.337C496.359 106.942 497.486 107.173 498.018 107.337C504.396 104.577 509.818 107.337 511.731 109.062C519.64 106.696 522.893 110.048 523.531 112.019C524.807 112.216 524.913 112.923 524.807 113.251Z" fill="#E2EDE8"/>
<path d="M102.373 81.7231H0C4.08216 77.1886 11.2685 77.6979 14.3513 78.5193C17.9232 73.9848 28.1711 74.0012 32.8486 74.5762C45.0951 63.1414 57.7242 68.826 62.508 73.0977C72.0756 70.3868 73.3512 76.3014 73.6702 75.8085C73.9253 75.4142 75.0521 75.6442 75.5837 75.8085C81.962 73.0484 87.3836 75.8085 89.2972 77.5336C97.2063 75.1678 100.459 78.5194 101.097 80.4909C102.373 80.688 102.479 81.3945 102.373 81.7231Z" fill="#E2EDE8"/>
<path d="M861.983 100.521C870.718 92.4819 895.776 92.5111 907.214 93.5305C926.125 80.7288 945.41 80.0307 960 83.1617V106.2H826.891C836.873 98.1616 854.445 99.0644 861.983 100.521Z" fill="#E2EDE8"/>
<path d="M512.947 238.123V143.005H532.86V203.762H567.218V167.984H609.191V179.874H652.529V206.38H664.242V170.166H706.215V134.933H747.797V179.874H762.633V191.982H776.103V160.021H806.167V185.764H826.08V132.97C842.322 114.557 859.397 125.298 865.904 132.97V198.308H898.701V184.564H909.634V172.02H930.327V188.819H944.383V155.985H959.219V238.123H512.947Z" fill="#DCEAE3"/>
<path d="M481.126 238.123V159.694L491.668 159.585V158.058H497.915V159.694H503.772V143.005H513.533V235.287H593.573V167.766H623.441V178.347H626.955V177.147H630.665V178.347H652.92V235.287H665.804L664.047 170.711H673.808V232.56H693.135V170.711H695.673V169.621H703.091V170.711H707.191V134.497H716.171V232.56H738.816V134.497H747.601V179.765H753.263V179.329H759.119V179.765H761.852V232.56H798.358L797.382 159.585H806.948L808.119 232.56H864.928V198.2H892.064V232.56H905.339V184.128H909.829V172.239H929.936V189.8H938.136V231.905H960V238.123H481.126Z" fill="#D3E6DC"/>
<path d="M35.0814 238.123V143.005H54.9938V203.763H89.3525V167.984H131.325V179.874H174.663V206.381H186.377V170.166H228.349V134.933H269.931V179.874H284.767V191.982H298.238V160.022H328.301V185.765H348.214V132.97C364.456 114.557 381.531 125.298 388.039 132.97V198.309H420.835V184.565H431.768V172.02H452.461V188.819H466.517V155.986H481.354V238.123H35.0814Z" fill="#DCEAE3"/>
<path d="M3.26038 238.123V159.694L13.8022 159.585V158.058H20.0493V159.694H25.9059V143.005H35.6668V235.287H115.707V167.766H145.576V178.347H149.089V177.147H152.799V178.347H175.054V235.287H187.938L186.181 170.711H195.942V232.56H215.269V170.711H217.807V169.621H225.225V170.711H229.325V134.497H238.305V232.56H260.95V134.497H269.735V179.765H275.397V179.329H281.253V179.765H283.986V232.56H320.492L319.516 159.585H329.082L330.253 232.56H387.062V198.2H414.198V232.56H427.473V184.128H431.963V172.239H452.07V189.8H460.27V231.905H482.134V238.123H3.26038Z" fill="#D3E6DC"/>
<path d="M455.602 239.484C335.551 231.963 103.951 236.35 3.15723 239.484C64.4708 314.686 166.317 296.035 209.575 277.309C244.096 252.778 373.593 267.088 434.027 277.309C484.005 292.707 590.316 288.947 637.225 285.142C688.749 269.027 801.028 266.64 850.727 267.461C963.307 269.788 967.408 249.779 955.385 239.484C982.435 227.487 874.342 227.92 816.915 229.636C798.881 241.095 568.526 240.976 455.602 239.484Z" fill="#A8CB45"/>
<path d="M154.831 169.877H152.577C155.669 168.802 156.012 167.489 155.797 166.967C152.448 163.565 145.385 159.88 142.272 158.462C147.167 159.536 154.617 163.237 157.73 164.953C159.275 165.848 160.306 165.326 160.628 164.953C161.916 163.699 162.667 164.431 162.882 164.953C168.034 163.699 171.684 164.878 172.865 165.624C168.485 165.624 163.526 166.221 161.594 166.52C161.272 167.862 159.662 167.639 159.018 167.862C158.502 168.041 156.656 170.175 155.797 171.22L154.831 169.877Z" fill="black" stroke="black"/>
<path d="M330.979 193.75C326.857 190.885 321.103 191.064 318.742 191.512C324.152 188.11 329.798 190.542 331.945 192.184C332.718 193.258 335.272 192.631 336.453 192.184C343.667 190.93 346.543 192.706 347.08 193.75C341.412 191.065 336.561 193.228 334.843 194.645L333.555 195.765C331.086 196.212 326.664 196.839 328.725 195.765C330.786 194.69 331.086 193.974 330.979 193.75Z" fill="black" stroke="black"/>
<path d="M450.45 144.704H444.976C448.067 143.451 446.908 142.54 445.942 142.242C443.623 140.272 440.253 140.675 438.857 141.123C434.735 141.66 433.49 140.302 433.383 139.556C435.959 140.093 438.965 139.78 440.145 139.556C443.752 137.766 446.586 139.855 447.552 141.123H449.484C455.152 137.542 457.642 138.139 458.179 138.885C456.118 138.169 452.597 140.078 451.094 141.123C452.64 142.197 451.738 142.764 451.094 142.913L450.45 144.704Z" fill="black" stroke="black"/>
<path d="M589.243 192.524C588.47 190.912 586.774 190.659 586.023 190.733C590.402 190.017 588.492 188.943 586.989 188.495C587.762 186.346 581.514 187.003 578.294 187.6C585.765 185.093 588.706 186.555 589.243 187.6C590.531 189.211 592.571 188.271 593.429 187.6C596.778 186.346 597.401 190.36 597.294 192.524C592.463 183.795 590.209 194.538 589.243 192.524Z" fill="black" stroke="black"/>
<path d="M672.648 168.762C671.359 164.285 665.456 165.703 662.665 166.971C664.21 163.39 669.964 164.957 672.648 165.852C678.315 164.42 680.161 165.479 680.376 166.524C674.966 165.449 672.97 167.568 672.648 168.762Z" fill="black" stroke="black"/>
<path d="M86.8685 234.582C83.1565 228.048 89.2512 224.346 92.7626 223.311C95.7724 215.078 106.139 214.381 110.947 215.062C120.678 216.565 122.526 222.767 122.233 225.68C131.764 231.691 126.204 237.767 122.233 240.054C112.803 244.759 104.342 241.252 101.29 238.911C93.2643 239.695 88.3316 236.352 86.8685 234.582Z" fill="#9DBD4A"/>
<path d="M99.9111 232.214C91.0825 233.063 87.454 229.137 86.7434 227.068C84.1349 230.923 86.5762 234.446 88.1229 235.726C91.9352 239.385 98.239 239.265 100.914 238.748C111.85 245.085 120.687 241.688 123.738 239.156C129.256 236.02 127.375 230.743 125.745 228.538C123.538 230.956 120.812 232.813 119.725 233.439C111.198 237.816 102.963 234.446 99.9111 232.214Z" fill="#87A342"/>
<path d="M106.934 255.246H103.673L104.175 243.73C101.466 241.116 100.204 238.502 99.911 237.522H100.287C100.287 238.568 102.461 241.17 103.548 242.341C103.648 242.602 104.258 242.559 104.551 242.504V236.461C104.952 236.461 105.053 236.297 105.053 236.216H105.931C105.931 236.346 106.181 236.433 106.307 236.461C106.307 237.571 106.641 238.121 106.808 238.257V238.992C106.608 239.058 106.474 239.401 106.432 239.564C106.232 244.334 106.349 245.799 106.432 245.935C110.044 243.844 110.445 241.633 110.194 240.789H110.571C111.474 242.553 108.104 245.935 106.307 247.405C106.206 250.215 106.683 253.803 106.934 255.246Z" fill="#805E46"/>
<path d="M481.028 231.001C477.316 224.467 483.41 220.764 486.922 219.73C489.932 211.497 500.299 210.8 505.106 211.481C514.837 212.984 516.685 219.185 516.393 222.098C525.923 228.11 520.364 234.186 516.393 236.473C506.962 241.177 498.501 237.671 495.45 235.33C487.423 236.114 482.491 232.77 481.028 231.001Z" fill="#9DBD4A"/>
<path d="M494.07 228.632C485.241 229.481 481.613 225.556 480.902 223.487C478.294 227.342 480.735 230.864 482.282 232.144C486.094 235.803 492.398 235.683 495.073 235.166C506.009 241.504 514.846 238.106 517.897 235.574C523.415 232.438 521.534 227.162 519.904 224.957C517.697 227.374 514.971 229.231 513.884 229.857C505.357 234.235 497.122 230.864 494.07 228.632Z" fill="#87A342"/>
<path d="M501.093 251.664H497.832L498.334 240.148C495.625 237.535 494.363 234.921 494.07 233.941H494.446C494.446 234.986 496.62 237.589 497.707 238.76C497.807 239.021 498.417 238.978 498.71 238.923V232.879C499.111 232.879 499.212 232.716 499.212 232.634H500.09C500.09 232.765 500.34 232.852 500.466 232.879C500.466 233.99 500.8 234.54 500.967 234.676V235.411C500.767 235.477 500.633 235.82 500.591 235.983C500.391 240.753 500.508 242.217 500.591 242.353C504.203 240.263 504.604 238.052 504.353 237.208H504.73C505.633 238.972 502.263 242.353 500.466 243.824C500.365 246.633 500.842 250.221 501.093 251.664Z" fill="#805E46"/>
<path d="M417.846 234.037C419.957 229.909 416.491 227.569 414.494 226.916C412.782 221.714 406.886 221.274 404.152 221.704C398.617 222.653 397.566 226.572 397.733 228.412C392.312 232.211 395.474 236.05 397.733 237.495C403.096 240.468 407.908 238.252 409.644 236.773C414.208 237.268 417.014 235.156 417.846 234.037Z" fill="#9DBD4A"/>
<path d="M410.428 232.541C415.449 233.078 417.513 230.597 417.917 229.29C419.4 231.726 418.012 233.952 417.132 234.76C414.964 237.072 411.379 236.996 409.858 236.669C403.638 240.674 398.612 238.527 396.877 236.927C393.739 234.946 394.809 231.612 395.736 230.219C396.991 231.746 398.541 232.919 399.159 233.315C404.009 236.081 408.693 233.952 410.428 232.541Z" fill="#87A342"/>
<path d="M406.434 247.094H408.288L408.003 239.817C409.544 238.166 410.262 236.515 410.428 235.895H410.214C410.214 236.556 408.978 238.2 408.36 238.94C408.303 239.105 407.956 239.078 407.789 239.043V235.224C407.561 235.224 407.504 235.121 407.504 235.07H407.005C407.005 235.152 406.862 235.207 406.791 235.224C406.791 235.926 406.6 236.274 406.505 236.36V236.824C406.619 236.865 406.696 237.082 406.719 237.185C406.833 240.199 406.767 241.125 406.719 241.211C404.665 239.89 404.437 238.493 404.58 237.96H404.366C403.852 239.074 405.768 241.211 406.791 242.14C406.848 243.915 406.577 246.182 406.434 247.094Z" fill="#805E46"/>
<path d="M216.255 240.092C203.929 241.088 200.012 232.554 199.594 228.162C203.002 233.474 208.781 234.525 211.244 234.387C218.76 233.972 223.145 234.836 224.397 235.32C236.022 237.727 240.432 230.099 241.183 225.984C242.486 232.042 238.803 236.531 236.799 238.017C228.682 244.325 219.721 242.029 216.255 240.092Z" fill="#87A342"/>
<path d="M221.767 259.18H218.635L219.011 245.487C217.428 243.412 215.846 240.403 215.253 239.159H215.754C216.556 241.648 218.426 243.101 219.262 243.516L219.512 237.706H221.141V240.715C222.143 240.818 223.521 238.121 223.521 238.64C223.521 239.055 221.934 240.611 221.141 241.337C220.64 247.561 221.349 255.826 221.767 259.18Z" fill="#867046"/>
<path d="M213.249 216.025C202.225 216.772 199.511 224.671 199.595 228.405C202.701 233.551 207.904 234.63 210.117 234.526C218.034 234.028 221.85 234.941 222.644 235.356C235.571 239.173 240.39 230.791 241.183 226.227C240.682 222.492 238.01 219.794 236.799 219.034C236.298 214.552 232.665 211.979 230.911 211.253C221.491 207.436 215.211 212.844 213.249 216.025Z" fill="#9DBD4A"/>
<path d="M30.9126 236.546C20.8618 237.307 17.6682 230.79 17.3278 227.436C20.106 231.492 24.8181 232.295 26.8269 232.189C32.9554 231.872 36.5303 232.533 37.5517 232.902C47.0304 234.74 50.6258 228.915 51.2387 225.773C52.3009 230.399 49.298 233.826 47.6637 234.962C41.045 239.778 33.7385 238.025 30.9126 236.546Z" fill="#87A342"/>
<path d="M35.4071 251.122H32.8535L33.1599 240.666C31.8694 239.081 30.5794 236.784 30.0957 235.833H30.5043C31.158 237.735 32.6833 238.844 33.3642 239.161L33.5685 234.724H34.8963V237.022C35.7135 237.101 36.837 235.041 36.837 235.437C36.837 235.754 35.5432 236.942 34.8963 237.497C34.4878 242.25 35.0666 248.561 35.4071 251.122Z" fill="#867046"/>
<path d="M28.4612 218.168C19.4728 218.738 17.2597 224.77 17.3278 227.622C19.8609 231.551 24.1032 232.375 25.9077 232.296C32.363 231.915 35.4749 232.612 36.1218 232.929C46.6628 235.845 50.5918 229.444 51.2387 225.958C50.8301 223.106 48.6511 221.046 47.6638 220.465C47.2552 217.043 44.2931 215.078 42.8631 214.524C35.1821 211.608 30.0614 215.738 28.4612 218.168Z" fill="#9DBD4A"/>
<path d="M458.694 247.061C449.022 247.74 445.949 241.921 445.621 238.927C448.295 242.548 452.829 243.265 454.762 243.171C460.659 242.888 464.099 243.477 465.082 243.807C474.203 245.448 477.663 240.247 478.253 237.441C479.275 241.572 476.385 244.632 474.813 245.646C468.444 249.946 461.413 248.381 458.694 247.061Z" fill="#87A342"/>
<path d="M463.018 260.075H460.561L460.856 250.739C459.614 249.324 458.373 247.273 457.907 246.424H458.3C458.929 248.122 460.397 249.112 461.052 249.395L461.249 245.434H462.527V247.485C463.313 247.556 464.394 245.717 464.394 246.071C464.394 246.354 463.149 247.415 462.527 247.91C462.134 252.153 462.691 257.788 463.018 260.075Z" fill="#867046"/>
<path d="M456.334 230.651C447.685 231.161 445.556 236.546 445.621 239.092C448.059 242.601 452.141 243.336 453.877 243.265C460.089 242.926 463.084 243.548 463.706 243.831C473.849 246.434 477.63 240.719 478.252 237.607C477.859 235.061 475.763 233.221 474.812 232.702C474.419 229.647 471.569 227.893 470.193 227.398C462.802 224.795 457.874 228.482 456.334 230.651Z" fill="#9DBD4A"/>
<path d="M298.328 260.97H294.509V253.026H295.377V251.74H296.072V233.047C295.933 232.673 295.319 232.268 295.03 232.112H298.328C297.634 232.206 297.113 232.774 296.94 233.047V251.74H297.46V253.026H298.328V260.97Z" fill="#575254"/>
<path d="M299.543 230.798C299.149 230.894 298.173 231.714 297.734 232.112H296.419V226.737H299.543V230.798Z" fill="#FCE6A8"/>
<path d="M293.641 226.737H296.592V232.112H295.203C295.203 231.831 294.162 231.06 293.641 230.71V226.737Z" fill="#FADB80"/>
<path d="M293.641 226.737L292.947 226.387H300.064L299.544 226.737H293.641Z" fill="#AEA466"/>
<path d="M293.641 225.919V226.387H299.37V225.919H298.676V225.102H297.46V223.816H295.551V225.102H294.162V225.919H293.641Z" fill="#554F53"/>
<path d="M270.649 257.589V256.539H235.005V257.589H270.649Z" fill="#956B40"/>
<path d="M232.436 252.108H231.151V251.058H235.005V260.97H232.436V252.108Z" fill="#BB894B"/>
<path d="M272.897 251.991H274.182V250.941H270.328V260.854H272.897V251.991Z" fill="#BB894B"/>
<rect x="235.005" y="251.175" width="35.3235" height="0.932921" fill="#B18246"/>
<rect x="235.005" y="249.075" width="1.60561" height="4.89783" fill="#9E7E43"/>
<rect x="238.216" y="248.609" width="1.60561" height="5.36429" fill="#9E7E43"/>
<rect x="241.427" y="248.142" width="1.60561" height="5.83076" fill="#9E7E43"/>
<rect x="244.959" y="247.676" width="1.60561" height="6.29722" fill="#9E7E43"/>
<rect x="248.492" y="247.21" width="1.60561" height="6.76368" fill="#9E7E43"/>
<rect x="251.703" y="247.21" width="1.60561" height="6.76368" fill="#9E7E43"/>
<rect x="254.914" y="247.21" width="1.92673" height="6.76368" fill="#9E7E43"/>
<rect x="258.446" y="247.676" width="1.92673" height="6.29722" fill="#9E7E43"/>
<rect x="262.3" y="248.142" width="1.60561" height="5.83076" fill="#9E7E43"/>
<rect x="265.511" y="248.609" width="1.92673" height="5.36429" fill="#9E7E43"/>
<rect x="269.043" y="249.075" width="1.60561" height="4.89783" fill="#9E7E43"/>
<rect x="235.005" y="253.507" width="35.3235" height="2.09907" fill="#B18246"/>
<path d="M440.398 248.437H438.827V244.799H439.184V244.211H439.469V235.652C439.412 235.481 439.16 235.296 439.041 235.224H440.398C440.112 235.267 439.898 235.527 439.826 235.652V244.211H440.041V244.799H440.398V248.437Z" fill="#575254"/>
<path d="M440.897 234.623C440.735 234.667 440.334 235.042 440.153 235.224H439.612V232.764H440.897V234.623Z" fill="#FCE6A8"/>
<path d="M438.47 232.764H439.684V235.224H439.113C439.113 235.096 438.684 234.743 438.47 234.582V232.764Z" fill="#FADB80"/>
<path d="M438.47 232.763L438.184 232.603H441.111L440.897 232.763H438.47Z" fill="#AEA466"/>
<path d="M438.47 232.389V232.603H440.826V232.389H440.54V232.015H440.041V231.426H439.255V232.015H438.684V232.389H438.47Z" fill="#554F53"/>
<path d="M429.016 246.888V246.408H414.358V246.888H429.016Z" fill="#956B40"/>
<path d="M413.301 244.379H412.773V243.898H414.358V248.437H413.301V244.379Z" fill="#BB894B"/>
<path d="M429.94 244.325H430.468V243.845H428.883V248.383H429.94V244.325Z" fill="#BB894B"/>
<rect x="414.358" y="243.952" width="14.5255" height="0.42712" fill="#B18246"/>
<rect x="414.358" y="242.991" width="0.660252" height="2.24238" fill="#9E7E43"/>
<rect x="415.678" y="242.777" width="0.660252" height="2.45594" fill="#9E7E43"/>
<rect x="416.999" y="242.563" width="0.660252" height="2.6695" fill="#9E7E43"/>
<rect x="418.451" y="242.35" width="0.660252" height="2.88306" fill="#9E7E43"/>
<rect x="419.904" y="242.136" width="0.660252" height="3.09662" fill="#9E7E43"/>
<rect x="421.225" y="242.136" width="0.660252" height="3.09662" fill="#9E7E43"/>
<rect x="422.545" y="242.136" width="0.792302" height="3.09662" fill="#9E7E43"/>
<rect x="423.997" y="242.35" width="0.792302" height="2.88306" fill="#9E7E43"/>
<rect x="425.582" y="242.563" width="0.660252" height="2.6695" fill="#9E7E43"/>
<rect x="426.903" y="242.777" width="0.792302" height="2.45594" fill="#9E7E43"/>
<rect x="428.355" y="242.991" width="0.660252" height="2.24238" fill="#9E7E43"/>
<rect x="414.358" y="245.02" width="14.5255" height="0.961021" fill="#B18246"/>
<path d="M692.119 269.028H688.906V264.146H689.636V263.356H690.22V251.87C690.104 251.64 689.588 251.391 689.344 251.295H692.119C691.535 251.353 691.097 251.702 690.951 251.87V263.356H691.389V264.146H692.119V269.028Z" fill="#575254"/>
<path d="M693.141 250.488C692.809 250.547 691.988 251.051 691.619 251.295H690.513V247.993H693.141V250.488Z" fill="#FCE6A8"/>
<path d="M688.176 247.993H690.658V251.295H689.49C689.49 251.123 688.614 250.649 688.176 250.434V247.993Z" fill="#FADB80"/>
<path d="M688.176 247.993L687.592 247.778H693.579L693.141 247.993H688.176Z" fill="#AEA466"/>
<path d="M688.176 247.491V247.778H692.995V247.491H692.411V246.988H691.388V246.198H689.782V246.988H688.614V247.491H688.176Z" fill="#554F53"/>
<path d="M668.837 266.95V266.305H638.856V266.95H668.837Z" fill="#956B40"/>
<path d="M636.695 263.582H635.615V262.937H638.856V269.028H636.695V263.582Z" fill="#BB894B"/>
<path d="M670.728 263.51H671.808V262.865H668.567V268.956H670.728V263.51Z" fill="#BB894B"/>
<rect x="638.856" y="263.009" width="29.7113" height="0.573241" fill="#B18246"/>
<rect x="638.856" y="261.719" width="1.35052" height="3.00951" fill="#9E7E43"/>
<rect x="641.557" y="261.432" width="1.35052" height="3.29613" fill="#9E7E43"/>
<rect x="644.258" y="261.145" width="1.35052" height="3.58275" fill="#9E7E43"/>
<rect x="647.229" y="260.859" width="1.35052" height="3.86937" fill="#9E7E43"/>
<rect x="650.2" y="260.572" width="1.35052" height="4.15599" fill="#9E7E43"/>
<rect x="652.901" y="260.572" width="1.35052" height="4.15599" fill="#9E7E43"/>
<rect x="655.602" y="260.572" width="1.62062" height="4.15599" fill="#9E7E43"/>
<rect x="658.573" y="260.859" width="1.62062" height="3.86937" fill="#9E7E43"/>
<rect x="661.815" y="261.145" width="1.35052" height="3.58275" fill="#9E7E43"/>
<rect x="664.516" y="261.432" width="1.62062" height="3.29613" fill="#9E7E43"/>
<rect x="667.487" y="261.719" width="1.35052" height="3.00951" fill="#9E7E43"/>
<rect x="638.856" y="264.441" width="29.7113" height="1.28979" fill="#B18246"/>
<path d="M156.983 244.855H155.341V242.175H155.714V241.742H156.013V235.435C155.953 235.309 155.689 235.173 155.565 235.12H156.983C156.685 235.152 156.461 235.343 156.386 235.435V241.742H156.61V242.175H156.983V244.855Z" fill="#575254"/>
<path d="M157.506 234.677C157.336 234.709 156.917 234.986 156.728 235.12H156.162V233.307H157.506V234.677Z" fill="#FCE6A8"/>
<path d="M154.968 233.307H156.237V235.12H155.64C155.64 235.026 155.192 234.765 154.968 234.647V233.307Z" fill="#FADB80"/>
<path d="M154.968 233.307L154.669 233.189H157.729L157.506 233.307H154.968Z" fill="#AEA466"/>
<path d="M154.968 233.031V233.189H157.431V233.031H157.133V232.755H156.61V232.322H155.789V232.755H155.192V233.031H154.968Z" fill="#554F53"/>
<path d="M145.084 243.715V243.361H129.76V243.715H145.084Z" fill="#956B40"/>
<path d="M128.655 241.866H128.103V241.511H129.76V244.855H128.655V241.866Z" fill="#BB894B"/>
<path d="M146.05 241.826H146.602V241.472H144.946V244.816H146.05V241.826Z" fill="#BB894B"/>
<rect x="129.76" y="241.551" width="15.1858" height="0.31472" fill="#B18246"/>
<rect x="129.76" y="240.843" width="0.690263" height="1.65228" fill="#9E7E43"/>
<rect x="131.14" y="240.686" width="0.690263" height="1.80964" fill="#9E7E43"/>
<rect x="132.521" y="240.528" width="0.690263" height="1.967" fill="#9E7E43"/>
<rect x="134.039" y="240.371" width="0.690263" height="2.12436" fill="#9E7E43"/>
<rect x="135.558" y="240.213" width="0.690263" height="2.28172" fill="#9E7E43"/>
<rect x="136.938" y="240.213" width="0.690263" height="2.28172" fill="#9E7E43"/>
<rect x="138.319" y="240.213" width="0.828316" height="2.28172" fill="#9E7E43"/>
<rect x="139.838" y="240.371" width="0.828316" height="2.12436" fill="#9E7E43"/>
<rect x="141.494" y="240.528" width="0.690263" height="1.967" fill="#9E7E43"/>
<rect x="142.875" y="240.686" width="0.828316" height="1.80964" fill="#9E7E43"/>
<rect x="144.393" y="240.843" width="0.690263" height="1.65228" fill="#9E7E43"/>
<rect x="129.76" y="242.338" width="15.1858" height="0.708121" fill="#B18246"/>
<path d="M898.929 254.256H897.287V251.576H897.66V251.142H897.958V244.836C897.899 244.71 897.635 244.573 897.511 244.521H898.929C898.63 244.552 898.406 244.744 898.332 244.836V251.142H898.555V251.576H898.929V254.256Z" fill="#575254"/>
<path d="M899.451 244.077C899.281 244.109 898.862 244.386 898.673 244.52H898.108V242.707H899.451V244.077Z" fill="#FCE6A8"/>
<path d="M896.913 242.707H898.182V244.52H897.585C897.585 244.426 897.137 244.166 896.913 244.047V242.707Z" fill="#FADB80"/>
<path d="M896.913 242.707L896.615 242.589H899.675L899.451 242.707H896.913Z" fill="#AEA466"/>
<path d="M896.913 242.432V242.589H899.376V242.432H899.078V242.156H898.555V241.722H897.734V242.156H897.137V242.432H896.913Z" fill="#554F53"/>
<path d="M887.029 253.115V252.761H871.705V253.115H887.029Z" fill="#956B40"/>
<path d="M870.601 251.266H870.049V250.912H871.705V254.256H870.601V251.266Z" fill="#BB894B"/>
<path d="M887.996 251.227H888.548V250.873H886.891V254.216H887.996V251.227Z" fill="#BB894B"/>
<rect x="871.705" y="250.951" width="15.1858" height="0.31472" fill="#B18246"/>
<rect x="871.705" y="250.243" width="0.690263" height="1.65228" fill="#9E7E43"/>
<rect x="873.086" y="250.086" width="0.690263" height="1.80964" fill="#9E7E43"/>
<rect x="874.466" y="249.928" width="0.690263" height="1.967" fill="#9E7E43"/>
<rect x="875.985" y="249.771" width="0.690263" height="2.12436" fill="#9E7E43"/>
<rect x="877.504" y="249.614" width="0.690263" height="2.28172" fill="#9E7E43"/>
<rect x="878.884" y="249.614" width="0.690263" height="2.28172" fill="#9E7E43"/>
<rect x="880.265" y="249.614" width="0.828316" height="2.28172" fill="#9E7E43"/>
<rect x="881.783" y="249.771" width="0.828316" height="2.12436" fill="#9E7E43"/>
<rect x="883.44" y="249.928" width="0.690263" height="1.967" fill="#9E7E43"/>
<rect x="884.82" y="250.086" width="0.828316" height="1.80964" fill="#9E7E43"/>
<rect x="886.339" y="250.243" width="0.690263" height="1.65228" fill="#9E7E43"/>
<rect x="871.705" y="251.738" width="15.1858" height="0.708121" fill="#B18246"/>
<path d="M89.6936 255.598H87.3734V251.195H87.9007V250.483H88.3226V240.123C88.2382 239.916 87.8656 239.691 87.6898 239.605H89.6936C89.2717 239.657 88.9553 239.972 88.8499 240.123V250.483H89.1663V251.195H89.6936V255.598Z" fill="#575254"/>
<path d="M90.432 238.877C90.1922 238.93 89.5994 239.384 89.333 239.605H88.5337V236.626H90.432V238.877Z" fill="#FCE6A8"/>
<path d="M86.8462 236.626H88.639V239.605H87.7953C87.7953 239.449 87.1626 239.022 86.8462 238.828V236.626Z" fill="#FADB80"/>
<path d="M86.8462 236.626L86.4243 236.432H90.7482L90.4318 236.626H86.8462Z" fill="#AEA466"/>
<path d="M86.8462 236.173V236.432H90.3264V236.173H89.9046V235.72H89.1663V235.008H88.0063V235.72H87.1626V236.173H86.8462Z" fill="#554F53"/>
<path d="M72.879 253.724V253.143H51.2257V253.724H72.879Z" fill="#956B40"/>
<path d="M49.6654 250.687H48.8851V250.105H51.226V255.599H49.6654V250.687Z" fill="#BB894B"/>
<path d="M74.2446 250.622H75.0249V250.041H72.684V255.534H74.2446V250.622Z" fill="#BB894B"/>
<rect x="51.2257" y="250.17" width="21.4582" height="0.51704" fill="#B18246"/>
<rect x="51.2257" y="249.007" width="0.975372" height="2.71446" fill="#9E7E43"/>
<rect x="53.1764" y="248.748" width="0.975372" height="2.97298" fill="#9E7E43"/>
<rect x="55.1273" y="248.49" width="0.975372" height="3.2315" fill="#9E7E43"/>
<rect x="57.2731" y="248.231" width="0.975372" height="3.49002" fill="#9E7E43"/>
<rect x="59.4189" y="247.972" width="0.975372" height="3.74854" fill="#9E7E43"/>
<rect x="61.3696" y="247.972" width="0.975372" height="3.74854" fill="#9E7E43"/>
<rect x="63.3203" y="247.972" width="1.17045" height="3.74854" fill="#9E7E43"/>
<rect x="65.4663" y="248.231" width="1.17045" height="3.49002" fill="#9E7E43"/>
<rect x="67.8071" y="248.49" width="0.975372" height="3.2315" fill="#9E7E43"/>
<rect x="69.7579" y="248.748" width="1.17045" height="2.97298" fill="#9E7E43"/>
<rect x="71.9037" y="249.007" width="0.975372" height="2.71446" fill="#9E7E43"/>
<rect x="51.2257" y="251.462" width="21.4582" height="1.16334" fill="#B18246"/>
<path d="M606.618 243.535C602.906 237.001 609 233.298 612.512 232.264C615.521 224.031 625.888 223.334 630.696 224.015C640.427 225.517 642.275 231.719 641.982 234.632C651.513 240.644 645.954 246.72 641.982 249.007C632.552 253.711 624.091 250.205 621.039 247.863C613.013 248.648 608.081 245.304 606.618 243.535Z" fill="#9DBD4A"/>
<path d="M619.66 241.166C610.831 242.015 607.203 238.09 606.492 236.021C603.883 239.876 606.325 243.398 607.871 244.678C611.684 248.337 617.988 248.217 620.663 247.7C631.598 254.038 640.435 250.64 643.487 248.108C649.005 244.972 647.124 239.696 645.493 237.491C643.286 239.908 640.561 241.765 639.474 242.391C630.946 246.769 622.711 243.398 619.66 241.166Z" fill="#87A342"/>
<path d="M626.683 264.198H623.422L623.924 252.682C621.215 250.069 619.952 247.455 619.66 246.475H620.036C620.036 247.52 622.21 250.123 623.297 251.294C623.397 251.555 624.007 251.512 624.3 251.457V245.413C624.701 245.413 624.802 245.25 624.802 245.168H625.679C625.679 245.299 625.93 245.386 626.056 245.413C626.056 246.524 626.39 247.074 626.557 247.21V247.945C626.357 248.01 626.223 248.354 626.181 248.517C625.98 253.287 626.097 254.751 626.181 254.887C629.793 252.797 630.194 250.586 629.943 249.742H630.319C631.222 251.506 627.853 254.887 626.056 256.358C625.955 259.167 626.432 262.755 626.683 264.198Z" fill="#805E46"/>
<path d="M937.594 242.99C939.705 238.862 936.239 236.522 934.242 235.868C932.53 230.667 926.634 230.226 923.9 230.656C918.366 231.606 917.315 235.524 917.481 237.365C912.061 241.163 915.223 245.003 917.481 246.448C922.845 249.42 927.657 247.205 929.392 245.725C933.957 246.221 936.762 244.108 937.594 242.99Z" fill="#9DBD4A"/>
<path d="M930.177 241.493C935.198 242.03 937.261 239.55 937.666 238.242C939.149 240.678 937.761 242.904 936.881 243.712C934.713 246.024 931.128 245.949 929.606 245.622C923.387 249.626 918.361 247.48 916.625 245.88C913.487 243.898 914.557 240.564 915.484 239.171C916.74 240.699 918.29 241.872 918.908 242.267C923.758 245.034 928.441 242.904 930.177 241.493Z" fill="#87A342"/>
<path d="M926.183 256.046H928.037L927.752 248.77C929.292 247.119 930.01 245.467 930.177 244.848H929.963C929.963 245.508 928.726 247.153 928.108 247.893C928.051 248.058 927.704 248.03 927.538 247.996V244.177C927.31 244.177 927.252 244.074 927.252 244.022H926.753C926.753 244.105 926.611 244.16 926.539 244.177C926.539 244.879 926.349 245.226 926.254 245.312V245.777C926.368 245.818 926.444 246.035 926.468 246.138C926.582 249.152 926.515 250.077 926.468 250.163C924.414 248.842 924.186 247.445 924.328 246.912H924.114C923.601 248.027 925.517 250.163 926.539 251.092C926.596 252.867 926.325 255.135 926.183 256.046Z" fill="#805E46"/>
<path d="M736.004 249.045C723.677 250.04 719.761 241.506 719.343 237.115C722.75 242.426 728.529 243.477 730.993 243.339C738.509 242.924 742.893 243.789 744.146 244.273C755.771 246.679 760.18 239.051 760.932 234.936C762.235 240.995 758.552 245.483 756.547 246.97C748.43 253.277 739.469 250.981 736.004 249.045Z" fill="#87A342"/>
<path d="M741.515 268.132H738.384L738.76 254.439C737.177 252.364 735.595 249.356 735.002 248.111H735.503C736.304 250.601 738.175 252.053 739.01 252.468L739.261 246.659H740.889V249.667C741.891 249.771 743.269 247.074 743.269 247.592C743.269 248.007 741.682 249.563 740.889 250.29C740.388 256.514 741.098 264.778 741.515 268.132Z" fill="#867046"/>
<path d="M732.997 224.978C721.974 225.724 719.259 233.623 719.343 237.358C722.45 242.503 727.652 243.582 729.865 243.478C737.782 242.98 741.599 243.893 742.392 244.308C755.32 248.126 760.138 239.744 760.932 235.179C760.431 231.445 757.758 228.747 756.547 227.986C756.046 223.504 752.414 220.932 750.66 220.206C741.24 216.388 734.96 221.796 732.997 224.978Z" fill="#9DBD4A"/>
<path d="M550.661 245.499C540.61 246.259 537.417 239.742 537.076 236.389C539.855 240.445 544.567 241.248 546.575 241.142C552.704 240.825 556.279 241.485 557.3 241.855C566.779 243.693 570.374 237.868 570.987 234.725C572.05 239.352 569.047 242.779 567.412 243.915C560.794 248.731 553.487 246.978 550.661 245.499Z" fill="#87A342"/>
<path d="M555.155 260.075H552.602L552.908 249.618C551.618 248.034 550.328 245.737 549.844 244.786H550.253C550.906 246.687 552.432 247.796 553.113 248.113L553.317 243.677H554.645V245.974C555.462 246.054 556.585 243.994 556.585 244.39C556.585 244.707 555.292 245.895 554.645 246.45C554.236 251.203 554.815 257.514 555.155 260.075Z" fill="#867046"/>
<path d="M548.21 227.12C539.221 227.691 537.008 233.723 537.076 236.574C539.61 240.504 543.852 241.327 545.656 241.248C552.112 240.868 555.224 241.565 555.87 241.882C566.411 244.797 570.34 238.396 570.987 234.911C570.579 232.059 568.4 229.999 567.412 229.418C567.004 225.995 564.042 224.031 562.612 223.476C554.931 220.561 549.81 224.691 548.21 227.12Z" fill="#9DBD4A"/>
<path d="M818.077 269.923H814.258V261.978H815.126V260.693H815.82V241.999C815.681 241.626 815.068 241.22 814.778 241.065H818.077C817.382 241.158 816.862 241.727 816.688 241.999V260.693H817.209V261.978H818.077V269.923Z" fill="#575254"/>
<path d="M819.292 239.751C818.898 239.846 817.922 240.666 817.483 241.064H816.167V235.69H819.292V239.751Z" fill="#FCE6A8"/>
<path d="M813.39 235.69H816.341V241.064H814.952C814.952 240.784 813.91 240.013 813.39 239.662V235.69Z" fill="#FADB80"/>
<path d="M813.39 235.69L812.695 235.34H819.813L819.292 235.69H813.39Z" fill="#AEA466"/>
<path d="M813.39 234.873V235.34H819.119V234.873H818.424V234.055H817.209V232.77H815.299V234.055H813.91V234.873H813.39Z" fill="#554F53"/>
<path d="M790.398 266.541V265.492H754.753V266.541H790.398Z" fill="#956B40"/>
<path d="M752.184 261.06H750.9V260.011H754.753V269.923H752.184V261.06Z" fill="#BB894B"/>
<path d="M792.646 260.944H793.93V259.894H790.077V269.806H792.646V260.944Z" fill="#BB894B"/>
<rect x="754.753" y="260.127" width="35.3235" height="0.932921" fill="#B18246"/>
<rect x="754.753" y="258.028" width="1.60561" height="4.89783" fill="#9E7E43"/>
<rect x="757.964" y="257.562" width="1.60561" height="5.36429" fill="#9E7E43"/>
<rect x="761.175" y="257.096" width="1.60561" height="5.83076" fill="#9E7E43"/>
<rect x="764.708" y="256.629" width="1.60561" height="6.29722" fill="#9E7E43"/>
<rect x="768.24" y="256.163" width="1.60561" height="6.76368" fill="#9E7E43"/>
<rect x="771.451" y="256.163" width="1.60561" height="6.76368" fill="#9E7E43"/>
<rect x="774.663" y="256.163" width="1.92673" height="6.76368" fill="#9E7E43"/>
<rect x="778.195" y="256.629" width="1.92673" height="6.29722" fill="#9E7E43"/>
<rect x="782.048" y="257.096" width="1.60561" height="5.83076" fill="#9E7E43"/>
<rect x="785.26" y="257.562" width="1.92673" height="5.36429" fill="#9E7E43"/>
<rect x="788.792" y="258.028" width="1.60561" height="4.89783" fill="#9E7E43"/>
<rect x="754.753" y="262.459" width="35.3235" height="2.09907" fill="#B18246"/>
<rect width="956.772" height="238.8" transform="matrix(-1 0 0 1 1916.77 0.600098)" fill="#FAFAFA"/>
<path d="M1918.39 239.4V56.9998C1869.21 82.2551 1830.71 89.3485 1817.61 89.7382C1792.62 90.6736 1770.24 96.3639 1762.18 99.0921C1750.09 104.237 1742.36 103.574 1740.01 102.6C1662.62 113.357 1624.45 102.405 1615.05 95.5844C1585.22 74.0705 1558.95 79.6049 1549.54 85.0613C1533.42 81.7874 1520.65 86.4254 1516.29 89.1536C1507.42 93.8305 1472.28 95.3895 1455.82 95.5844C1383.26 88.569 1252.92 92.6613 1196.83 95.5844C1079.92 103.067 990.233 72.9792 960 56.9998V239.4H1918.39Z" fill="#85DAEF"/>
<path d="M1701.76 147.871H1792.54C1788.92 144.068 1782.55 144.495 1779.81 145.184C1776.65 141.381 1767.56 141.395 1763.41 141.877C1752.55 132.287 1741.35 137.055 1737.11 140.637C1728.62 138.364 1727.49 143.324 1727.21 142.911C1726.98 142.58 1725.99 142.773 1725.51 142.911C1719.86 140.596 1715.05 142.911 1713.35 144.358C1706.34 142.373 1703.45 145.184 1702.89 146.838C1701.76 147.003 1701.66 147.596 1701.76 147.871Z" fill="#E2EDE8"/>
<path d="M1194.25 142.052H1284.39C1280.79 138.249 1274.46 138.676 1271.75 139.365C1268.6 135.562 1259.58 135.576 1255.46 136.058C1244.68 126.467 1233.56 131.235 1229.35 134.818C1220.92 132.544 1219.8 137.505 1219.52 137.091C1219.29 136.761 1218.3 136.954 1217.83 137.091C1212.22 134.776 1207.44 137.091 1205.76 138.538C1198.79 136.554 1195.93 139.365 1195.37 141.019C1194.25 141.184 1194.15 141.776 1194.25 142.052Z" fill="#E2EDE8"/>
<path d="M1395.19 113.851H1497.57C1493.48 109.317 1486.3 109.826 1483.21 110.647C1479.64 106.113 1469.39 106.129 1464.72 106.704C1452.47 95.2696 1439.84 100.954 1435.06 105.226C1425.49 102.515 1424.21 108.43 1423.9 107.937C1423.64 107.542 1422.51 107.772 1421.98 107.937C1415.6 105.177 1410.18 107.937 1408.27 109.662C1400.36 107.296 1397.11 110.648 1396.47 112.619C1395.19 112.816 1395.09 113.523 1395.19 113.851Z" fill="#E2EDE8"/>
<path d="M1817.63 82.3229H1920C1915.92 77.7885 1908.73 78.2977 1905.65 79.1191C1902.08 74.5846 1891.83 74.6011 1887.15 75.1761C1874.9 63.7413 1862.28 69.4259 1857.49 73.6975C1847.92 70.9867 1846.65 76.9012 1846.33 76.4083C1846.07 76.014 1844.95 76.244 1844.42 76.4083C1838.04 73.6482 1832.62 76.4084 1830.7 78.1334C1822.79 75.7676 1819.54 79.1192 1818.9 81.0907C1817.63 81.2879 1817.52 81.9943 1817.63 82.3229Z" fill="#E2EDE8"/>
<path d="M1058.02 101.12C1049.28 93.0818 1024.22 93.1109 1012.79 94.1303C993.875 81.3286 974.59 80.6305 960 83.7615V106.8H1093.11C1083.13 98.7615 1065.56 99.6642 1058.02 101.12Z" fill="#E2EDE8"/>
<path d="M1407.05 238.723V143.605H1387.14V204.363H1352.78V168.584H1310.81V180.474H1267.47V206.98H1255.76V170.766H1213.79V135.533H1172.2V180.474H1157.37V192.582H1143.9V160.622H1113.83V186.364H1093.92V133.57C1077.68 115.157 1060.6 125.898 1054.1 133.57V198.909H1021.3V185.165H1010.37V172.62H989.673V189.419H975.617V156.586H960.781V238.723H1407.05Z" fill="#DCEAE3"/>
<path d="M1438.87 238.723V160.294L1428.33 160.185V158.658H1422.08V160.294H1416.23V143.605H1406.47V235.887H1326.43V168.366H1296.56V178.947H1293.04V177.747H1289.34V178.947H1267.08V235.887H1254.2L1255.95 171.311H1246.19V233.16H1226.87V171.311H1224.33V170.22H1216.91V171.311H1212.81V135.097H1203.83V233.16H1181.18V135.097H1172.4V180.365H1166.74V179.929H1160.88V180.365H1158.15V233.16H1121.64L1122.62 160.185H1113.05L1111.88 233.16H1055.07V198.799H1027.94V233.16H1014.66V184.728H1010.17V172.838H990.064V190.4H981.865V232.505H960V238.723H1438.87Z" fill="#D3E6DC"/>
<path d="M1884.92 238.723V143.605H1865.01V204.363H1830.65V168.584H1788.68V180.474H1745.34V206.98H1733.62V170.766H1691.65V135.533H1650.07V180.474H1635.23V192.582H1621.76V160.622H1591.7V186.364H1571.79V133.57C1555.54 115.157 1538.47 125.898 1531.96 133.57V198.909H1499.16V185.165H1488.23V172.62H1467.54V189.419H1453.48V156.586H1438.65V238.723H1884.92Z" fill="#DCEAE3"/>
<path d="M1916.74 238.723V160.294L1906.2 160.185V158.658H1899.95V160.294H1894.09V143.605H1884.33V235.887H1804.29V168.366H1774.42V178.947H1770.91V177.747H1767.2V178.947H1744.95V235.887H1732.06L1733.82 171.311H1724.06V233.16H1704.73V171.311H1702.19V170.22H1694.77V171.311H1690.68V135.097H1681.7V233.16H1659.05V135.097H1650.26V180.365H1644.6V179.929H1638.75V180.365H1636.01V233.16H1599.51L1600.48 160.185H1590.92L1589.75 233.16H1532.94V198.799H1505.8V233.16H1492.53V184.728H1488.04V172.838H1467.93V190.4H1459.73V232.505H1437.87V238.723H1916.74Z" fill="#D3E6DC"/>
<path d="M1464.4 240.084C1584.45 232.564 1816.05 236.951 1916.84 240.084C1855.53 315.286 1753.68 296.635 1710.42 277.909C1675.9 253.379 1546.41 267.688 1485.97 277.909C1435.99 293.308 1329.68 289.548 1282.78 285.743C1231.25 269.628 1118.97 267.24 1069.27 268.061C956.693 270.389 952.592 250.38 964.615 240.084C937.565 228.087 1045.66 228.52 1103.09 230.236C1121.12 241.695 1351.47 241.576 1464.4 240.084Z" fill="#A8CB45"/>
<path d="M1765.17 170.477H1767.42C1764.33 169.403 1763.99 168.09 1764.2 167.567C1767.55 164.165 1774.61 160.48 1777.73 159.062C1772.83 160.137 1765.38 163.837 1762.27 165.553C1760.72 166.448 1759.69 165.926 1759.37 165.553C1758.08 164.3 1757.33 165.031 1757.12 165.553C1751.97 164.3 1748.32 165.478 1747.14 166.224C1751.51 166.224 1756.47 166.821 1758.41 167.12C1758.73 168.463 1760.34 168.239 1760.98 168.463C1761.5 168.642 1763.34 170.775 1764.2 171.82L1765.17 170.477Z" fill="black" stroke="black"/>
<path d="M1589.02 194.35C1593.14 191.486 1598.9 191.665 1601.26 192.112C1595.85 188.71 1590.2 191.142 1588.06 192.784C1587.28 193.858 1584.73 193.231 1583.55 192.784C1576.33 191.53 1573.46 193.306 1572.92 194.35C1578.59 191.665 1583.44 193.828 1585.16 195.246L1586.44 196.365C1588.91 196.812 1593.34 197.439 1591.28 196.365C1589.21 195.29 1588.91 194.574 1589.02 194.35Z" fill="black" stroke="black"/>
<path d="M1469.55 145.304H1475.02C1471.93 144.051 1473.09 143.14 1474.06 142.842C1476.38 140.872 1479.75 141.275 1481.14 141.723C1485.26 142.26 1486.51 140.902 1486.62 140.156C1484.04 140.693 1481.04 140.38 1479.85 140.156C1476.25 138.365 1473.41 140.454 1472.45 141.723H1470.52C1464.85 138.142 1462.36 138.739 1461.82 139.485C1463.88 138.768 1467.4 140.678 1468.91 141.723C1467.36 142.797 1468.26 143.364 1468.91 143.513L1469.55 145.304Z" fill="black" stroke="black"/>
<path d="M1330.76 193.124C1331.53 191.512 1333.23 191.258 1333.98 191.333C1329.6 190.617 1331.51 189.543 1333.01 189.095C1332.24 186.946 1338.49 187.603 1341.71 188.2C1334.23 185.693 1331.29 187.155 1330.76 188.2C1329.47 189.811 1327.43 188.871 1326.57 188.2C1323.22 186.946 1322.6 190.96 1322.71 193.124C1327.54 184.395 1329.79 195.138 1330.76 193.124Z" fill="black" stroke="black"/>
<path d="M1247.35 169.362C1248.64 164.886 1254.54 166.303 1257.34 167.571C1255.79 163.99 1250.04 165.557 1247.35 166.452C1241.68 165.02 1239.84 166.079 1239.62 167.124C1245.03 166.049 1247.03 168.168 1247.35 169.362Z" fill="black" stroke="black"/>
<path d="M1833.13 235.182C1836.84 228.648 1830.75 224.946 1827.24 223.911C1824.23 215.678 1813.86 214.981 1809.05 215.662C1799.32 217.165 1797.47 223.366 1797.77 226.28C1788.24 232.291 1793.8 238.367 1797.77 240.654C1807.2 245.359 1815.66 241.852 1818.71 239.511C1826.74 240.295 1831.67 236.952 1833.13 235.182Z" fill="#9DBD4A"/>
<path d="M1820.09 232.814C1828.92 233.663 1832.55 229.737 1833.26 227.668C1835.87 231.523 1833.42 235.046 1831.88 236.326C1828.06 239.985 1821.76 239.865 1819.09 239.348C1808.15 245.686 1799.31 242.288 1796.26 239.756C1790.74 236.62 1792.62 231.344 1794.26 229.138C1796.46 231.556 1799.19 233.413 1800.27 234.039C1808.8 238.417 1817.04 235.046 1820.09 232.814Z" fill="#87A342"/>
<path d="M1813.07 255.845H1816.33L1815.83 244.329C1818.53 241.716 1819.8 239.102 1820.09 238.122H1819.71C1819.71 239.168 1817.54 241.77 1816.45 242.941C1816.35 243.202 1815.74 243.159 1815.45 243.104V237.06C1815.05 237.06 1814.95 236.897 1814.95 236.815H1814.07C1814.07 236.946 1813.82 237.033 1813.69 237.06C1813.69 238.171 1813.36 238.721 1813.19 238.857V239.592C1813.39 239.658 1813.53 240.001 1813.57 240.164C1813.77 244.934 1813.65 246.399 1813.57 246.535C1809.96 244.444 1809.55 242.233 1809.81 241.389H1809.43C1808.53 243.153 1811.9 246.535 1813.69 248.005C1813.79 250.814 1813.32 254.403 1813.07 255.845Z" fill="#805E46"/>
<path d="M1438.97 231.601C1442.68 225.067 1436.59 221.365 1433.08 220.33C1430.07 212.097 1419.7 211.4 1414.89 212.081C1405.16 213.584 1403.31 219.786 1403.61 222.699C1394.08 228.71 1399.64 234.786 1403.61 237.073C1413.04 241.778 1421.5 238.271 1424.55 235.93C1432.58 236.714 1437.51 233.371 1438.97 231.601Z" fill="#9DBD4A"/>
<path d="M1425.93 229.232C1434.76 230.082 1438.39 226.156 1439.1 224.087C1441.71 227.942 1439.27 231.465 1437.72 232.744C1433.91 236.403 1427.6 236.284 1424.93 235.766C1413.99 242.104 1405.15 238.707 1402.1 236.175C1396.59 233.038 1398.47 227.762 1400.1 225.557C1402.3 227.975 1405.03 229.831 1406.12 230.457C1414.64 234.835 1422.88 231.465 1425.93 229.232Z" fill="#87A342"/>
<path d="M1418.91 252.265H1422.17L1421.67 240.749C1424.38 238.135 1425.64 235.521 1425.93 234.541H1425.55C1425.55 235.587 1423.38 238.19 1422.29 239.36C1422.19 239.622 1421.58 239.578 1421.29 239.524V233.48C1420.89 233.48 1420.79 233.316 1420.79 233.235H1419.91C1419.91 233.365 1419.66 233.452 1419.53 233.48C1419.53 234.59 1419.2 235.14 1419.03 235.276V236.012C1419.23 236.077 1419.37 236.42 1419.41 236.583C1419.61 241.353 1419.49 242.818 1419.41 242.954C1415.8 240.863 1415.4 238.652 1415.65 237.808H1415.27C1414.37 239.573 1417.74 242.954 1419.53 244.424C1419.63 247.234 1419.16 250.822 1418.91 252.265Z" fill="#805E46"/>
<path d="M1502.15 234.638C1500.04 230.509 1503.51 228.17 1505.51 227.516C1507.22 222.314 1513.11 221.874 1515.85 222.304C1521.38 223.253 1522.43 227.172 1522.27 229.012C1527.69 232.811 1524.53 236.65 1522.27 238.095C1516.9 241.068 1512.09 238.852 1510.36 237.373C1505.79 237.868 1502.99 235.756 1502.15 234.638Z" fill="#9DBD4A"/>
<path d="M1509.57 233.141C1504.55 233.678 1502.49 231.197 1502.08 229.89C1500.6 232.326 1501.99 234.552 1502.87 235.36C1505.04 237.672 1508.62 237.596 1510.14 237.27C1516.36 241.274 1521.39 239.127 1523.12 237.528C1526.26 235.546 1525.19 232.212 1524.26 230.819C1523.01 232.346 1521.46 233.52 1520.84 233.915C1515.99 236.681 1511.31 234.552 1509.57 233.141Z" fill="#87A342"/>
<path d="M1513.57 247.694H1511.71L1512 240.417C1510.46 238.766 1509.74 237.114 1509.57 236.495H1509.79C1509.79 237.156 1511.02 238.8 1511.64 239.54C1511.7 239.705 1512.04 239.677 1512.21 239.643V235.824C1512.44 235.824 1512.5 235.721 1512.5 235.669H1513C1513 235.752 1513.14 235.807 1513.21 235.824C1513.21 236.526 1513.4 236.874 1513.49 236.96V237.424C1513.38 237.465 1513.3 237.682 1513.28 237.785C1513.17 240.799 1513.23 241.725 1513.28 241.811C1515.33 240.489 1515.56 239.093 1515.42 238.559H1515.63C1516.15 239.674 1514.23 241.811 1513.21 242.739C1513.15 244.515 1513.42 246.782 1513.57 247.694Z" fill="#805E46"/>
<path d="M1703.75 240.692C1716.07 241.688 1719.99 233.154 1720.41 228.762C1717 234.074 1711.22 235.125 1708.76 234.987C1701.24 234.572 1696.86 235.436 1695.6 235.92C1683.98 238.327 1679.57 230.699 1678.82 226.584C1677.51 232.642 1681.2 237.131 1683.2 238.618C1691.32 244.925 1700.28 242.629 1703.75 240.692Z" fill="#87A342"/>
<path d="M1698.23 259.78H1701.36L1700.99 246.086C1702.57 244.012 1704.15 241.003 1704.75 239.758H1704.25C1703.44 242.248 1701.57 243.7 1700.74 244.115L1700.49 238.306H1698.86V241.315C1697.86 241.418 1696.48 238.721 1696.48 239.24C1696.48 239.655 1698.07 241.211 1698.86 241.937C1699.36 248.161 1698.65 256.426 1698.23 259.78Z" fill="#867046"/>
<path d="M1706.75 216.625C1717.77 217.372 1720.49 225.271 1720.41 229.005C1717.3 234.151 1712.1 235.23 1709.88 235.126C1701.97 234.628 1698.15 235.541 1697.36 235.956C1684.43 239.773 1679.61 231.391 1678.82 226.827C1679.32 223.092 1681.99 220.394 1683.2 219.633C1683.7 215.152 1687.33 212.579 1689.09 211.853C1698.51 208.036 1704.79 213.444 1706.75 216.625Z" fill="#9DBD4A"/>
<path d="M1889.09 237.147C1899.14 237.907 1902.33 231.39 1902.67 228.037C1899.89 232.093 1895.18 232.895 1893.17 232.79C1887.04 232.473 1883.47 233.133 1882.45 233.503C1872.97 235.34 1869.37 229.515 1868.76 226.373C1867.7 230.999 1870.7 234.427 1872.34 235.562C1878.95 240.379 1886.26 238.625 1889.09 237.147Z" fill="#87A342"/>
<path d="M1884.59 251.723H1887.15L1886.84 241.266C1888.13 239.681 1889.42 237.384 1889.9 236.434H1889.5C1888.84 238.335 1887.32 239.444 1886.64 239.761L1886.43 235.324H1885.1V237.622C1884.29 237.701 1883.16 235.641 1883.16 236.037C1883.16 236.354 1884.46 237.543 1885.1 238.097C1885.51 242.85 1884.93 249.161 1884.59 251.723Z" fill="#867046"/>
<path d="M1891.54 218.768C1900.53 219.338 1902.74 225.37 1902.67 228.222C1900.14 232.151 1895.9 232.975 1894.09 232.896C1887.64 232.516 1884.52 233.213 1883.88 233.53C1873.34 236.445 1869.41 230.044 1868.76 226.558C1869.17 223.707 1871.35 221.646 1872.34 221.065C1872.74 217.643 1875.71 215.679 1877.14 215.124C1884.82 212.209 1889.94 216.339 1891.54 218.768Z" fill="#9DBD4A"/>
<path d="M1461.31 247.661C1470.98 248.34 1474.05 242.521 1474.38 239.527C1471.71 243.148 1467.17 243.865 1465.24 243.771C1459.34 243.488 1455.9 244.077 1454.92 244.407C1445.8 246.048 1442.34 240.847 1441.75 238.042C1440.73 242.172 1443.62 245.233 1445.19 246.246C1451.56 250.547 1458.59 248.981 1461.31 247.661Z" fill="#87A342"/>
<path d="M1456.98 260.675H1459.44L1459.14 251.339C1460.39 249.924 1461.63 247.873 1462.09 247.024H1461.7C1461.07 248.722 1459.6 249.712 1458.95 249.995L1458.75 246.034H1457.47V248.085C1456.69 248.156 1455.61 246.317 1455.61 246.671C1455.61 246.953 1456.85 248.014 1457.47 248.509C1457.87 252.753 1457.31 258.388 1456.98 260.675Z" fill="#867046"/>
<path d="M1463.67 231.251C1472.31 231.761 1474.44 237.146 1474.38 239.692C1471.94 243.201 1467.86 243.936 1466.12 243.866C1459.91 243.526 1456.92 244.148 1456.29 244.431C1446.15 247.034 1442.37 241.319 1441.75 238.207C1442.14 235.661 1444.24 233.821 1445.19 233.303C1445.58 230.247 1448.43 228.493 1449.81 227.998C1457.2 225.395 1462.13 229.082 1463.67 231.251Z" fill="#9DBD4A"/>
<path d="M1621.67 261.57H1625.49V253.626H1624.62V252.34H1623.93V233.647C1624.07 233.273 1624.68 232.868 1624.97 232.712H1621.67C1622.37 232.806 1622.89 233.374 1623.06 233.647V252.34H1622.54V253.626H1621.67V261.57Z" fill="#575254"/>
<path d="M1620.46 231.398C1620.85 231.494 1621.83 232.314 1622.27 232.712H1623.58V227.338H1620.46V231.398Z" fill="#FCE6A8"/>
<path d="M1626.36 227.338H1623.41V232.712H1624.8C1624.8 232.432 1625.84 231.661 1626.36 231.31V227.338Z" fill="#FADB80"/>
<path d="M1626.36 227.338L1627.05 226.987H1619.94L1620.46 227.338H1626.36Z" fill="#AEA466"/>
<path d="M1626.36 226.52V226.987H1620.63V226.52H1621.32V225.702H1622.54V224.417H1624.45V225.702H1625.84V226.52H1626.36Z" fill="#554F53"/>
<path d="M1649.35 258.188V257.139H1685V258.188H1649.35Z" fill="#956B40"/>
<path d="M1687.56 252.707H1688.85V251.658H1685V261.57H1687.56V252.707Z" fill="#BB894B"/>
<path d="M1647.1 252.591H1645.82V251.542H1649.67V261.454H1647.1V252.591Z" fill="#BB894B"/>
<rect width="35.3235" height="0.932921" transform="matrix(-1 0 0 1 1685 251.775)" fill="#B18246"/>
<rect width="1.60561" height="4.89783" transform="matrix(-1 0 0 1 1685 249.676)" fill="#9E7E43"/>
<rect width="1.60561" height="5.36429" transform="matrix(-1 0 0 1 1681.78 249.209)" fill="#9E7E43"/>
<rect width="1.60561" height="5.83076" transform="matrix(-1 0 0 1 1678.57 248.743)" fill="#9E7E43"/>
<rect width="1.60561" height="6.29722" transform="matrix(-1 0 0 1 1675.04 248.276)" fill="#9E7E43"/>
<rect width="1.60561" height="6.76368" transform="matrix(-1 0 0 1 1671.51 247.81)" fill="#9E7E43"/>
<rect width="1.60561" height="6.76368" transform="matrix(-1 0 0 1 1668.3 247.81)" fill="#9E7E43"/>
<rect width="1.92673" height="6.76368" transform="matrix(-1 0 0 1 1665.09 247.81)" fill="#9E7E43"/>
<rect width="1.92673" height="6.29722" transform="matrix(-1 0 0 1 1661.55 248.276)" fill="#9E7E43"/>
<rect width="1.60561" height="5.83076" transform="matrix(-1 0 0 1 1657.7 248.743)" fill="#9E7E43"/>
<rect width="1.92673" height="5.36429" transform="matrix(-1 0 0 1 1654.49 249.209)" fill="#9E7E43"/>
<rect width="1.60561" height="4.89783" transform="matrix(-1 0 0 1 1650.96 249.676)" fill="#9E7E43"/>
<rect width="35.3235" height="2.09907" transform="matrix(-1 0 0 1 1685 254.107)" fill="#B18246"/>
<path d="M1479.6 249.037H1481.17V245.4H1480.82V244.811H1480.53V236.253C1480.59 236.081 1480.84 235.896 1480.96 235.825H1479.6C1479.89 235.867 1480.1 236.128 1480.17 236.253V244.811H1479.96V245.4H1479.6V249.037Z" fill="#575254"/>
<path d="M1479.1 235.223C1479.26 235.267 1479.67 235.642 1479.85 235.825H1480.39V233.364H1479.1V235.223Z" fill="#FCE6A8"/>
<path d="M1481.53 233.364H1480.32V235.825H1480.89C1480.89 235.696 1481.32 235.343 1481.53 235.183V233.364Z" fill="#FADB80"/>
<path d="M1481.53 233.364L1481.82 233.203H1478.89L1479.1 233.364H1481.53Z" fill="#AEA466"/>
<path d="M1481.53 232.989V233.203H1479.17V232.989H1479.46V232.615H1479.96V232.027H1480.74V232.615H1481.32V232.989H1481.53Z" fill="#554F53"/>
<path d="M1490.98 247.488V247.008H1505.64V247.488H1490.98Z" fill="#956B40"/>
<path d="M1506.7 244.979H1507.23V244.499H1505.64V249.037H1506.7V244.979Z" fill="#BB894B"/>
<path d="M1490.06 244.926H1489.53V244.445H1491.12V248.983H1490.06V244.926Z" fill="#BB894B"/>
<rect width="14.5255" height="0.42712" transform="matrix(-1 0 0 1 1505.64 244.552)" fill="#B18246"/>
<rect width="0.660252" height="2.24238" transform="matrix(-1 0 0 1 1505.64 243.591)" fill="#9E7E43"/>
<rect width="0.660252" height="2.45594" transform="matrix(-1 0 0 1 1504.32 243.377)" fill="#9E7E43"/>
<rect width="0.660252" height="2.6695" transform="matrix(-1 0 0 1 1503 243.164)" fill="#9E7E43"/>
<rect width="0.660252" height="2.88306" transform="matrix(-1 0 0 1 1501.55 242.95)" fill="#9E7E43"/>
<rect width="0.660252" height="3.09662" transform="matrix(-1 0 0 1 1500.1 242.737)" fill="#9E7E43"/>
<rect width="0.660252" height="3.09662" transform="matrix(-1 0 0 1 1498.78 242.737)" fill="#9E7E43"/>
<rect width="0.792302" height="3.09662" transform="matrix(-1 0 0 1 1497.46 242.737)" fill="#9E7E43"/>
<rect width="0.792302" height="2.88306" transform="matrix(-1 0 0 1 1496 242.95)" fill="#9E7E43"/>
<rect width="0.660252" height="2.6695" transform="matrix(-1 0 0 1 1494.42 243.164)" fill="#9E7E43"/>
<rect width="0.792302" height="2.45594" transform="matrix(-1 0 0 1 1493.1 243.377)" fill="#9E7E43"/>
<rect width="0.660252" height="2.24238" transform="matrix(-1 0 0 1 1491.64 243.591)" fill="#9E7E43"/>
<rect width="14.5255" height="0.961021" transform="matrix(-1 0 0 1 1505.64 245.62)" fill="#B18246"/>
<path d="M1227.88 269.628H1231.09V264.746H1230.36V263.956H1229.78V252.47C1229.9 252.24 1230.41 251.991 1230.66 251.896H1227.88C1228.47 251.953 1228.9 252.302 1229.05 252.47V263.956H1228.61V264.746H1227.88V269.628Z" fill="#575254"/>
<path d="M1226.86 251.089C1227.19 251.147 1228.01 251.651 1228.38 251.896H1229.49V248.594H1226.86V251.089Z" fill="#FCE6A8"/>
<path d="M1231.82 248.594H1229.34V251.896H1230.51C1230.51 251.724 1231.39 251.25 1231.82 251.034V248.594Z" fill="#FADB80"/>
<path d="M1231.82 248.593L1232.41 248.378H1226.42L1226.86 248.593H1231.82Z" fill="#AEA466"/>
<path d="M1231.82 248.091V248.378H1227.01V248.091H1227.59V247.588H1228.61V246.798H1230.22V247.588H1231.39V248.091H1231.82Z" fill="#554F53"/>
<path d="M1251.16 267.55V266.905H1281.14V267.55H1251.16Z" fill="#956B40"/>
<path d="M1283.31 264.182H1284.39V263.537H1281.14V269.628H1283.31V264.182Z" fill="#BB894B"/>
<path d="M1249.27 264.11H1248.19V263.465H1251.43V269.556H1249.27V264.11Z" fill="#BB894B"/>
<rect width="29.7113" height="0.573241" transform="matrix(-1 0 0 1 1281.14 263.609)" fill="#B18246"/>
<rect width="1.35052" height="3.00951" transform="matrix(-1 0 0 1 1281.14 262.319)" fill="#9E7E43"/>
<rect width="1.35052" height="3.29613" transform="matrix(-1 0 0 1 1278.44 262.032)" fill="#9E7E43"/>
<rect width="1.35052" height="3.58275" transform="matrix(-1 0 0 1 1275.74 261.746)" fill="#9E7E43"/>
<rect width="1.35052" height="3.86937" transform="matrix(-1 0 0 1 1272.77 261.459)" fill="#9E7E43"/>
<rect width="1.35052" height="4.15599" transform="matrix(-1 0 0 1 1269.8 261.172)" fill="#9E7E43"/>
<rect width="1.35052" height="4.15599" transform="matrix(-1 0 0 1 1267.1 261.172)" fill="#9E7E43"/>
<rect width="1.62062" height="4.15599" transform="matrix(-1 0 0 1 1264.4 261.172)" fill="#9E7E43"/>
<rect width="1.62062" height="3.86937" transform="matrix(-1 0 0 1 1261.43 261.459)" fill="#9E7E43"/>
<rect width="1.35052" height="3.58275" transform="matrix(-1 0 0 1 1258.19 261.746)" fill="#9E7E43"/>
<rect width="1.62062" height="3.29613" transform="matrix(-1 0 0 1 1255.48 262.032)" fill="#9E7E43"/>
<rect width="1.35052" height="3.00951" transform="matrix(-1 0 0 1 1252.51 262.319)" fill="#9E7E43"/>
<rect width="29.7113" height="1.28979" transform="matrix(-1 0 0 1 1281.14 265.042)" fill="#B18246"/>
<path d="M1763.02 245.456H1764.66V242.776H1764.29V242.342H1763.99V236.036C1764.05 235.91 1764.31 235.773 1764.44 235.72H1763.02C1763.32 235.752 1763.54 235.944 1763.61 236.036V242.342H1763.39V242.776H1763.02V245.456Z" fill="#575254"/>
<path d="M1762.49 235.277C1762.66 235.309 1763.08 235.586 1763.27 235.72H1763.84V233.907H1762.49V235.277Z" fill="#FCE6A8"/>
<path d="M1765.03 233.907H1763.76V235.72H1764.36C1764.36 235.626 1764.81 235.366 1765.03 235.247V233.907Z" fill="#FADB80"/>
<path d="M1765.03 233.907L1765.33 233.789H1762.27L1762.49 233.907H1765.03Z" fill="#AEA466"/>
<path d="M1765.03 233.632V233.789H1762.57V233.632H1762.87V233.356H1763.39V232.922H1764.21V233.356H1764.81V233.632H1765.03Z" fill="#554F53"/>
<path d="M1774.92 244.315V243.961H1790.24V244.315H1774.92Z" fill="#956B40"/>
<path d="M1791.34 242.466H1791.9V242.112H1790.24V245.456H1791.34V242.466Z" fill="#BB894B"/>
<path d="M1773.95 242.427H1773.4V242.073H1775.05V245.416H1773.95V242.427Z" fill="#BB894B"/>
<rect width="15.1858" height="0.31472" transform="matrix(-1 0 0 1 1790.24 242.151)" fill="#B18246"/>
<rect width="0.690263" height="1.65228" transform="matrix(-1 0 0 1 1790.24 241.443)" fill="#9E7E43"/>
<rect width="0.690263" height="1.80964" transform="matrix(-1 0 0 1 1788.86 241.286)" fill="#9E7E43"/>
<rect width="0.690263" height="1.967" transform="matrix(-1 0 0 1 1787.48 241.128)" fill="#9E7E43"/>
<rect width="0.690263" height="2.12436" transform="matrix(-1 0 0 1 1785.96 240.971)" fill="#9E7E43"/>
<rect width="0.690263" height="2.28172" transform="matrix(-1 0 0 1 1784.44 240.813)" fill="#9E7E43"/>
<rect width="0.690263" height="2.28172" transform="matrix(-1 0 0 1 1783.06 240.813)" fill="#9E7E43"/>
<rect width="0.828316" height="2.28172" transform="matrix(-1 0 0 1 1781.68 240.813)" fill="#9E7E43"/>
<rect width="0.828316" height="2.12436" transform="matrix(-1 0 0 1 1780.16 240.971)" fill="#9E7E43"/>
<rect width="0.690263" height="1.967" transform="matrix(-1 0 0 1 1778.51 241.128)" fill="#9E7E43"/>
<rect width="0.828316" height="1.80964" transform="matrix(-1 0 0 1 1777.13 241.286)" fill="#9E7E43"/>
<rect width="0.690263" height="1.65228" transform="matrix(-1 0 0 1 1775.61 241.443)" fill="#9E7E43"/>
<rect width="15.1858" height="0.708121" transform="matrix(-1 0 0 1 1790.24 242.938)" fill="#B18246"/>
<path d="M1021.07 254.856H1022.71V252.176H1022.34V251.742H1022.04V245.436C1022.1 245.31 1022.37 245.173 1022.49 245.121H1021.07C1021.37 245.152 1021.59 245.344 1021.67 245.436V251.742H1021.44V252.176H1021.07V254.856Z" fill="#575254"/>
<path d="M1020.55 244.677C1020.72 244.71 1021.14 244.986 1021.33 245.121H1021.89V243.308H1020.55V244.677Z" fill="#FCE6A8"/>
<path d="M1023.09 243.308H1021.82V245.121H1022.41C1022.41 245.026 1022.86 244.766 1023.09 244.648V243.308Z" fill="#FADB80"/>
<path d="M1023.09 243.308L1023.39 243.189H1020.33L1020.55 243.308H1023.09Z" fill="#AEA466"/>
<path d="M1023.09 243.031V243.189H1020.62V243.031H1020.92V242.756H1021.44V242.322H1022.27V242.756H1022.86V243.031H1023.09Z" fill="#554F53"/>
<path d="M1032.97 253.715V253.361H1048.29V253.715H1032.97Z" fill="#956B40"/>
<path d="M1049.4 251.866H1049.95V251.512H1048.29V254.856H1049.4V251.866Z" fill="#BB894B"/>
<path d="M1032 251.826H1031.45V251.472H1033.11V254.816H1032V251.826Z" fill="#BB894B"/>
<rect width="15.1858" height="0.31472" transform="matrix(-1 0 0 1 1048.29 251.552)" fill="#B18246"/>
<rect width="0.690263" height="1.65228" transform="matrix(-1 0 0 1 1048.29 250.843)" fill="#9E7E43"/>
<rect width="0.690263" height="1.80964" transform="matrix(-1 0 0 1 1046.91 250.686)" fill="#9E7E43"/>
<rect width="0.690263" height="1.967" transform="matrix(-1 0 0 1 1045.53 250.529)" fill="#9E7E43"/>
<rect width="0.690263" height="2.12436" transform="matrix(-1 0 0 1 1044.01 250.371)" fill="#9E7E43"/>
<rect width="0.690263" height="2.28172" transform="matrix(-1 0 0 1 1042.5 250.214)" fill="#9E7E43"/>
<rect width="0.690263" height="2.28172" transform="matrix(-1 0 0 1 1041.12 250.214)" fill="#9E7E43"/>
<rect width="0.828316" height="2.28172" transform="matrix(-1 0 0 1 1039.74 250.214)" fill="#9E7E43"/>
<rect width="0.828316" height="2.12436" transform="matrix(-1 0 0 1 1038.22 250.371)" fill="#9E7E43"/>
<rect width="0.690263" height="1.967" transform="matrix(-1 0 0 1 1036.56 250.529)" fill="#9E7E43"/>
<rect width="0.828316" height="1.80964" transform="matrix(-1 0 0 1 1035.18 250.686)" fill="#9E7E43"/>
<rect width="0.690263" height="1.65228" transform="matrix(-1 0 0 1 1033.66 250.843)" fill="#9E7E43"/>
<rect width="15.1858" height="0.708121" transform="matrix(-1 0 0 1 1048.29 252.338)" fill="#B18246"/>
<path d="M1830.31 256.199H1832.63V251.795H1832.1V251.083H1831.68V240.723C1831.76 240.516 1832.13 240.291 1832.31 240.205H1830.31C1830.73 240.257 1831.04 240.572 1831.15 240.723V251.083H1830.83V251.795H1830.31V256.199Z" fill="#575254"/>
<path d="M1829.57 239.477C1829.81 239.53 1830.4 239.985 1830.67 240.205H1831.47V237.227H1829.57V239.477Z" fill="#FCE6A8"/>
<path d="M1833.15 237.227H1831.36V240.205H1832.2C1832.2 240.05 1832.84 239.622 1833.15 239.428V237.227Z" fill="#FADB80"/>
<path d="M1833.15 237.226L1833.58 237.032H1829.25L1829.57 237.226H1833.15Z" fill="#AEA466"/>
<path d="M1833.15 236.773V237.032H1829.67V236.773H1830.1V236.32H1830.83V235.608H1831.99V236.32H1832.84V236.773H1833.15Z" fill="#554F53"/>
<path d="M1847.12 254.325V253.743H1868.77V254.325H1847.12Z" fill="#956B40"/>
<path d="M1870.33 251.287H1871.12V250.705H1868.77V256.199H1870.33V251.287Z" fill="#BB894B"/>
<path d="M1845.76 251.222H1844.98V250.641H1847.32V256.134H1845.76V251.222Z" fill="#BB894B"/>
<rect width="21.4582" height="0.51704" transform="matrix(-1 0 0 1 1868.77 250.77)" fill="#B18246"/>
<rect width="0.975372" height="2.71446" transform="matrix(-1 0 0 1 1868.77 249.607)" fill="#9E7E43"/>
<rect width="0.975372" height="2.97298" transform="matrix(-1 0 0 1 1866.82 249.348)" fill="#9E7E43"/>
<rect width="0.975372" height="3.2315" transform="matrix(-1 0 0 1 1864.87 249.09)" fill="#9E7E43"/>
<rect width="0.975372" height="3.49002" transform="matrix(-1 0 0 1 1862.73 248.831)" fill="#9E7E43"/>
<rect width="0.975372" height="3.74854" transform="matrix(-1 0 0 1 1860.58 248.573)" fill="#9E7E43"/>
<rect width="0.975372" height="3.74854" transform="matrix(-1 0 0 1 1858.63 248.573)" fill="#9E7E43"/>
<rect width="1.17045" height="3.74854" transform="matrix(-1 0 0 1 1856.68 248.573)" fill="#9E7E43"/>
<rect width="1.17045" height="3.49002" transform="matrix(-1 0 0 1 1854.53 248.831)" fill="#9E7E43"/>
<rect width="0.975372" height="3.2315" transform="matrix(-1 0 0 1 1852.19 249.09)" fill="#9E7E43"/>
<rect width="1.17045" height="2.97298" transform="matrix(-1 0 0 1 1850.24 249.348)" fill="#9E7E43"/>
<rect width="0.975372" height="2.71446" transform="matrix(-1 0 0 1 1848.1 249.607)" fill="#9E7E43"/>
<rect width="21.4582" height="1.16334" transform="matrix(-1 0 0 1 1868.77 252.062)" fill="#B18246"/>
<path d="M1313.38 244.135C1317.09 237.601 1311 233.898 1307.49 232.864C1304.48 224.631 1294.11 223.934 1289.3 224.615C1279.57 226.117 1277.73 232.319 1278.02 235.232C1268.49 241.243 1274.05 247.32 1278.02 249.607C1287.45 254.311 1295.91 250.805 1298.96 248.463C1306.99 249.247 1311.92 245.904 1313.38 244.135Z" fill="#9DBD4A"/>
<path d="M1300.34 241.766C1309.17 242.616 1312.8 238.69 1313.51 236.621C1316.12 240.476 1313.68 243.999 1312.13 245.278C1308.32 248.937 1302.01 248.818 1299.34 248.3C1288.4 254.638 1279.56 251.241 1276.51 248.709C1271 245.572 1272.88 240.296 1274.51 238.091C1276.71 240.509 1279.44 242.365 1280.53 242.991C1289.05 247.369 1297.29 243.999 1300.34 241.766Z" fill="#87A342"/>
<path d="M1293.32 264.798H1296.58L1296.08 253.282C1298.79 250.669 1300.05 248.055 1300.34 247.075H1299.96C1299.96 248.12 1297.79 250.723 1296.7 251.894C1296.6 252.155 1295.99 252.111 1295.7 252.057V246.013C1295.3 246.013 1295.2 245.85 1295.2 245.768H1294.32C1294.32 245.899 1294.07 245.986 1293.94 246.013C1293.94 247.124 1293.61 247.674 1293.44 247.81V248.545C1293.64 248.61 1293.78 248.953 1293.82 249.117C1294.02 253.886 1293.9 255.351 1293.82 255.487C1290.21 253.396 1289.81 251.186 1290.06 250.342H1289.68C1288.78 252.106 1292.15 255.487 1293.94 256.957C1294.04 259.767 1293.57 263.355 1293.32 264.798Z" fill="#805E46"/>
<path d="M982.406 243.59C980.294 239.462 983.761 237.122 985.758 236.469C987.469 231.267 993.365 230.826 996.099 231.256C1001.63 232.206 1002.68 236.124 1002.52 237.965C1007.94 241.763 1004.78 245.603 1002.52 247.048C997.155 250.02 992.343 247.805 990.608 246.325C986.043 246.821 983.238 244.708 982.406 243.59Z" fill="#9DBD4A"/>
<path d="M989.823 242.094C984.802 242.63 982.739 240.15 982.335 238.843C980.851 241.278 982.239 243.504 983.119 244.313C985.287 246.625 988.872 246.549 990.394 246.222C996.613 250.227 1001.64 248.08 1003.37 246.48C1006.51 244.499 1005.44 241.165 1004.52 239.771C1003.26 241.299 1001.71 242.472 1001.09 242.868C996.242 245.634 991.559 243.504 989.823 242.094Z" fill="#87A342"/>
<path d="M993.817 256.647H991.963L992.248 249.37C990.708 247.719 989.99 246.068 989.823 245.448H990.037C990.037 246.109 991.274 247.753 991.892 248.493C991.949 248.658 992.296 248.631 992.462 248.596V244.777C992.691 244.777 992.748 244.674 992.748 244.623H993.247C993.247 244.705 993.39 244.76 993.461 244.777C993.461 245.479 993.651 245.827 993.746 245.913V246.377C993.632 246.418 993.556 246.635 993.532 246.738C993.418 249.752 993.485 250.678 993.532 250.764C995.586 249.443 995.814 248.046 995.672 247.512H995.886C996.399 248.627 994.483 250.764 993.461 251.693C993.404 253.468 993.675 255.735 993.817 256.647Z" fill="#805E46"/>
<path d="M1184 249.645C1196.32 250.641 1200.24 242.107 1200.66 237.715C1197.25 243.026 1191.47 244.078 1189.01 243.939C1181.49 243.524 1177.11 244.389 1175.85 244.873C1164.23 247.28 1159.82 239.652 1159.07 235.537C1157.77 241.595 1161.45 246.083 1163.45 247.57C1171.57 253.877 1180.53 251.581 1184 249.645Z" fill="#87A342"/>
<path d="M1178.48 268.732H1181.62L1181.24 255.039C1182.82 252.964 1184.41 249.956 1185 248.711H1184.5C1183.7 251.201 1181.83 252.653 1180.99 253.068L1180.74 247.259H1179.11V250.267C1178.11 250.371 1176.73 247.674 1176.73 248.192C1176.73 248.607 1178.32 250.163 1179.11 250.889C1179.61 257.114 1178.9 265.378 1178.48 268.732Z" fill="#867046"/>
<path d="M1187 225.578C1198.03 226.325 1200.74 234.223 1200.66 237.958C1197.55 243.103 1192.35 244.182 1190.13 244.078C1182.22 243.58 1178.4 244.493 1177.61 244.908C1164.68 248.726 1159.86 240.344 1159.07 235.779C1159.57 232.045 1162.24 229.347 1163.45 228.586C1163.95 224.105 1167.59 221.532 1169.34 220.806C1178.76 216.988 1185.04 222.396 1187 225.578Z" fill="#9DBD4A"/>
<path d="M1369.34 246.099C1379.39 246.86 1382.58 240.343 1382.92 236.989C1380.15 241.045 1375.43 241.848 1373.42 241.742C1367.3 241.425 1363.72 242.086 1362.7 242.455C1353.22 244.293 1349.63 238.468 1349.01 235.326C1347.95 239.952 1350.95 243.379 1352.59 244.515C1359.21 249.331 1366.51 247.578 1369.34 246.099Z" fill="#87A342"/>
<path d="M1364.84 260.675H1367.4L1367.09 250.218C1368.38 248.634 1369.67 246.337 1370.16 245.386H1369.75C1369.09 247.287 1367.57 248.396 1366.89 248.713L1366.68 244.277H1365.36V246.574C1364.54 246.654 1363.41 244.594 1363.41 244.99C1363.41 245.307 1364.71 246.495 1365.36 247.05C1365.76 251.803 1365.19 258.114 1364.84 260.675Z" fill="#867046"/>
<path d="M1371.79 227.721C1380.78 228.291 1382.99 234.323 1382.92 237.175C1380.39 241.104 1376.15 241.928 1374.34 241.849C1367.89 241.468 1364.78 242.165 1364.13 242.482C1353.59 245.397 1349.66 238.997 1349.01 235.511C1349.42 232.659 1351.6 230.599 1352.59 230.018C1353 226.596 1355.96 224.631 1357.39 224.077C1365.07 221.161 1370.19 225.291 1371.79 227.721Z" fill="#9DBD4A"/>
<path d="M1101.92 270.523H1105.74V262.578H1104.87V261.293H1104.18V242.599C1104.32 242.226 1104.93 241.821 1105.22 241.665H1101.92C1102.62 241.758 1103.14 242.327 1103.31 242.599V261.293H1102.79V262.578H1101.92V270.523Z" fill="#575254"/>
<path d="M1100.71 240.351C1101.1 240.446 1102.08 241.266 1102.52 241.664H1103.83V236.29H1100.71V240.351Z" fill="#FCE6A8"/>
<path d="M1106.61 236.29H1103.66V241.664H1105.05C1105.05 241.384 1106.09 240.613 1106.61 240.262V236.29Z" fill="#FADB80"/>
<path d="M1106.61 236.29L1107.3 235.94H1100.19L1100.71 236.29H1106.61Z" fill="#AEA466"/>
<path d="M1106.61 235.472V235.94H1100.88V235.472H1101.58V234.655H1102.79V233.369H1104.7V234.655H1106.09V235.472H1106.61Z" fill="#554F53"/>
<path d="M1129.6 267.141V266.092H1165.25V267.141H1129.6Z" fill="#956B40"/>
<path d="M1167.82 261.66H1169.1V260.611H1165.25V270.523H1167.82V261.66Z" fill="#BB894B"/>
<path d="M1127.35 261.544H1126.07V260.494H1129.92V270.406H1127.35V261.544Z" fill="#BB894B"/>
<rect width="35.3235" height="0.932921" transform="matrix(-1 0 0 1 1165.25 260.727)" fill="#B18246"/>
<rect width="1.60561" height="4.89783" transform="matrix(-1 0 0 1 1165.25 258.628)" fill="#9E7E43"/>
<rect width="1.60561" height="5.36429" transform="matrix(-1 0 0 1 1162.04 258.162)" fill="#9E7E43"/>
<rect width="1.60561" height="5.83076" transform="matrix(-1 0 0 1 1158.82 257.695)" fill="#9E7E43"/>
<rect width="1.60561" height="6.29722" transform="matrix(-1 0 0 1 1155.29 257.229)" fill="#9E7E43"/>
<rect width="1.60561" height="6.76368" transform="matrix(-1 0 0 1 1151.76 256.762)" fill="#9E7E43"/>
<rect width="1.60561" height="6.76368" transform="matrix(-1 0 0 1 1148.55 256.762)" fill="#9E7E43"/>
<rect width="1.92673" height="6.76368" transform="matrix(-1 0 0 1 1145.34 256.762)" fill="#9E7E43"/>
<rect width="1.92673" height="6.29722" transform="matrix(-1 0 0 1 1141.81 257.229)" fill="#9E7E43"/>
<rect width="1.60561" height="5.83076" transform="matrix(-1 0 0 1 1137.95 257.695)" fill="#9E7E43"/>
<rect width="1.92673" height="5.36429" transform="matrix(-1 0 0 1 1134.74 258.162)" fill="#9E7E43"/>
<rect width="1.60561" height="4.89783" transform="matrix(-1 0 0 1 1131.21 258.628)" fill="#9E7E43"/>
<rect width="35.3235" height="2.09907" transform="matrix(-1 0 0 1 1165.25 263.059)" fill="#B18246"/>
</svg>
