<svg width="24" height="24" viewBox="0 0 24 24" fill="none" xmlns="http://www.w3.org/2000/svg">
<path fill-rule="evenodd" clip-rule="evenodd" d="M5 16.25C5.19891 16.25 5.38968 16.329 5.53033 16.4697C5.67098 16.6104 5.75 16.8011 5.75 17V19C5.75 19.138 5.862 19.25 6 19.25H18C18.0663 19.25 18.1299 19.2237 18.1768 19.1768C18.2237 19.1299 18.25 19.0663 18.25 19V17C18.25 16.8011 18.329 16.6104 18.4697 16.4697C18.6103 16.329 18.8011 16.25 19 16.25C19.1989 16.25 19.3897 16.329 19.5303 16.4697C19.671 16.6104 19.75 16.8011 19.75 17V19C19.75 19.4642 19.5656 19.9093 19.2374 20.2375C18.9092 20.5657 18.4641 20.75 18 20.75H6C5.53587 20.75 5.09075 20.5657 4.76256 20.2375C4.43437 19.9093 4.25 19.4642 4.25 19V17C4.25 16.8011 4.32902 16.6104 4.46967 16.4697C4.61032 16.329 4.80109 16.25 5 16.25ZM10.738 16.127C10.4898 16.1272 10.2506 16.0344 10.0675 15.8669C9.88441 15.6993 9.77076 15.4692 9.749 15.222C9.59578 13.4696 9.56904 11.7083 9.669 9.95203C9.42186 9.9382 9.17485 9.9222 8.928 9.90403L7.438 9.79503C7.30678 9.78541 7.1803 9.7419 7.07094 9.66873C6.96158 9.59557 6.87309 9.49527 6.81413 9.37764C6.75516 9.26002 6.72775 9.1291 6.73456 8.9977C6.74138 8.8663 6.78219 8.73892 6.853 8.62803C7.91489 6.9659 9.2832 5.5209 10.885 4.37003L11.482 3.94103C11.633 3.83261 11.8141 3.77429 12 3.77429C12.1859 3.77429 12.367 3.83261 12.518 3.94103L13.115 4.37103C14.7167 5.52162 16.085 6.96628 17.147 8.62803C17.2178 8.73892 17.2586 8.8663 17.2654 8.9977C17.2723 9.1291 17.2448 9.26002 17.1859 9.37764C17.1269 9.49527 17.0384 9.59557 16.9291 9.66873C16.8197 9.7419 16.6932 9.78541 16.562 9.79503L15.072 9.90403C14.826 9.92203 14.579 9.93803 14.332 9.95103C14.432 11.708 14.404 13.469 14.25 15.221C14.2285 15.4683 14.1151 15.6984 13.9322 15.8662C13.7493 16.0339 13.5102 16.127 13.262 16.127H10.738Z" fill="#F8F8F8"/>
</svg>
